G04 Layer_Color=65535*
%FSLAX25Y25*%
%MOIN*%
G70*
G01*
G75*
%ADD12C,0.00050*%
%ADD15C,0.00394*%
%ADD16C,0.00787*%
%ADD17C,0.00787*%
%ADD18C,0.00500*%
G36*
X28000Y9509D02*
X27918D01*
X27867Y9513D01*
X27802Y9522D01*
X27729Y9534D01*
X27656Y9552D01*
X27579Y9577D01*
X27574D01*
X27561Y9582D01*
X27544Y9590D01*
X27523Y9603D01*
X27493Y9616D01*
X27454Y9633D01*
X27415Y9651D01*
X27372Y9676D01*
X27269Y9728D01*
X27161Y9801D01*
X27041Y9883D01*
X26921Y9977D01*
X26916Y9982D01*
X26908Y9990D01*
X26886Y10007D01*
X26865Y10029D01*
X26835Y10059D01*
X26796Y10093D01*
X26753Y10132D01*
X26706Y10179D01*
X26654Y10235D01*
X26598Y10291D01*
X26534Y10360D01*
X26469Y10429D01*
X26400Y10506D01*
X26327Y10588D01*
X26250Y10678D01*
X26173Y10773D01*
Y10777D01*
X26164Y10781D01*
X26142Y10807D01*
X26108Y10850D01*
X26061Y10902D01*
X26005Y10971D01*
X25940Y11044D01*
X25867Y11125D01*
X25790Y11211D01*
X25708Y11302D01*
X25622Y11396D01*
X25536Y11487D01*
X25446Y11577D01*
X25360Y11659D01*
X25274Y11736D01*
X25196Y11805D01*
X25119Y11865D01*
X25115Y11869D01*
X25102Y11878D01*
X25080Y11891D01*
X25054Y11908D01*
X25020Y11930D01*
X24977Y11955D01*
X24934Y11981D01*
X24882Y12007D01*
X24771Y12059D01*
X24646Y12106D01*
X24581Y12123D01*
X24517Y12136D01*
X24453Y12145D01*
X24388Y12149D01*
X24354D01*
X24328Y12145D01*
X24298Y12140D01*
X24259Y12136D01*
X24220Y12127D01*
X24177Y12119D01*
X24078Y12084D01*
X24031Y12067D01*
X23979Y12041D01*
X23928Y12011D01*
X23876Y11977D01*
X23825Y11938D01*
X23777Y11891D01*
X23773Y11886D01*
X23765Y11878D01*
X23756Y11865D01*
X23739Y11844D01*
X23721Y11818D01*
X23700Y11788D01*
X23674Y11753D01*
X23653Y11710D01*
X23631Y11663D01*
X23605Y11611D01*
X23584Y11555D01*
X23567Y11495D01*
X23550Y11435D01*
X23537Y11366D01*
X23532Y11293D01*
X23528Y11216D01*
Y11211D01*
Y11198D01*
Y11173D01*
X23532Y11143D01*
X23537Y11108D01*
X23541Y11065D01*
X23550Y11014D01*
X23562Y10962D01*
X23593Y10850D01*
X23614Y10794D01*
X23640Y10734D01*
X23670Y10678D01*
X23709Y10622D01*
X23747Y10566D01*
X23795Y10515D01*
X23799Y10510D01*
X23808Y10502D01*
X23820Y10489D01*
X23842Y10476D01*
X23872Y10455D01*
X23902Y10433D01*
X23941Y10407D01*
X23984Y10386D01*
X24035Y10360D01*
X24091Y10334D01*
X24151Y10313D01*
X24216Y10295D01*
X24285Y10278D01*
X24362Y10265D01*
X24440Y10257D01*
X24526Y10253D01*
X24461Y9625D01*
X24453D01*
X24431Y9629D01*
X24392Y9633D01*
X24345Y9642D01*
X24289Y9651D01*
X24220Y9668D01*
X24147Y9685D01*
X24066Y9706D01*
X23979Y9736D01*
X23893Y9767D01*
X23803Y9805D01*
X23717Y9853D01*
X23627Y9904D01*
X23545Y9960D01*
X23468Y10029D01*
X23395Y10102D01*
X23390Y10106D01*
X23378Y10124D01*
X23360Y10145D01*
X23339Y10179D01*
X23309Y10222D01*
X23279Y10274D01*
X23244Y10334D01*
X23210Y10403D01*
X23175Y10476D01*
X23141Y10562D01*
X23111Y10657D01*
X23081Y10756D01*
X23059Y10863D01*
X23042Y10979D01*
X23029Y11100D01*
X23025Y11229D01*
Y11237D01*
Y11259D01*
X23029Y11297D01*
Y11345D01*
X23038Y11405D01*
X23046Y11478D01*
X23059Y11555D01*
X23072Y11637D01*
X23094Y11727D01*
X23120Y11818D01*
X23154Y11912D01*
X23193Y12007D01*
X23236Y12101D01*
X23291Y12192D01*
X23352Y12278D01*
X23420Y12359D01*
X23425Y12364D01*
X23438Y12377D01*
X23459Y12398D01*
X23489Y12424D01*
X23528Y12458D01*
X23575Y12493D01*
X23631Y12527D01*
X23691Y12570D01*
X23760Y12609D01*
X23833Y12643D01*
X23915Y12682D01*
X24001Y12712D01*
X24091Y12738D01*
X24190Y12759D01*
X24293Y12772D01*
X24401Y12777D01*
X24453D01*
X24478Y12772D01*
X24513D01*
X24586Y12759D01*
X24676Y12746D01*
X24775Y12725D01*
X24882Y12695D01*
X24990Y12652D01*
X24994D01*
X25003Y12648D01*
X25020Y12639D01*
X25037Y12630D01*
X25067Y12618D01*
X25098Y12600D01*
X25132Y12579D01*
X25171Y12557D01*
X25261Y12501D01*
X25364Y12433D01*
X25476Y12347D01*
X25592Y12248D01*
X25596Y12243D01*
X25605Y12235D01*
X25626Y12218D01*
X25652Y12196D01*
X25682Y12162D01*
X25721Y12123D01*
X25768Y12080D01*
X25820Y12028D01*
X25880Y11964D01*
X25945Y11895D01*
X26018Y11822D01*
X26095Y11736D01*
X26177Y11646D01*
X26267Y11542D01*
X26362Y11435D01*
X26465Y11315D01*
X26469Y11310D01*
X26486Y11289D01*
X26508Y11263D01*
X26538Y11224D01*
X26577Y11181D01*
X26620Y11134D01*
X26667Y11078D01*
X26714Y11022D01*
X26818Y10902D01*
X26921Y10786D01*
X26968Y10734D01*
X27015Y10683D01*
X27054Y10644D01*
X27088Y10609D01*
X27097Y10601D01*
X27114Y10584D01*
X27149Y10554D01*
X27192Y10519D01*
X27239Y10480D01*
X27295Y10437D01*
X27355Y10394D01*
X27415Y10356D01*
Y12785D01*
X28000D01*
Y9509D01*
D02*
G37*
G36*
X56579Y53655D02*
X56656D01*
X56751Y53651D01*
X56854Y53642D01*
X56966Y53634D01*
X57082Y53621D01*
X57207Y53608D01*
X57461Y53573D01*
X57585Y53548D01*
X57706Y53522D01*
X57822Y53487D01*
X57934Y53453D01*
X57938Y53449D01*
X57959Y53444D01*
X57990Y53431D01*
X58024Y53414D01*
X58071Y53393D01*
X58127Y53367D01*
X58187Y53337D01*
X58252Y53298D01*
X58321Y53259D01*
X58389Y53212D01*
X58463Y53161D01*
X58531Y53105D01*
X58600Y53049D01*
X58669Y52980D01*
X58733Y52911D01*
X58789Y52838D01*
X58794Y52834D01*
X58802Y52821D01*
X58815Y52795D01*
X58837Y52765D01*
X58858Y52726D01*
X58880Y52679D01*
X58910Y52627D01*
X58935Y52567D01*
X58961Y52498D01*
X58987Y52425D01*
X59013Y52348D01*
X59034Y52262D01*
X59056Y52176D01*
X59069Y52081D01*
X59077Y51982D01*
X59082Y51884D01*
Y51875D01*
Y51858D01*
X59077Y51828D01*
Y51785D01*
X59073Y51737D01*
X59065Y51677D01*
X59056Y51617D01*
X59043Y51544D01*
X59026Y51471D01*
X59004Y51393D01*
X58978Y51316D01*
X58944Y51234D01*
X58910Y51152D01*
X58867Y51075D01*
X58815Y51002D01*
X58759Y50929D01*
X58755Y50925D01*
X58742Y50912D01*
X58725Y50894D01*
X58699Y50869D01*
X58665Y50843D01*
X58626Y50809D01*
X58579Y50774D01*
X58523Y50735D01*
X58463Y50701D01*
X58394Y50662D01*
X58321Y50624D01*
X58239Y50589D01*
X58153Y50559D01*
X58058Y50529D01*
X57959Y50507D01*
X57852Y50490D01*
X57796Y51075D01*
X57800D01*
X57813Y51079D01*
X57835Y51084D01*
X57865Y51088D01*
X57899Y51097D01*
X57938Y51109D01*
X58028Y51140D01*
X58127Y51174D01*
X58226Y51226D01*
X58321Y51281D01*
X58359Y51316D01*
X58398Y51355D01*
Y51359D01*
X58407Y51363D01*
X58415Y51376D01*
X58428Y51393D01*
X58441Y51415D01*
X58458Y51441D01*
X58488Y51501D01*
X58523Y51578D01*
X58553Y51669D01*
X58574Y51776D01*
X58579Y51832D01*
X58583Y51892D01*
Y51896D01*
Y51905D01*
Y51918D01*
Y51939D01*
X58579Y51965D01*
X58574Y51991D01*
X58566Y52060D01*
X58553Y52137D01*
X58531Y52219D01*
X58501Y52305D01*
X58458Y52387D01*
Y52391D01*
X58454Y52395D01*
X58432Y52421D01*
X58407Y52460D01*
X58368Y52507D01*
X58316Y52563D01*
X58260Y52619D01*
X58192Y52679D01*
X58114Y52731D01*
X58110D01*
X58106Y52735D01*
X58093Y52744D01*
X58075Y52752D01*
X58054Y52765D01*
X58028Y52778D01*
X57998Y52795D01*
X57959Y52812D01*
X57878Y52847D01*
X57779Y52885D01*
X57663Y52924D01*
X57534Y52959D01*
X57529D01*
X57516Y52963D01*
X57499Y52967D01*
X57469Y52971D01*
X57439Y52980D01*
X57396Y52989D01*
X57353Y52997D01*
X57301Y53006D01*
X57250Y53010D01*
X57190Y53019D01*
X57065Y53036D01*
X56932Y53044D01*
X56790Y53049D01*
X56674D01*
X56682Y53040D01*
X56695Y53032D01*
X56717Y53014D01*
X56743Y52997D01*
X56768Y52976D01*
X56837Y52916D01*
X56910Y52847D01*
X56988Y52761D01*
X57065Y52658D01*
X57138Y52546D01*
Y52541D01*
X57147Y52533D01*
X57155Y52516D01*
X57168Y52490D01*
X57181Y52464D01*
X57194Y52425D01*
X57211Y52387D01*
X57228Y52344D01*
X57263Y52240D01*
X57289Y52129D01*
X57310Y52000D01*
X57319Y51866D01*
Y51858D01*
Y51841D01*
X57314Y51806D01*
X57310Y51763D01*
X57306Y51711D01*
X57297Y51651D01*
X57280Y51582D01*
X57263Y51505D01*
X57241Y51428D01*
X57211Y51342D01*
X57173Y51256D01*
X57134Y51170D01*
X57082Y51079D01*
X57022Y50993D01*
X56953Y50907D01*
X56876Y50826D01*
X56871Y50821D01*
X56854Y50809D01*
X56828Y50787D01*
X56794Y50761D01*
X56751Y50727D01*
X56695Y50692D01*
X56631Y50654D01*
X56562Y50615D01*
X56480Y50572D01*
X56390Y50533D01*
X56295Y50499D01*
X56188Y50469D01*
X56076Y50439D01*
X55960Y50417D01*
X55831Y50404D01*
X55698Y50400D01*
X55663D01*
X55625Y50404D01*
X55573Y50409D01*
X55508Y50413D01*
X55435Y50422D01*
X55354Y50439D01*
X55263Y50456D01*
X55169Y50477D01*
X55070Y50507D01*
X54971Y50546D01*
X54868Y50585D01*
X54769Y50637D01*
X54670Y50697D01*
X54575Y50766D01*
X54485Y50843D01*
X54481Y50847D01*
X54463Y50864D01*
X54442Y50890D01*
X54412Y50925D01*
X54378Y50968D01*
X54339Y51019D01*
X54296Y51079D01*
X54253Y51148D01*
X54210Y51226D01*
X54171Y51312D01*
X54132Y51402D01*
X54098Y51501D01*
X54068Y51604D01*
X54046Y51716D01*
X54029Y51832D01*
X54025Y51957D01*
Y51961D01*
Y51978D01*
Y52004D01*
X54029Y52038D01*
X54033Y52081D01*
X54038Y52129D01*
X54046Y52184D01*
X54059Y52249D01*
X54072Y52314D01*
X54089Y52382D01*
X54111Y52455D01*
X54137Y52533D01*
X54167Y52610D01*
X54201Y52688D01*
X54240Y52761D01*
X54287Y52838D01*
X54291Y52842D01*
X54300Y52855D01*
X54313Y52877D01*
X54334Y52903D01*
X54360Y52937D01*
X54395Y52976D01*
X54433Y53019D01*
X54476Y53066D01*
X54524Y53113D01*
X54580Y53165D01*
X54640Y53216D01*
X54709Y53268D01*
X54782Y53315D01*
X54855Y53363D01*
X54941Y53410D01*
X55027Y53449D01*
X55031Y53453D01*
X55048Y53457D01*
X55078Y53470D01*
X55117Y53483D01*
X55164Y53496D01*
X55229Y53518D01*
X55298Y53535D01*
X55379Y53556D01*
X55474Y53573D01*
X55577Y53595D01*
X55693Y53612D01*
X55818Y53625D01*
X55951Y53642D01*
X56098Y53651D01*
X56252Y53655D01*
X56420Y53659D01*
X56510D01*
X56579Y53655D01*
D02*
G37*
G36*
X27900Y48717D02*
X24026D01*
X24030Y48713D01*
X24034Y48708D01*
X24047Y48695D01*
X24060Y48678D01*
X24082Y48652D01*
X24103Y48627D01*
X24129Y48597D01*
X24159Y48562D01*
X24219Y48476D01*
X24292Y48377D01*
X24370Y48265D01*
X24447Y48136D01*
X24451Y48132D01*
X24456Y48119D01*
X24469Y48102D01*
X24482Y48076D01*
X24499Y48046D01*
X24516Y48012D01*
X24542Y47969D01*
X24563Y47926D01*
X24615Y47827D01*
X24666Y47719D01*
X24718Y47607D01*
X24761Y47500D01*
X24172D01*
X24168Y47504D01*
X24159Y47521D01*
X24146Y47552D01*
X24129Y47586D01*
X24107Y47629D01*
X24077Y47681D01*
X24047Y47736D01*
X24009Y47801D01*
X23970Y47870D01*
X23923Y47939D01*
X23824Y48089D01*
X23712Y48244D01*
X23591Y48390D01*
X23587Y48394D01*
X23574Y48407D01*
X23557Y48425D01*
X23531Y48455D01*
X23501Y48485D01*
X23467Y48519D01*
X23424Y48558D01*
X23381Y48601D01*
X23278Y48691D01*
X23166Y48781D01*
X23045Y48863D01*
X22985Y48902D01*
X22925Y48932D01*
Y49327D01*
X27900D01*
Y48717D01*
D02*
G37*
G36*
X59100Y10817D02*
X55226D01*
X55230Y10813D01*
X55234Y10808D01*
X55247Y10795D01*
X55260Y10778D01*
X55282Y10752D01*
X55303Y10727D01*
X55329Y10696D01*
X55359Y10662D01*
X55419Y10576D01*
X55492Y10477D01*
X55570Y10365D01*
X55647Y10236D01*
X55651Y10232D01*
X55656Y10219D01*
X55669Y10202D01*
X55682Y10176D01*
X55699Y10146D01*
X55716Y10112D01*
X55742Y10069D01*
X55763Y10026D01*
X55815Y9927D01*
X55866Y9819D01*
X55918Y9708D01*
X55961Y9600D01*
X55372D01*
X55368Y9604D01*
X55359Y9622D01*
X55346Y9652D01*
X55329Y9686D01*
X55307Y9729D01*
X55277Y9781D01*
X55247Y9837D01*
X55208Y9901D01*
X55170Y9970D01*
X55123Y10039D01*
X55024Y10189D01*
X54912Y10344D01*
X54791Y10490D01*
X54787Y10494D01*
X54774Y10507D01*
X54757Y10525D01*
X54731Y10555D01*
X54701Y10585D01*
X54667Y10619D01*
X54624Y10658D01*
X54581Y10701D01*
X54478Y10791D01*
X54366Y10881D01*
X54245Y10963D01*
X54185Y11002D01*
X54125Y11032D01*
Y11428D01*
X59100D01*
Y10817D01*
D02*
G37*
G36*
X25604Y54118D02*
X25677D01*
X25763Y54113D01*
X25857Y54109D01*
X25961Y54101D01*
X26072Y54092D01*
X26184Y54079D01*
X26421Y54045D01*
X26537Y54027D01*
X26653Y54002D01*
X26765Y53971D01*
X26868Y53941D01*
X26872D01*
X26890Y53933D01*
X26920Y53924D01*
X26954Y53907D01*
X27001Y53890D01*
X27053Y53864D01*
X27109Y53838D01*
X27169Y53808D01*
X27302Y53731D01*
X27440Y53640D01*
X27573Y53529D01*
X27638Y53468D01*
X27694Y53404D01*
X27698Y53400D01*
X27707Y53387D01*
X27719Y53369D01*
X27737Y53339D01*
X27762Y53305D01*
X27784Y53262D01*
X27810Y53215D01*
X27836Y53159D01*
X27866Y53094D01*
X27891Y53030D01*
X27913Y52952D01*
X27934Y52875D01*
X27956Y52789D01*
X27969Y52699D01*
X27977Y52604D01*
X27982Y52505D01*
Y52497D01*
Y52475D01*
X27977Y52436D01*
X27973Y52385D01*
X27964Y52325D01*
X27956Y52256D01*
X27939Y52178D01*
X27917Y52097D01*
X27891Y52006D01*
X27857Y51916D01*
X27818Y51822D01*
X27767Y51727D01*
X27711Y51632D01*
X27642Y51546D01*
X27565Y51460D01*
X27474Y51379D01*
X27466Y51374D01*
X27444Y51357D01*
X27406Y51336D01*
X27354Y51301D01*
X27285Y51267D01*
X27203Y51224D01*
X27104Y51181D01*
X26988Y51134D01*
X26855Y51086D01*
X26709Y51043D01*
X26541Y51000D01*
X26361Y50966D01*
X26262Y50949D01*
X26163Y50936D01*
X26055Y50923D01*
X25943Y50910D01*
X25827Y50901D01*
X25711Y50893D01*
X25587Y50888D01*
X25372D01*
X25311Y50893D01*
X25238D01*
X25152Y50897D01*
X25058Y50906D01*
X24950Y50910D01*
X24843Y50923D01*
X24727Y50931D01*
X24490Y50966D01*
X24374Y50987D01*
X24258Y51009D01*
X24146Y51039D01*
X24043Y51069D01*
X24039Y51073D01*
X24017Y51078D01*
X23991Y51086D01*
X23953Y51103D01*
X23910Y51121D01*
X23858Y51146D01*
X23802Y51172D01*
X23738Y51202D01*
X23604Y51280D01*
X23467Y51370D01*
X23333Y51482D01*
X23273Y51542D01*
X23217Y51607D01*
X23213Y51611D01*
X23204Y51624D01*
X23191Y51645D01*
X23170Y51671D01*
X23148Y51705D01*
X23123Y51748D01*
X23097Y51796D01*
X23071Y51852D01*
X23045Y51916D01*
X23015Y51985D01*
X22994Y52058D01*
X22972Y52135D01*
X22951Y52221D01*
X22938Y52312D01*
X22929Y52406D01*
X22925Y52505D01*
Y52509D01*
Y52522D01*
Y52544D01*
X22929Y52574D01*
Y52608D01*
X22933Y52647D01*
X22938Y52690D01*
X22946Y52742D01*
X22964Y52849D01*
X22994Y52965D01*
X23032Y53086D01*
X23088Y53202D01*
Y53206D01*
X23097Y53215D01*
X23106Y53232D01*
X23118Y53253D01*
X23136Y53279D01*
X23153Y53309D01*
X23204Y53378D01*
X23273Y53460D01*
X23351Y53541D01*
X23445Y53623D01*
X23553Y53701D01*
X23557Y53705D01*
X23566Y53709D01*
X23583Y53718D01*
X23604Y53735D01*
X23634Y53748D01*
X23669Y53769D01*
X23712Y53791D01*
X23759Y53812D01*
X23806Y53838D01*
X23862Y53864D01*
X23927Y53890D01*
X23991Y53916D01*
X24133Y53963D01*
X24288Y54010D01*
X24292D01*
X24309Y54014D01*
X24331Y54019D01*
X24365Y54027D01*
X24413Y54036D01*
X24464Y54045D01*
X24524Y54058D01*
X24598Y54066D01*
X24675Y54075D01*
X24765Y54088D01*
X24860Y54096D01*
X24963Y54105D01*
X25075Y54113D01*
X25195Y54118D01*
X25324Y54122D01*
X25544D01*
X25604Y54118D01*
D02*
G37*
%LPC*%
G36*
X55668Y52984D02*
X55616D01*
X55581Y52980D01*
X55538Y52976D01*
X55487Y52971D01*
X55427Y52963D01*
X55366Y52950D01*
X55233Y52916D01*
X55164Y52894D01*
X55096Y52868D01*
X55027Y52834D01*
X54962Y52795D01*
X54898Y52752D01*
X54838Y52705D01*
X54833Y52701D01*
X54825Y52692D01*
X54808Y52675D01*
X54790Y52653D01*
X54764Y52627D01*
X54739Y52597D01*
X54713Y52559D01*
X54683Y52516D01*
X54653Y52468D01*
X54627Y52417D01*
X54575Y52305D01*
X54558Y52240D01*
X54541Y52176D01*
X54532Y52107D01*
X54528Y52034D01*
Y52030D01*
Y52017D01*
Y51995D01*
X54532Y51965D01*
X54537Y51931D01*
X54545Y51888D01*
X54554Y51845D01*
X54571Y51793D01*
X54588Y51737D01*
X54610Y51681D01*
X54636Y51621D01*
X54666Y51561D01*
X54704Y51501D01*
X54752Y51441D01*
X54799Y51380D01*
X54859Y51324D01*
X54863Y51320D01*
X54876Y51312D01*
X54893Y51299D01*
X54919Y51277D01*
X54954Y51256D01*
X54992Y51230D01*
X55040Y51204D01*
X55091Y51178D01*
X55151Y51148D01*
X55216Y51122D01*
X55285Y51097D01*
X55362Y51075D01*
X55444Y51054D01*
X55530Y51041D01*
X55620Y51032D01*
X55719Y51028D01*
X55766D01*
X55796Y51032D01*
X55840Y51036D01*
X55883Y51045D01*
X55934Y51054D01*
X55994Y51062D01*
X56115Y51097D01*
X56179Y51118D01*
X56244Y51148D01*
X56308Y51178D01*
X56368Y51217D01*
X56433Y51260D01*
X56489Y51312D01*
X56493Y51316D01*
X56502Y51324D01*
X56515Y51342D01*
X56536Y51363D01*
X56558Y51389D01*
X56579Y51423D01*
X56609Y51462D01*
X56635Y51505D01*
X56661Y51557D01*
X56687Y51608D01*
X56712Y51669D01*
X56734Y51729D01*
X56755Y51797D01*
X56768Y51866D01*
X56777Y51939D01*
X56781Y52017D01*
Y52021D01*
Y52034D01*
Y52056D01*
X56777Y52086D01*
X56773Y52124D01*
X56764Y52163D01*
X56755Y52210D01*
X56743Y52262D01*
X56708Y52369D01*
X56687Y52430D01*
X56656Y52486D01*
X56622Y52546D01*
X56583Y52602D01*
X56540Y52658D01*
X56489Y52709D01*
X56485Y52713D01*
X56476Y52722D01*
X56459Y52735D01*
X56433Y52752D01*
X56403Y52774D01*
X56368Y52795D01*
X56325Y52821D01*
X56274Y52847D01*
X56218Y52873D01*
X56158Y52898D01*
X56089Y52920D01*
X56016Y52941D01*
X55938Y52959D01*
X55852Y52971D01*
X55762Y52980D01*
X55668Y52984D01*
D02*
G37*
G36*
X25569Y53494D02*
X25341D01*
X25303Y53490D01*
X25260D01*
X25161Y53486D01*
X25049Y53477D01*
X24929Y53468D01*
X24795Y53460D01*
X24662Y53443D01*
X24524Y53425D01*
X24387Y53400D01*
X24258Y53374D01*
X24133Y53339D01*
X24017Y53301D01*
X23918Y53258D01*
X23871Y53232D01*
X23832Y53206D01*
X23828Y53202D01*
X23815Y53193D01*
X23794Y53176D01*
X23768Y53154D01*
X23738Y53129D01*
X23703Y53094D01*
X23669Y53056D01*
X23630Y53013D01*
X23591Y52961D01*
X23557Y52909D01*
X23523Y52849D01*
X23493Y52789D01*
X23467Y52720D01*
X23445Y52651D01*
X23432Y52574D01*
X23428Y52497D01*
Y52492D01*
Y52479D01*
X23432Y52458D01*
Y52428D01*
X23441Y52393D01*
X23445Y52350D01*
X23458Y52307D01*
X23471Y52256D01*
X23493Y52204D01*
X23514Y52148D01*
X23544Y52092D01*
X23578Y52036D01*
X23617Y51981D01*
X23669Y51929D01*
X23720Y51877D01*
X23785Y51826D01*
X23789Y51822D01*
X23806Y51813D01*
X23836Y51796D01*
X23875Y51779D01*
X23927Y51753D01*
X23991Y51727D01*
X24069Y51701D01*
X24163Y51671D01*
X24271Y51641D01*
X24391Y51615D01*
X24529Y51589D01*
X24679Y51564D01*
X24851Y51546D01*
X25036Y51529D01*
X25135Y51525D01*
X25238Y51521D01*
X25346Y51516D01*
X25574D01*
X25612Y51521D01*
X25655D01*
X25754Y51525D01*
X25866Y51533D01*
X25986Y51542D01*
X26120Y51551D01*
X26253Y51568D01*
X26391Y51585D01*
X26528Y51607D01*
X26657Y51637D01*
X26782Y51667D01*
X26898Y51705D01*
X26997Y51748D01*
X27044Y51774D01*
X27083Y51800D01*
X27087Y51804D01*
X27100Y51813D01*
X27122Y51830D01*
X27143Y51852D01*
X27178Y51877D01*
X27208Y51912D01*
X27246Y51951D01*
X27281Y51994D01*
X27319Y52045D01*
X27358Y52097D01*
X27388Y52157D01*
X27418Y52217D01*
X27444Y52286D01*
X27466Y52355D01*
X27479Y52428D01*
X27483Y52505D01*
Y52509D01*
Y52522D01*
X27479Y52544D01*
X27474Y52574D01*
X27470Y52613D01*
X27461Y52651D01*
X27448Y52699D01*
X27431Y52750D01*
X27410Y52802D01*
X27384Y52858D01*
X27350Y52918D01*
X27311Y52978D01*
X27268Y53034D01*
X27212Y53094D01*
X27152Y53150D01*
X27079Y53206D01*
X27074Y53210D01*
X27057Y53219D01*
X27031Y53232D01*
X26997Y53253D01*
X26950Y53275D01*
X26885Y53296D01*
X26812Y53322D01*
X26726Y53352D01*
X26623Y53378D01*
X26507Y53404D01*
X26373Y53425D01*
X26223Y53451D01*
X26146Y53460D01*
X26060Y53468D01*
X25969Y53477D01*
X25875Y53481D01*
X25780Y53486D01*
X25677Y53490D01*
X25569Y53494D01*
D02*
G37*
%LPD*%
D12*
X62992Y47244D02*
X62961Y48233D01*
X62868Y49218D01*
X62713Y50195D01*
X62497Y51161D01*
X62221Y52110D01*
X61886Y53041D01*
X61493Y53949D01*
X61044Y54831D01*
X60541Y55682D01*
X59984Y56501D01*
X59378Y57282D01*
X58724Y58024D01*
X58024Y58724D01*
X57282Y59378D01*
X56501Y59984D01*
X55682Y60541D01*
X54831Y61044D01*
X53949Y61493D01*
X53041Y61886D01*
X52110Y62221D01*
X51161Y62497D01*
X50195Y62713D01*
X49218Y62868D01*
X48233Y62961D01*
X47244Y62992D01*
X47244Y0D02*
X48233Y31D01*
X49218Y124D01*
X50195Y279D01*
X51161Y495D01*
X52110Y771D01*
X53041Y1106D01*
X53949Y1499D01*
X54831Y1948D01*
X55682Y2451D01*
X56501Y3008D01*
X57282Y3614D01*
X58024Y4268D01*
X58724Y4968D01*
X59378Y5710D01*
X59984Y6492D01*
X60541Y7310D01*
X61044Y8161D01*
X61493Y9043D01*
X61886Y9951D01*
X62221Y10882D01*
X62497Y11832D01*
X62713Y12797D01*
X62868Y13774D01*
X62961Y14759D01*
X62992Y15748D01*
X15748Y62992D02*
X14759Y62961D01*
X13774Y62868D01*
X12797Y62713D01*
X11832Y62497D01*
X10882Y62221D01*
X9951Y61886D01*
X9043Y61493D01*
X8161Y61044D01*
X7310Y60541D01*
X6492Y59984D01*
X5710Y59378D01*
X4968Y58724D01*
X4268Y58024D01*
X3614Y57282D01*
X3008Y56501D01*
X2451Y55682D01*
X1948Y54831D01*
X1499Y53949D01*
X1106Y53041D01*
X771Y52110D01*
X495Y51160D01*
X279Y50195D01*
X124Y49218D01*
X31Y48233D01*
X0Y47244D01*
Y15748D02*
X31Y14759D01*
X124Y13774D01*
X279Y12797D01*
X495Y11832D01*
X771Y10882D01*
X1106Y9951D01*
X1499Y9043D01*
X1948Y8161D01*
X2451Y7310D01*
X3008Y6492D01*
X3614Y5710D01*
X4268Y4968D01*
X4968Y4268D01*
X5710Y3614D01*
X6492Y3008D01*
X7310Y2451D01*
X8161Y1948D01*
X9043Y1499D01*
X9951Y1106D01*
X10882Y771D01*
X11832Y495D01*
X12797Y279D01*
X13774Y124D01*
X14759Y31D01*
X15748Y0D01*
X15748D02*
X47244D01*
X0Y15748D02*
Y47244D01*
X15748Y62992D02*
X47244D01*
X62992Y15748D02*
Y47244D01*
D15*
X62992Y47244D02*
X62961Y48233D01*
X62868Y49218D01*
X62713Y50195D01*
X62497Y51161D01*
X62221Y52110D01*
X61886Y53041D01*
X61493Y53949D01*
X61044Y54831D01*
X60541Y55682D01*
X59984Y56501D01*
X59378Y57282D01*
X58724Y58024D01*
X58024Y58724D01*
X57282Y59378D01*
X56501Y59984D01*
X55682Y60541D01*
X54831Y61044D01*
X53949Y61493D01*
X53041Y61886D01*
X52110Y62221D01*
X51161Y62497D01*
X50195Y62713D01*
X49218Y62868D01*
X48233Y62961D01*
X47244Y62992D01*
X47244Y0D02*
X48233Y31D01*
X49218Y124D01*
X50195Y279D01*
X51161Y495D01*
X52110Y771D01*
X53041Y1106D01*
X53949Y1499D01*
X54831Y1948D01*
X55682Y2451D01*
X56501Y3008D01*
X57282Y3614D01*
X58024Y4268D01*
X58724Y4968D01*
X59378Y5710D01*
X59984Y6492D01*
X60541Y7310D01*
X61044Y8161D01*
X61493Y9043D01*
X61886Y9951D01*
X62221Y10882D01*
X62497Y11832D01*
X62713Y12797D01*
X62868Y13774D01*
X62961Y14759D01*
X62992Y15748D01*
X15748Y62992D02*
X14759Y62961D01*
X13774Y62868D01*
X12797Y62713D01*
X11832Y62497D01*
X10882Y62221D01*
X9951Y61886D01*
X9043Y61493D01*
X8161Y61044D01*
X7310Y60541D01*
X6492Y59984D01*
X5710Y59378D01*
X4968Y58724D01*
X4268Y58024D01*
X3614Y57282D01*
X3008Y56501D01*
X2451Y55682D01*
X1948Y54831D01*
X1499Y53949D01*
X1106Y53041D01*
X771Y52110D01*
X495Y51160D01*
X279Y50195D01*
X124Y49218D01*
X31Y48233D01*
X0Y47244D01*
Y15748D02*
X31Y14759D01*
X124Y13774D01*
X279Y12797D01*
X495Y11832D01*
X771Y10882D01*
X1106Y9951D01*
X1499Y9043D01*
X1948Y8161D01*
X2451Y7310D01*
X3008Y6492D01*
X3614Y5710D01*
X4268Y4968D01*
X4968Y4268D01*
X5710Y3614D01*
X6492Y3008D01*
X7310Y2451D01*
X8161Y1948D01*
X9043Y1499D01*
X9951Y1106D01*
X10882Y771D01*
X11832Y495D01*
X12797Y279D01*
X13774Y124D01*
X14759Y31D01*
X15748Y0D01*
X15748D02*
X47244D01*
X0Y15748D02*
Y47244D01*
X15748Y62992D02*
X47244D01*
X62992Y15748D02*
Y47244D01*
D16*
X15494Y20816D02*
X14706D01*
X15494D01*
X22624Y22936D02*
X21312D01*
X21968D01*
Y19656D01*
X21312Y19000D01*
X20656D01*
X20000Y19656D01*
X26560Y19000D02*
X23936D01*
X26560Y21624D01*
Y22280D01*
X25904Y22936D01*
X24592D01*
X23936Y22280D01*
X7624Y49936D02*
X6312D01*
X6968D01*
Y46656D01*
X6312Y46000D01*
X5656D01*
X5000Y46656D01*
X8936Y46000D02*
X10248D01*
X9592D01*
Y49936D01*
X8936Y49280D01*
D17*
X29228Y4228D02*
Y57772D01*
X52772D01*
Y4228D02*
Y57772D01*
X29228Y4228D02*
X52772D01*
D18*
X4300Y19416D02*
Y43216D01*
Y19416D02*
X8900D01*
X4300Y43216D02*
X9000D01*
M02*
