G04*
G04 #@! TF.GenerationSoftware,Altium Limited,Altium Designer,20.1.14 (287)*
G04*
G04 Layer_Color=16711935*
%FSLAX25Y25*%
%MOIN*%
G70*
G04*
G04 #@! TF.SameCoordinates,864C0722-24F4-47D7-AB5F-EB3DBA867953*
G04*
G04*
G04 #@! TF.FilePolarity,Positive*
G04*
G01*
G75*
%ADD14C,0.00050*%
D14*
X110236Y0D02*
X111212Y40D01*
X112180Y161D01*
X113136Y361D01*
X114071Y640D01*
X114981Y995D01*
X115858Y1424D01*
X116696Y1923D01*
X117491Y2490D01*
X118236Y3121D01*
X118926Y3812D01*
X119557Y4557D01*
X120124Y5351D01*
X120624Y6190D01*
X121052Y7067D01*
X121407Y7976D01*
X121686Y8912D01*
X121886Y9867D01*
X122007Y10836D01*
X122047Y11811D01*
Y283465D02*
X122007Y284440D01*
X121886Y285409D01*
X121686Y286364D01*
X121407Y287300D01*
X121052Y288209D01*
X120624Y289086D01*
X120124Y289925D01*
X119557Y290719D01*
X118926Y291464D01*
X118236Y292154D01*
X117491Y292785D01*
X116696Y293352D01*
X115858Y293852D01*
X114981Y294281D01*
X114071Y294636D01*
X113136Y294914D01*
X112180Y295114D01*
X111212Y295235D01*
X110236Y295276D01*
X11811D02*
X10836Y295235D01*
X9867Y295114D01*
X8912Y294914D01*
X7976Y294636D01*
X7067Y294281D01*
X6190Y293852D01*
X5351Y293352D01*
X4557Y292785D01*
X3812Y292154D01*
X3121Y291464D01*
X2490Y290719D01*
X1923Y289925D01*
X1424Y289086D01*
X995Y288209D01*
X640Y287300D01*
X361Y286364D01*
X161Y285409D01*
X40Y284440D01*
X0Y283465D01*
Y11811D02*
X40Y10836D01*
X161Y9867D01*
X361Y8912D01*
X640Y7976D01*
X995Y7067D01*
X1424Y6190D01*
X1923Y5351D01*
X2490Y4557D01*
X3121Y3812D01*
X3812Y3121D01*
X4557Y2490D01*
X5351Y1923D01*
X6190Y1424D01*
X7067Y995D01*
X7976Y640D01*
X8912Y361D01*
X9867Y161D01*
X10836Y40D01*
X11811Y0D01*
X122047Y11811D02*
Y283465D01*
X11811Y295276D02*
X110236D01*
X0Y11811D02*
Y283465D01*
X11811Y0D02*
X110236D01*
M02*
