G04*
G04 #@! TF.GenerationSoftware,Altium Limited,Altium Designer,20.1.14 (287)*
G04*
G04 Layer_Color=32896*
%FSLAX25Y25*%
%MOIN*%
G70*
G04*
G04 #@! TF.SameCoordinates,864C0722-24F4-47D7-AB5F-EB3DBA867953*
G04*
G04*
G04 #@! TF.FilePolarity,Positive*
G04*
G01*
G75*
%ADD14C,0.00050*%
%ADD24C,0.00630*%
D14*
X110236Y0D02*
X111212Y40D01*
X112180Y161D01*
X113136Y361D01*
X114071Y640D01*
X114981Y995D01*
X115858Y1424D01*
X116696Y1923D01*
X117491Y2490D01*
X118236Y3121D01*
X118926Y3812D01*
X119557Y4557D01*
X120124Y5351D01*
X120624Y6190D01*
X121052Y7067D01*
X121407Y7976D01*
X121686Y8912D01*
X121886Y9867D01*
X122007Y10836D01*
X122047Y11811D01*
Y283465D02*
X122007Y284440D01*
X121886Y285409D01*
X121686Y286364D01*
X121407Y287300D01*
X121052Y288209D01*
X120624Y289086D01*
X120124Y289925D01*
X119557Y290719D01*
X118926Y291464D01*
X118236Y292154D01*
X117491Y292785D01*
X116696Y293352D01*
X115858Y293852D01*
X114981Y294281D01*
X114071Y294636D01*
X113136Y294914D01*
X112180Y295114D01*
X111212Y295235D01*
X110236Y295276D01*
X11811D02*
X10836Y295235D01*
X9867Y295114D01*
X8912Y294914D01*
X7976Y294636D01*
X7067Y294281D01*
X6190Y293852D01*
X5351Y293352D01*
X4557Y292785D01*
X3812Y292154D01*
X3121Y291464D01*
X2490Y290719D01*
X1923Y289925D01*
X1424Y289086D01*
X995Y288209D01*
X640Y287300D01*
X361Y286364D01*
X161Y285409D01*
X40Y284440D01*
X0Y283465D01*
Y11811D02*
X40Y10836D01*
X161Y9867D01*
X361Y8912D01*
X640Y7976D01*
X995Y7067D01*
X1424Y6190D01*
X1923Y5351D01*
X2490Y4557D01*
X3121Y3812D01*
X3812Y3121D01*
X4557Y2490D01*
X5351Y1923D01*
X6190Y1424D01*
X7067Y995D01*
X7976Y640D01*
X8912Y361D01*
X9867Y161D01*
X10836Y40D01*
X11811Y0D01*
X122047Y11811D02*
Y283465D01*
X11811Y295276D02*
X110236D01*
X0Y11811D02*
Y283465D01*
X11811Y0D02*
X110236D01*
D24*
X81624Y281099D02*
X82149Y280574D01*
Y279525D01*
X81624Y279000D01*
X79525D01*
X79000Y279525D01*
Y280574D01*
X79525Y281099D01*
X81624Y284248D02*
X82149Y283723D01*
Y282673D01*
X81624Y282149D01*
X81099D01*
X80574Y282673D01*
Y283723D01*
X80050Y284248D01*
X79525D01*
X79000Y283723D01*
Y282673D01*
X79525Y282149D01*
X78475Y285297D02*
Y287396D01*
X82149Y290545D02*
Y288446D01*
X80574D01*
X81099Y289495D01*
Y290020D01*
X80574Y290545D01*
X79525D01*
X79000Y290020D01*
Y288970D01*
X79525Y288446D01*
X82624Y247099D02*
X83149Y246574D01*
Y245525D01*
X82624Y245000D01*
X80525D01*
X80000Y245525D01*
Y246574D01*
X80525Y247099D01*
X82624Y250248D02*
X83149Y249723D01*
Y248673D01*
X82624Y248149D01*
X82099D01*
X81574Y248673D01*
Y249723D01*
X81050Y250248D01*
X80525D01*
X80000Y249723D01*
Y248673D01*
X80525Y248149D01*
X79475Y251297D02*
Y253396D01*
X80000Y256020D02*
X83149D01*
X81574Y254446D01*
Y256545D01*
X69624Y281099D02*
X70149Y280574D01*
Y279525D01*
X69624Y279000D01*
X67525D01*
X67000Y279525D01*
Y280574D01*
X67525Y281099D01*
X69624Y284248D02*
X70149Y283723D01*
Y282673D01*
X69624Y282149D01*
X69099D01*
X68574Y282673D01*
Y283723D01*
X68050Y284248D01*
X67525D01*
X67000Y283723D01*
Y282673D01*
X67525Y282149D01*
X66475Y285297D02*
Y287396D01*
X69624Y288446D02*
X70149Y288970D01*
Y290020D01*
X69624Y290545D01*
X69099D01*
X68574Y290020D01*
Y289495D01*
Y290020D01*
X68050Y290545D01*
X67525D01*
X67000Y290020D01*
Y288970D01*
X67525Y288446D01*
X72624Y247099D02*
X73149Y246574D01*
Y245525D01*
X72624Y245000D01*
X70525D01*
X70000Y245525D01*
Y246574D01*
X70525Y247099D01*
X72624Y250248D02*
X73149Y249723D01*
Y248673D01*
X72624Y248149D01*
X72099D01*
X71574Y248673D01*
Y249723D01*
X71049Y250248D01*
X70525D01*
X70000Y249723D01*
Y248673D01*
X70525Y248149D01*
X69475Y251297D02*
Y253396D01*
X70000Y256545D02*
Y254446D01*
X72099Y256545D01*
X72624D01*
X73149Y256020D01*
Y254971D01*
X72624Y254446D01*
X61624Y281099D02*
X62149Y280574D01*
Y279525D01*
X61624Y279000D01*
X59525D01*
X59000Y279525D01*
Y280574D01*
X59525Y281099D01*
X61624Y284248D02*
X62149Y283723D01*
Y282673D01*
X61624Y282149D01*
X61099D01*
X60574Y282673D01*
Y283723D01*
X60049Y284248D01*
X59525D01*
X59000Y283723D01*
Y282673D01*
X59525Y282149D01*
X58475Y285297D02*
Y287396D01*
X59000Y288446D02*
Y289495D01*
Y288970D01*
X62149D01*
X61624Y288446D01*
X60000Y245000D02*
X63149D01*
X62099Y246049D01*
X63149Y247099D01*
X60000D01*
X63149Y248149D02*
Y249198D01*
Y248673D01*
X60000D01*
Y248149D01*
Y249198D01*
X62624Y252871D02*
X63149Y252347D01*
Y251297D01*
X62624Y250772D01*
X62099D01*
X61574Y251297D01*
Y252347D01*
X61049Y252871D01*
X60525D01*
X60000Y252347D01*
Y251297D01*
X60525Y250772D01*
X63149Y255495D02*
Y254446D01*
X62624Y253921D01*
X60525D01*
X60000Y254446D01*
Y255495D01*
X60525Y256020D01*
X62624D01*
X63149Y255495D01*
X49000Y279000D02*
X52149D01*
X51099Y280049D01*
X52149Y281099D01*
X49000D01*
X52149Y283723D02*
Y282673D01*
X51624Y282149D01*
X49525D01*
X49000Y282673D01*
Y283723D01*
X49525Y284248D01*
X51624D01*
X52149Y283723D01*
X51624Y287396D02*
X52149Y286872D01*
Y285822D01*
X51624Y285297D01*
X51099D01*
X50574Y285822D01*
Y286872D01*
X50050Y287396D01*
X49525D01*
X49000Y286872D01*
Y285822D01*
X49525Y285297D01*
X52149Y288446D02*
Y289495D01*
Y288970D01*
X49000D01*
Y288446D01*
Y289495D01*
X51624Y250099D02*
X52149Y249574D01*
Y248525D01*
X51624Y248000D01*
X51099D01*
X50574Y248525D01*
Y249574D01*
X50050Y250099D01*
X49525D01*
X49000Y249574D01*
Y248525D01*
X49525Y248000D01*
X51624Y253248D02*
X52149Y252723D01*
Y251673D01*
X51624Y251149D01*
X49525D01*
X49000Y251673D01*
Y252723D01*
X49525Y253248D01*
X52149Y254297D02*
X49000D01*
X50050D01*
X52149Y256396D01*
X50574Y254822D01*
X49000Y256396D01*
X41624Y282099D02*
X42149Y281574D01*
Y280525D01*
X41624Y280000D01*
X39525D01*
X39000Y280525D01*
Y281574D01*
X39525Y282099D01*
X40574D01*
Y281049D01*
X39000Y283149D02*
X42149D01*
X39000Y285248D01*
X42149D01*
Y286297D02*
X39000D01*
Y287872D01*
X39525Y288396D01*
X41624D01*
X42149Y287872D01*
Y286297D01*
X41624Y247000D02*
X42149Y247525D01*
Y248574D01*
X41624Y249099D01*
X41099D01*
X40574Y248574D01*
Y248049D01*
Y248574D01*
X40049Y249099D01*
X39525D01*
X39000Y248574D01*
Y247525D01*
X39525Y247000D01*
X42149Y250149D02*
X40049D01*
X39000Y251198D01*
X40049Y252248D01*
X42149D01*
X41624Y253297D02*
X42149Y253822D01*
Y254872D01*
X41624Y255396D01*
X41099D01*
X40574Y254872D01*
Y254347D01*
Y254872D01*
X40049Y255396D01*
X39525D01*
X39000Y254872D01*
Y253822D01*
X39525Y253297D01*
M02*
