G04*
G04 #@! TF.GenerationSoftware,Altium Limited,Altium Designer,20.1.14 (287)*
G04*
G04 Layer_Physical_Order=2*
G04 Layer_Color=16711680*
%FSLAX25Y25*%
%MOIN*%
G70*
G04*
G04 #@! TF.SameCoordinates,864C0722-24F4-47D7-AB5F-EB3DBA867953*
G04*
G04*
G04 #@! TF.FilePolarity,Positive*
G04*
G01*
G75*
%ADD13C,0.01000*%
%ADD14C,0.00050*%
%ADD20R,0.06142X0.06142*%
%ADD21C,0.06142*%
%ADD22C,0.06000*%
%ADD23C,0.06378*%
G36*
X110236Y295276D02*
X111010D01*
X112545Y295074D01*
X114041Y294673D01*
X115471Y294080D01*
X116812Y293306D01*
X118041Y292364D01*
X119135Y291269D01*
X120078Y290040D01*
X120852Y288700D01*
X121444Y287269D01*
X121845Y285774D01*
X122047Y284239D01*
Y283465D01*
X122047Y283465D01*
X122047Y283465D01*
Y11811D01*
X122047Y11811D01*
X122047Y11811D01*
Y11037D01*
X121845Y9502D01*
X121444Y8006D01*
X120852Y6576D01*
X120078Y5235D01*
X119135Y4007D01*
X118041Y2912D01*
X116812Y1969D01*
X115471Y1195D01*
X114041Y603D01*
X112545Y202D01*
X111010Y0D01*
X11037D01*
X9502Y202D01*
X8006Y603D01*
X6576Y1195D01*
X5235Y1969D01*
X4007Y2912D01*
X2912Y4007D01*
X1969Y5235D01*
X1195Y6576D01*
X603Y8006D01*
X202Y9502D01*
X0Y11037D01*
Y11811D01*
Y283465D01*
Y284239D01*
X202Y285774D01*
X603Y287269D01*
X1195Y288700D01*
X1969Y290040D01*
X2912Y291269D01*
X4007Y292364D01*
X5235Y293306D01*
X6576Y294080D01*
X8006Y294673D01*
X9502Y295074D01*
X11037Y295276D01*
X11811D01*
X11811Y295276D01*
X11811Y295276D01*
X110236D01*
X110236Y295276D01*
D02*
G37*
%LPC*%
G36*
X56500Y279029D02*
X35000D01*
X34415Y278913D01*
X33919Y278581D01*
X24919Y269581D01*
X24587Y269085D01*
X24471Y268500D01*
Y159886D01*
X24587Y159300D01*
X24919Y158804D01*
X26432Y157291D01*
X26240Y156829D01*
X23300D01*
X22715Y156713D01*
X22219Y156381D01*
X13586Y147749D01*
X13063Y147966D01*
X12000Y148106D01*
X10937Y147966D01*
X9947Y147556D01*
X9578Y147273D01*
X9129Y147494D01*
Y150506D01*
X9578Y150727D01*
X9947Y150444D01*
X10937Y150034D01*
X12000Y149894D01*
X13063Y150034D01*
X14053Y150444D01*
X14903Y151097D01*
X15556Y151947D01*
X15966Y152937D01*
X16106Y154000D01*
X15966Y155063D01*
X15556Y156053D01*
X14903Y156903D01*
X14053Y157556D01*
X13063Y157966D01*
X12000Y158106D01*
X10937Y157966D01*
X9947Y157556D01*
X9578Y157273D01*
X9129Y157494D01*
Y160506D01*
X9578Y160727D01*
X9947Y160444D01*
X10937Y160034D01*
X12000Y159894D01*
X13063Y160034D01*
X14053Y160444D01*
X14903Y161097D01*
X15556Y161947D01*
X15966Y162937D01*
X16106Y164000D01*
X15966Y165063D01*
X15556Y166053D01*
X14903Y166903D01*
X14053Y167556D01*
X13063Y167966D01*
X12000Y168106D01*
X10937Y167966D01*
X9947Y167556D01*
X9578Y167273D01*
X9129Y167494D01*
Y170506D01*
X9578Y170727D01*
X9947Y170444D01*
X10937Y170034D01*
X12000Y169894D01*
X13063Y170034D01*
X14053Y170444D01*
X14903Y171097D01*
X15556Y171947D01*
X15966Y172937D01*
X16106Y174000D01*
X15966Y175063D01*
X15556Y176053D01*
X14903Y176903D01*
X14053Y177556D01*
X13063Y177966D01*
X12000Y178106D01*
X10937Y177966D01*
X9947Y177556D01*
X9578Y177273D01*
X9129Y177494D01*
Y180506D01*
X9578Y180727D01*
X9947Y180444D01*
X10937Y180034D01*
X12000Y179894D01*
X13063Y180034D01*
X14053Y180444D01*
X14903Y181097D01*
X15556Y181947D01*
X15966Y182937D01*
X16106Y184000D01*
X15966Y185063D01*
X15556Y186053D01*
X14903Y186903D01*
X14053Y187556D01*
X13063Y187966D01*
X12000Y188106D01*
X10937Y187966D01*
X9947Y187556D01*
X9578Y187273D01*
X9129Y187494D01*
Y190506D01*
X9578Y190727D01*
X9947Y190444D01*
X10937Y190034D01*
X12000Y189894D01*
X13063Y190034D01*
X14053Y190444D01*
X14903Y191097D01*
X15556Y191947D01*
X15966Y192937D01*
X16106Y194000D01*
X15966Y195063D01*
X15556Y196053D01*
X14903Y196903D01*
X14053Y197556D01*
X13063Y197966D01*
X12000Y198106D01*
X10937Y197966D01*
X9947Y197556D01*
X9578Y197273D01*
X9129Y197494D01*
Y198967D01*
X10092Y199929D01*
X16071D01*
Y208071D01*
X7929D01*
Y202092D01*
X6519Y200681D01*
X6187Y200185D01*
X6071Y199600D01*
Y60400D01*
X6187Y59815D01*
X6519Y59319D01*
X8519Y57319D01*
X8695Y57201D01*
X8828Y56553D01*
X8444Y56053D01*
X8034Y55063D01*
X7894Y54000D01*
X8034Y52937D01*
X8444Y51947D01*
X9097Y51097D01*
X9947Y50444D01*
X10937Y50034D01*
X12000Y49894D01*
X13063Y50034D01*
X14053Y50444D01*
X14903Y51097D01*
X15556Y51947D01*
X15966Y52937D01*
X16106Y54000D01*
X15966Y55063D01*
X15556Y56053D01*
X15273Y56422D01*
X15494Y56871D01*
X19366D01*
X25471Y50766D01*
Y36000D01*
X25587Y35415D01*
X25919Y34919D01*
X28305Y32532D01*
X28103Y32044D01*
X27966Y31000D01*
X28103Y29956D01*
X28506Y28983D01*
X29147Y28147D01*
X29983Y27506D01*
X30956Y27103D01*
X32000Y26965D01*
X33044Y27103D01*
X34017Y27506D01*
X34853Y28147D01*
X35494Y28983D01*
X35897Y29956D01*
X36035Y31000D01*
X35897Y32044D01*
X35494Y33017D01*
X34853Y33853D01*
X34017Y34494D01*
X33044Y34897D01*
X32000Y35034D01*
X30956Y34897D01*
X30468Y34695D01*
X28529Y36634D01*
Y38175D01*
X29003Y38335D01*
X29147Y38147D01*
X29983Y37506D01*
X30956Y37103D01*
X32000Y36966D01*
X33044Y37103D01*
X34017Y37506D01*
X34853Y38147D01*
X35494Y38983D01*
X35897Y39956D01*
X36035Y41000D01*
X35897Y42044D01*
X35494Y43017D01*
X34853Y43853D01*
X34017Y44494D01*
X33044Y44897D01*
X32000Y45035D01*
X30956Y44897D01*
X29983Y44494D01*
X29147Y43853D01*
X29003Y43665D01*
X28529Y43826D01*
Y48175D01*
X29003Y48335D01*
X29147Y48147D01*
X29983Y47506D01*
X30956Y47103D01*
X32000Y46966D01*
X33044Y47103D01*
X34017Y47506D01*
X34853Y48147D01*
X35494Y48983D01*
X35897Y49956D01*
X36035Y51000D01*
X35897Y52044D01*
X35494Y53017D01*
X34853Y53853D01*
X34017Y54494D01*
X33591Y54671D01*
X33690Y55171D01*
X45667D01*
X88305Y12532D01*
X88103Y12044D01*
X88031Y11500D01*
X91500D01*
Y14969D01*
X90956Y14897D01*
X90468Y14695D01*
X47381Y57781D01*
X46885Y58113D01*
X46300Y58229D01*
X35481D01*
X35260Y58678D01*
X35494Y58983D01*
X35897Y59956D01*
X36035Y61000D01*
X35897Y62044D01*
X35695Y62532D01*
X77634Y104471D01*
X89174D01*
X89335Y103997D01*
X89147Y103853D01*
X88506Y103017D01*
X88103Y102044D01*
X87966Y101000D01*
X88103Y99956D01*
X88506Y98983D01*
X89147Y98147D01*
X89983Y97506D01*
X90956Y97103D01*
X92000Y96965D01*
X93044Y97103D01*
X94017Y97506D01*
X94853Y98147D01*
X95494Y98983D01*
X95897Y99956D01*
X96034Y101000D01*
X95897Y102044D01*
X95494Y103017D01*
X94853Y103853D01*
X94665Y103997D01*
X94826Y104471D01*
X107577D01*
X107906Y104095D01*
X107894Y104000D01*
X108034Y102937D01*
X108444Y101947D01*
X109097Y101097D01*
X109947Y100444D01*
X110937Y100034D01*
X112000Y99894D01*
X113063Y100034D01*
X114053Y100444D01*
X114903Y101097D01*
X115556Y101947D01*
X115966Y102937D01*
X116106Y104000D01*
X115966Y105063D01*
X115556Y106053D01*
X114903Y106903D01*
X114053Y107556D01*
X113063Y107966D01*
X112000Y108106D01*
X110937Y107966D01*
X109947Y107556D01*
X109913Y107529D01*
X94826D01*
X94665Y108003D01*
X94853Y108147D01*
X95494Y108983D01*
X95897Y109956D01*
X96034Y111000D01*
X95897Y112044D01*
X95695Y112532D01*
X100634Y117471D01*
X109058D01*
X109219Y116997D01*
X109097Y116903D01*
X108444Y116053D01*
X108034Y115063D01*
X107894Y114000D01*
X108034Y112937D01*
X108444Y111947D01*
X109097Y111097D01*
X109947Y110444D01*
X110937Y110034D01*
X112000Y109894D01*
X113063Y110034D01*
X114053Y110444D01*
X114903Y111097D01*
X115556Y111947D01*
X115966Y112937D01*
X116106Y114000D01*
X115966Y115063D01*
X115556Y116053D01*
X114903Y116903D01*
X114781Y116997D01*
X114942Y117471D01*
X116000D01*
X116585Y117587D01*
X117081Y117919D01*
X119081Y119919D01*
X119413Y120415D01*
X119529Y121000D01*
Y126000D01*
X119413Y126585D01*
X119081Y127082D01*
X116682Y129481D01*
X116185Y129813D01*
X115600Y129929D01*
X114117D01*
X114017Y130429D01*
X114053Y130444D01*
X114903Y131097D01*
X115556Y131947D01*
X115966Y132937D01*
X116106Y134000D01*
X115966Y135063D01*
X115556Y136053D01*
X114903Y136903D01*
X114053Y137556D01*
X113063Y137966D01*
X112000Y138106D01*
X110937Y137966D01*
X110414Y137749D01*
X106081Y142081D01*
X105585Y142413D01*
X105000Y142529D01*
X95696D01*
X95494Y143017D01*
X94853Y143853D01*
X94017Y144494D01*
X93044Y144897D01*
X92000Y145035D01*
X90956Y144897D01*
X90468Y144695D01*
X62529Y172634D01*
Y259099D01*
X63113Y259341D01*
X63988Y260012D01*
X64659Y260887D01*
X65081Y261906D01*
X65225Y263000D01*
X65081Y264094D01*
X64659Y265113D01*
X64345Y265522D01*
X64566Y265971D01*
X67434D01*
X67655Y265522D01*
X67341Y265113D01*
X66919Y264094D01*
X66775Y263000D01*
X66919Y261906D01*
X67341Y260887D01*
X68012Y260012D01*
X68887Y259341D01*
X69906Y258919D01*
X71000Y258775D01*
X72094Y258919D01*
X73113Y259341D01*
X73988Y260012D01*
X74659Y260887D01*
X75081Y261906D01*
X75225Y263000D01*
X75081Y264094D01*
X74659Y265113D01*
X74345Y265522D01*
X74566Y265971D01*
X77434D01*
X77655Y265522D01*
X77341Y265113D01*
X76919Y264094D01*
X76775Y263000D01*
X76919Y261906D01*
X77341Y260887D01*
X78012Y260012D01*
X78887Y259341D01*
X79906Y258919D01*
X81000Y258775D01*
X82094Y258919D01*
X83113Y259341D01*
X83988Y260012D01*
X84659Y260887D01*
X85081Y261906D01*
X85225Y263000D01*
X85081Y264094D01*
X84659Y265113D01*
X84345Y265522D01*
X84566Y265971D01*
X85066D01*
X94771Y256266D01*
Y244481D01*
X94322Y244260D01*
X94017Y244494D01*
X93044Y244897D01*
X92000Y245035D01*
X90956Y244897D01*
X89983Y244494D01*
X89147Y243853D01*
X88506Y243017D01*
X88103Y242044D01*
X87966Y241000D01*
X88103Y239956D01*
X88506Y238983D01*
X89147Y238147D01*
X89983Y237506D01*
X90956Y237103D01*
X92000Y236965D01*
X93044Y237103D01*
X94017Y237506D01*
X94322Y237740D01*
X94771Y237519D01*
Y234481D01*
X94322Y234260D01*
X94017Y234494D01*
X93044Y234897D01*
X92000Y235034D01*
X90956Y234897D01*
X89983Y234494D01*
X89147Y233853D01*
X88506Y233017D01*
X88103Y232044D01*
X87966Y231000D01*
X88103Y229956D01*
X88506Y228983D01*
X89147Y228147D01*
X89983Y227506D01*
X90956Y227103D01*
X92000Y226965D01*
X93044Y227103D01*
X94017Y227506D01*
X94322Y227740D01*
X94771Y227519D01*
Y224481D01*
X94322Y224260D01*
X94017Y224494D01*
X93044Y224897D01*
X92000Y225034D01*
X90956Y224897D01*
X89983Y224494D01*
X89147Y223853D01*
X88506Y223017D01*
X88103Y222044D01*
X87966Y221000D01*
X88103Y219956D01*
X88506Y218983D01*
X89147Y218147D01*
X89983Y217506D01*
X90956Y217103D01*
X92000Y216966D01*
X93044Y217103D01*
X94017Y217506D01*
X94322Y217740D01*
X94771Y217519D01*
Y214481D01*
X94322Y214260D01*
X94017Y214494D01*
X93044Y214897D01*
X92000Y215035D01*
X90956Y214897D01*
X89983Y214494D01*
X89147Y213853D01*
X88506Y213017D01*
X88103Y212044D01*
X87966Y211000D01*
X88103Y209956D01*
X88506Y208983D01*
X89147Y208147D01*
X89983Y207506D01*
X90956Y207103D01*
X92000Y206965D01*
X93044Y207103D01*
X94017Y207506D01*
X94322Y207740D01*
X94771Y207519D01*
Y204481D01*
X94322Y204260D01*
X94017Y204494D01*
X93044Y204897D01*
X92000Y205034D01*
X90956Y204897D01*
X89983Y204494D01*
X89147Y203853D01*
X88506Y203017D01*
X88103Y202044D01*
X87966Y201000D01*
X88103Y199956D01*
X88506Y198983D01*
X89147Y198147D01*
X89983Y197506D01*
X90956Y197103D01*
X92000Y196966D01*
X93044Y197103D01*
X94017Y197506D01*
X94322Y197740D01*
X94771Y197519D01*
Y194481D01*
X94322Y194260D01*
X94017Y194494D01*
X93044Y194897D01*
X92000Y195035D01*
X90956Y194897D01*
X89983Y194494D01*
X89147Y193853D01*
X88506Y193017D01*
X88103Y192044D01*
X87966Y191000D01*
X88103Y189956D01*
X88506Y188983D01*
X89147Y188147D01*
X89983Y187506D01*
X90956Y187103D01*
X92000Y186966D01*
X93044Y187103D01*
X94017Y187506D01*
X94322Y187740D01*
X94771Y187519D01*
Y184481D01*
X94322Y184260D01*
X94017Y184494D01*
X93044Y184897D01*
X92000Y185035D01*
X90956Y184897D01*
X89983Y184494D01*
X89147Y183853D01*
X88506Y183017D01*
X88103Y182044D01*
X87966Y181000D01*
X88103Y179956D01*
X88506Y178983D01*
X89147Y178147D01*
X89983Y177506D01*
X90956Y177103D01*
X92000Y176965D01*
X93044Y177103D01*
X94017Y177506D01*
X94322Y177740D01*
X94771Y177519D01*
Y174481D01*
X94322Y174260D01*
X94017Y174494D01*
X93044Y174897D01*
X92000Y175034D01*
X90956Y174897D01*
X89983Y174494D01*
X89147Y173853D01*
X88506Y173017D01*
X88103Y172044D01*
X87966Y171000D01*
X88103Y169956D01*
X88506Y168983D01*
X89147Y168147D01*
X89983Y167506D01*
X90956Y167103D01*
X92000Y166965D01*
X93044Y167103D01*
X94017Y167506D01*
X94322Y167740D01*
X94771Y167519D01*
Y164481D01*
X94322Y164260D01*
X94017Y164494D01*
X93044Y164897D01*
X92000Y165034D01*
X90956Y164897D01*
X89983Y164494D01*
X89147Y163853D01*
X88506Y163017D01*
X88103Y162044D01*
X87966Y161000D01*
X88103Y159956D01*
X88506Y158983D01*
X89147Y158147D01*
X89983Y157506D01*
X90956Y157103D01*
X92000Y156965D01*
X93044Y157103D01*
X94017Y157506D01*
X94322Y157740D01*
X94771Y157519D01*
Y155933D01*
X93532Y154695D01*
X93044Y154897D01*
X92000Y155034D01*
X90956Y154897D01*
X89983Y154494D01*
X89147Y153853D01*
X88506Y153017D01*
X88103Y152044D01*
X87966Y151000D01*
X88103Y149956D01*
X88506Y148983D01*
X89147Y148147D01*
X89983Y147506D01*
X90956Y147103D01*
X92000Y146966D01*
X93044Y147103D01*
X94017Y147506D01*
X94853Y148147D01*
X95494Y148983D01*
X95897Y149956D01*
X96034Y151000D01*
X95897Y152044D01*
X95695Y152532D01*
X97381Y154219D01*
X97713Y154715D01*
X97829Y155300D01*
Y256900D01*
X97713Y257485D01*
X97381Y257981D01*
X86781Y268581D01*
X86285Y268913D01*
X85700Y269029D01*
X83528D01*
X83358Y269529D01*
X83988Y270012D01*
X84659Y270887D01*
X85081Y271906D01*
X85225Y273000D01*
X85081Y274094D01*
X84659Y275113D01*
X83988Y275988D01*
X83113Y276659D01*
X82094Y277081D01*
X81000Y277225D01*
X79906Y277081D01*
X78887Y276659D01*
X78012Y275988D01*
X77341Y275113D01*
X76919Y274094D01*
X76775Y273000D01*
X76919Y271906D01*
X77341Y270887D01*
X78012Y270012D01*
X78642Y269529D01*
X78472Y269029D01*
X73528D01*
X73358Y269529D01*
X73988Y270012D01*
X74659Y270887D01*
X75081Y271906D01*
X75225Y273000D01*
X75081Y274094D01*
X74659Y275113D01*
X73988Y275988D01*
X73113Y276659D01*
X72094Y277081D01*
X71000Y277225D01*
X69906Y277081D01*
X68887Y276659D01*
X68012Y275988D01*
X67341Y275113D01*
X66919Y274094D01*
X66775Y273000D01*
X66919Y271906D01*
X67341Y270887D01*
X68012Y270012D01*
X68642Y269529D01*
X68472Y269029D01*
X63528D01*
X63358Y269529D01*
X63988Y270012D01*
X64659Y270887D01*
X65081Y271906D01*
X65225Y273000D01*
X65081Y274094D01*
X64659Y275113D01*
X63988Y275988D01*
X63113Y276659D01*
X62094Y277081D01*
X61000Y277225D01*
X59906Y277081D01*
X59323Y276840D01*
X57581Y278581D01*
X57085Y278913D01*
X56500Y279029D01*
D02*
G37*
G36*
X112000Y208106D02*
X110937Y207966D01*
X109947Y207556D01*
X109097Y206903D01*
X108444Y206053D01*
X108034Y205063D01*
X107894Y204000D01*
X108034Y202937D01*
X108444Y201947D01*
X109097Y201097D01*
X109947Y200444D01*
X110937Y200034D01*
X112000Y199894D01*
X113063Y200034D01*
X114053Y200444D01*
X114903Y201097D01*
X115556Y201947D01*
X115966Y202937D01*
X116106Y204000D01*
X115966Y205063D01*
X115556Y206053D01*
X114903Y206903D01*
X114053Y207556D01*
X113063Y207966D01*
X112000Y208106D01*
D02*
G37*
G36*
Y198106D02*
X110937Y197966D01*
X109947Y197556D01*
X109097Y196903D01*
X108444Y196053D01*
X108034Y195063D01*
X107894Y194000D01*
X108034Y192937D01*
X108444Y191947D01*
X109097Y191097D01*
X109947Y190444D01*
X110937Y190034D01*
X112000Y189894D01*
X113063Y190034D01*
X114053Y190444D01*
X114903Y191097D01*
X115556Y191947D01*
X115966Y192937D01*
X116106Y194000D01*
X115966Y195063D01*
X115556Y196053D01*
X114903Y196903D01*
X114053Y197556D01*
X113063Y197966D01*
X112000Y198106D01*
D02*
G37*
G36*
Y188106D02*
X110937Y187966D01*
X109947Y187556D01*
X109097Y186903D01*
X108444Y186053D01*
X108034Y185063D01*
X107894Y184000D01*
X108034Y182937D01*
X108444Y181947D01*
X109097Y181097D01*
X109947Y180444D01*
X110937Y180034D01*
X112000Y179894D01*
X113063Y180034D01*
X114053Y180444D01*
X114903Y181097D01*
X115556Y181947D01*
X115966Y182937D01*
X116106Y184000D01*
X115966Y185063D01*
X115556Y186053D01*
X114903Y186903D01*
X114053Y187556D01*
X113063Y187966D01*
X112000Y188106D01*
D02*
G37*
G36*
Y178106D02*
X110937Y177966D01*
X109947Y177556D01*
X109097Y176903D01*
X108444Y176053D01*
X108034Y175063D01*
X107894Y174000D01*
X108034Y172937D01*
X108444Y171947D01*
X109097Y171097D01*
X109947Y170444D01*
X110937Y170034D01*
X112000Y169894D01*
X113063Y170034D01*
X114053Y170444D01*
X114903Y171097D01*
X115556Y171947D01*
X115966Y172937D01*
X116106Y174000D01*
X115966Y175063D01*
X115556Y176053D01*
X114903Y176903D01*
X114053Y177556D01*
X113063Y177966D01*
X112000Y178106D01*
D02*
G37*
G36*
Y168106D02*
X110937Y167966D01*
X109947Y167556D01*
X109097Y166903D01*
X108444Y166053D01*
X108034Y165063D01*
X107894Y164000D01*
X108034Y162937D01*
X108444Y161947D01*
X109097Y161097D01*
X109947Y160444D01*
X110937Y160034D01*
X112000Y159894D01*
X113063Y160034D01*
X114053Y160444D01*
X114903Y161097D01*
X115556Y161947D01*
X115966Y162937D01*
X116106Y164000D01*
X115966Y165063D01*
X115556Y166053D01*
X114903Y166903D01*
X114053Y167556D01*
X113063Y167966D01*
X112000Y168106D01*
D02*
G37*
G36*
Y158106D02*
X110937Y157966D01*
X109947Y157556D01*
X109097Y156903D01*
X108444Y156053D01*
X108034Y155063D01*
X107894Y154000D01*
X108034Y152937D01*
X108444Y151947D01*
X109097Y151097D01*
X109947Y150444D01*
X110937Y150034D01*
X112000Y149894D01*
X113063Y150034D01*
X114053Y150444D01*
X114903Y151097D01*
X115556Y151947D01*
X115966Y152937D01*
X116106Y154000D01*
X115966Y155063D01*
X115556Y156053D01*
X114903Y156903D01*
X114053Y157556D01*
X113063Y157966D01*
X112000Y158106D01*
D02*
G37*
G36*
Y148106D02*
X110937Y147966D01*
X109947Y147556D01*
X109097Y146903D01*
X108444Y146053D01*
X108034Y145063D01*
X107894Y144000D01*
X108034Y142937D01*
X108444Y141947D01*
X109097Y141097D01*
X109947Y140444D01*
X110937Y140034D01*
X112000Y139894D01*
X113063Y140034D01*
X114053Y140444D01*
X114903Y141097D01*
X115556Y141947D01*
X115966Y142937D01*
X116106Y144000D01*
X115966Y145063D01*
X115556Y146053D01*
X114903Y146903D01*
X114053Y147556D01*
X113063Y147966D01*
X112000Y148106D01*
D02*
G37*
G36*
Y98106D02*
X110937Y97966D01*
X109947Y97556D01*
X109097Y96903D01*
X108444Y96053D01*
X108034Y95063D01*
X107894Y94000D01*
X108034Y92937D01*
X108444Y91947D01*
X109097Y91097D01*
X109947Y90444D01*
X110937Y90034D01*
X112000Y89894D01*
X113063Y90034D01*
X114053Y90444D01*
X114903Y91097D01*
X115556Y91947D01*
X115966Y92937D01*
X116106Y94000D01*
X115966Y95063D01*
X115556Y96053D01*
X114903Y96903D01*
X114053Y97556D01*
X113063Y97966D01*
X112000Y98106D01*
D02*
G37*
G36*
X92000Y95034D02*
X90956Y94897D01*
X89983Y94494D01*
X89147Y93853D01*
X88506Y93017D01*
X88103Y92044D01*
X87966Y91000D01*
X88103Y89956D01*
X88506Y88983D01*
X89147Y88147D01*
X89983Y87506D01*
X90956Y87103D01*
X92000Y86966D01*
X93044Y87103D01*
X94017Y87506D01*
X94853Y88147D01*
X95494Y88983D01*
X95897Y89956D01*
X96034Y91000D01*
X95897Y92044D01*
X95494Y93017D01*
X94853Y93853D01*
X94017Y94494D01*
X93044Y94897D01*
X92000Y95034D01*
D02*
G37*
G36*
X112000Y88106D02*
X110937Y87966D01*
X109947Y87556D01*
X109097Y86903D01*
X108444Y86053D01*
X108034Y85063D01*
X107894Y84000D01*
X108034Y82937D01*
X108444Y81947D01*
X109097Y81097D01*
X109947Y80444D01*
X110937Y80034D01*
X112000Y79894D01*
X113063Y80034D01*
X114053Y80444D01*
X114903Y81097D01*
X115556Y81947D01*
X115966Y82937D01*
X116106Y84000D01*
X115966Y85063D01*
X115556Y86053D01*
X114903Y86903D01*
X114053Y87556D01*
X113063Y87966D01*
X112000Y88106D01*
D02*
G37*
G36*
X92000Y85035D02*
X90956Y84897D01*
X89983Y84494D01*
X89147Y83853D01*
X88506Y83017D01*
X88103Y82044D01*
X87966Y81000D01*
X88103Y79956D01*
X88506Y78983D01*
X89147Y78147D01*
X89983Y77506D01*
X90956Y77103D01*
X92000Y76965D01*
X93044Y77103D01*
X94017Y77506D01*
X94853Y78147D01*
X95494Y78983D01*
X95897Y79956D01*
X96034Y81000D01*
X95897Y82044D01*
X95494Y83017D01*
X94853Y83853D01*
X94017Y84494D01*
X93044Y84897D01*
X92000Y85035D01*
D02*
G37*
G36*
X112000Y78106D02*
X110937Y77966D01*
X109947Y77556D01*
X109097Y76903D01*
X108444Y76053D01*
X108034Y75063D01*
X107894Y74000D01*
X108034Y72937D01*
X108444Y71947D01*
X109097Y71097D01*
X109947Y70444D01*
X110937Y70034D01*
X112000Y69894D01*
X113063Y70034D01*
X114053Y70444D01*
X114903Y71097D01*
X115556Y71947D01*
X115966Y72937D01*
X116106Y74000D01*
X115966Y75063D01*
X115556Y76053D01*
X114903Y76903D01*
X114053Y77556D01*
X113063Y77966D01*
X112000Y78106D01*
D02*
G37*
G36*
X92000Y75034D02*
X90956Y74897D01*
X89983Y74494D01*
X89147Y73853D01*
X88506Y73017D01*
X88103Y72044D01*
X87966Y71000D01*
X88103Y69956D01*
X88506Y68983D01*
X89147Y68147D01*
X89983Y67506D01*
X90956Y67103D01*
X92000Y66966D01*
X93044Y67103D01*
X94017Y67506D01*
X94853Y68147D01*
X95494Y68983D01*
X95897Y69956D01*
X96034Y71000D01*
X95897Y72044D01*
X95494Y73017D01*
X94853Y73853D01*
X94017Y74494D01*
X93044Y74897D01*
X92000Y75034D01*
D02*
G37*
G36*
X112000Y68106D02*
X110937Y67966D01*
X109947Y67556D01*
X109097Y66903D01*
X108444Y66053D01*
X108034Y65063D01*
X107894Y64000D01*
X108034Y62937D01*
X108444Y61947D01*
X109097Y61097D01*
X109947Y60444D01*
X110937Y60034D01*
X112000Y59894D01*
X113063Y60034D01*
X114053Y60444D01*
X114903Y61097D01*
X115556Y61947D01*
X115966Y62937D01*
X116106Y64000D01*
X115966Y65063D01*
X115556Y66053D01*
X114903Y66903D01*
X114053Y67556D01*
X113063Y67966D01*
X112000Y68106D01*
D02*
G37*
G36*
X92000Y65035D02*
X90956Y64897D01*
X89983Y64494D01*
X89147Y63853D01*
X88506Y63017D01*
X88103Y62044D01*
X87966Y61000D01*
X88103Y59956D01*
X88506Y58983D01*
X89147Y58147D01*
X89983Y57506D01*
X90956Y57103D01*
X92000Y56966D01*
X93044Y57103D01*
X94017Y57506D01*
X94853Y58147D01*
X95494Y58983D01*
X95897Y59956D01*
X96034Y61000D01*
X95897Y62044D01*
X95494Y63017D01*
X94853Y63853D01*
X94017Y64494D01*
X93044Y64897D01*
X92000Y65035D01*
D02*
G37*
G36*
X112000Y58106D02*
X110937Y57966D01*
X109947Y57556D01*
X109097Y56903D01*
X108444Y56053D01*
X108034Y55063D01*
X107894Y54000D01*
X108034Y52937D01*
X108444Y51947D01*
X109097Y51097D01*
X109947Y50444D01*
X110937Y50034D01*
X112000Y49894D01*
X113063Y50034D01*
X114053Y50444D01*
X114903Y51097D01*
X115556Y51947D01*
X115966Y52937D01*
X116106Y54000D01*
X115966Y55063D01*
X115556Y56053D01*
X114903Y56903D01*
X114053Y57556D01*
X113063Y57966D01*
X112000Y58106D01*
D02*
G37*
G36*
X92000Y55035D02*
X90956Y54897D01*
X89983Y54494D01*
X89147Y53853D01*
X88506Y53017D01*
X88103Y52044D01*
X87966Y51000D01*
X88103Y49956D01*
X88506Y48983D01*
X89147Y48147D01*
X89983Y47506D01*
X90956Y47103D01*
X92000Y46966D01*
X93044Y47103D01*
X94017Y47506D01*
X94853Y48147D01*
X95494Y48983D01*
X95897Y49956D01*
X96034Y51000D01*
X95897Y52044D01*
X95494Y53017D01*
X94853Y53853D01*
X94017Y54494D01*
X93044Y54897D01*
X92000Y55035D01*
D02*
G37*
G36*
X112000Y48106D02*
X110937Y47966D01*
X109947Y47556D01*
X109097Y46903D01*
X108444Y46053D01*
X108034Y45063D01*
X107894Y44000D01*
X108034Y42937D01*
X108444Y41947D01*
X109097Y41097D01*
X109947Y40444D01*
X110937Y40034D01*
X112000Y39894D01*
X113063Y40034D01*
X114053Y40444D01*
X114903Y41097D01*
X115556Y41947D01*
X115966Y42937D01*
X116106Y44000D01*
X115966Y45063D01*
X115556Y46053D01*
X114903Y46903D01*
X114053Y47556D01*
X113063Y47966D01*
X112000Y48106D01*
D02*
G37*
G36*
X12000D02*
X10937Y47966D01*
X9947Y47556D01*
X9097Y46903D01*
X8444Y46053D01*
X8034Y45063D01*
X7894Y44000D01*
X8034Y42937D01*
X8444Y41947D01*
X9097Y41097D01*
X9947Y40444D01*
X10937Y40034D01*
X12000Y39894D01*
X13063Y40034D01*
X14053Y40444D01*
X14903Y41097D01*
X15556Y41947D01*
X15966Y42937D01*
X16106Y44000D01*
X15966Y45063D01*
X15556Y46053D01*
X14903Y46903D01*
X14053Y47556D01*
X13063Y47966D01*
X12000Y48106D01*
D02*
G37*
G36*
X92000Y45035D02*
X90956Y44897D01*
X89983Y44494D01*
X89147Y43853D01*
X88506Y43017D01*
X88103Y42044D01*
X87966Y41000D01*
X88103Y39956D01*
X88506Y38983D01*
X89147Y38147D01*
X89983Y37506D01*
X90956Y37103D01*
X92000Y36966D01*
X93044Y37103D01*
X94017Y37506D01*
X94853Y38147D01*
X95494Y38983D01*
X95897Y39956D01*
X96034Y41000D01*
X95897Y42044D01*
X95494Y43017D01*
X94853Y43853D01*
X94017Y44494D01*
X93044Y44897D01*
X92000Y45035D01*
D02*
G37*
G36*
X112000Y38106D02*
X110937Y37966D01*
X109947Y37556D01*
X109097Y36903D01*
X108444Y36053D01*
X108034Y35063D01*
X107894Y34000D01*
X108034Y32937D01*
X108444Y31947D01*
X109097Y31097D01*
X109947Y30444D01*
X110937Y30034D01*
X112000Y29894D01*
X113063Y30034D01*
X114053Y30444D01*
X114903Y31097D01*
X115556Y31947D01*
X115966Y32937D01*
X116106Y34000D01*
X115966Y35063D01*
X115556Y36053D01*
X114903Y36903D01*
X114053Y37556D01*
X113063Y37966D01*
X112000Y38106D01*
D02*
G37*
G36*
X12000D02*
X10937Y37966D01*
X9947Y37556D01*
X9097Y36903D01*
X8444Y36053D01*
X8034Y35063D01*
X7894Y34000D01*
X8034Y32937D01*
X8444Y31947D01*
X9097Y31097D01*
X9947Y30444D01*
X10937Y30034D01*
X12000Y29894D01*
X13063Y30034D01*
X14053Y30444D01*
X14903Y31097D01*
X15556Y31947D01*
X15966Y32937D01*
X16106Y34000D01*
X15966Y35063D01*
X15556Y36053D01*
X14903Y36903D01*
X14053Y37556D01*
X13063Y37966D01*
X12000Y38106D01*
D02*
G37*
G36*
X92000Y35034D02*
X90956Y34897D01*
X89983Y34494D01*
X89147Y33853D01*
X88506Y33017D01*
X88103Y32044D01*
X87966Y31000D01*
X88103Y29956D01*
X88506Y28983D01*
X89147Y28147D01*
X89983Y27506D01*
X90956Y27103D01*
X92000Y26965D01*
X93044Y27103D01*
X94017Y27506D01*
X94853Y28147D01*
X95494Y28983D01*
X95897Y29956D01*
X96034Y31000D01*
X95897Y32044D01*
X95494Y33017D01*
X94853Y33853D01*
X94017Y34494D01*
X93044Y34897D01*
X92000Y35034D01*
D02*
G37*
G36*
X112000Y28106D02*
X110937Y27966D01*
X109947Y27556D01*
X109097Y26903D01*
X108444Y26053D01*
X108034Y25063D01*
X107894Y24000D01*
X108034Y22937D01*
X108444Y21947D01*
X109097Y21097D01*
X109947Y20444D01*
X110937Y20034D01*
X112000Y19894D01*
X113063Y20034D01*
X114053Y20444D01*
X114903Y21097D01*
X115556Y21947D01*
X115966Y22937D01*
X116106Y24000D01*
X115966Y25063D01*
X115556Y26053D01*
X114903Y26903D01*
X114053Y27556D01*
X113063Y27966D01*
X112000Y28106D01*
D02*
G37*
G36*
X12000D02*
X10937Y27966D01*
X9947Y27556D01*
X9097Y26903D01*
X8444Y26053D01*
X8034Y25063D01*
X7894Y24000D01*
X8034Y22937D01*
X8444Y21947D01*
X9097Y21097D01*
X9947Y20444D01*
X10937Y20034D01*
X12000Y19894D01*
X13063Y20034D01*
X14053Y20444D01*
X14903Y21097D01*
X15556Y21947D01*
X15966Y22937D01*
X16106Y24000D01*
X15966Y25063D01*
X15556Y26053D01*
X14903Y26903D01*
X14053Y27556D01*
X13063Y27966D01*
X12000Y28106D01*
D02*
G37*
G36*
X92000Y25034D02*
X90956Y24897D01*
X89983Y24494D01*
X89147Y23853D01*
X88506Y23017D01*
X88103Y22044D01*
X87966Y21000D01*
X88103Y19956D01*
X88506Y18983D01*
X89147Y18147D01*
X89983Y17506D01*
X90956Y17103D01*
X92000Y16965D01*
X93044Y17103D01*
X94017Y17506D01*
X94853Y18147D01*
X95494Y18983D01*
X95897Y19956D01*
X96034Y21000D01*
X95897Y22044D01*
X95494Y23017D01*
X94853Y23853D01*
X94017Y24494D01*
X93044Y24897D01*
X92000Y25034D01*
D02*
G37*
G36*
X32000D02*
X30956Y24897D01*
X29983Y24494D01*
X29147Y23853D01*
X28506Y23017D01*
X28103Y22044D01*
X27966Y21000D01*
X28103Y19956D01*
X28506Y18983D01*
X29147Y18147D01*
X29983Y17506D01*
X30956Y17103D01*
X32000Y16965D01*
X33044Y17103D01*
X34017Y17506D01*
X34853Y18147D01*
X35494Y18983D01*
X35897Y19956D01*
X36035Y21000D01*
X35897Y22044D01*
X35494Y23017D01*
X34853Y23853D01*
X34017Y24494D01*
X33044Y24897D01*
X32000Y25034D01*
D02*
G37*
G36*
X92500Y14969D02*
Y11500D01*
X95969D01*
X95897Y12044D01*
X95494Y13017D01*
X94853Y13853D01*
X94017Y14494D01*
X93044Y14897D01*
X92500Y14969D01*
D02*
G37*
G36*
X95969Y10500D02*
X92500D01*
Y7031D01*
X93044Y7103D01*
X94017Y7506D01*
X94853Y8147D01*
X95494Y8983D01*
X95897Y9956D01*
X95969Y10500D01*
D02*
G37*
G36*
X91500D02*
X88031D01*
X88103Y9956D01*
X88506Y8983D01*
X89147Y8147D01*
X89983Y7506D01*
X90956Y7103D01*
X91500Y7031D01*
Y10500D01*
D02*
G37*
G36*
X32000Y15034D02*
X30956Y14897D01*
X29983Y14494D01*
X29147Y13853D01*
X28506Y13017D01*
X28103Y12044D01*
X27966Y11000D01*
X28103Y9956D01*
X28506Y8983D01*
X29147Y8147D01*
X29983Y7506D01*
X30956Y7103D01*
X32000Y6966D01*
X33044Y7103D01*
X34017Y7506D01*
X34853Y8147D01*
X35494Y8983D01*
X35897Y9956D01*
X36035Y11000D01*
X35897Y12044D01*
X35494Y13017D01*
X34853Y13853D01*
X34017Y14494D01*
X33044Y14897D01*
X32000Y15034D01*
D02*
G37*
%LPD*%
G36*
X47655Y275522D02*
X47341Y275113D01*
X46919Y274094D01*
X46775Y273000D01*
X46919Y271906D01*
X47341Y270887D01*
X48012Y270012D01*
X48642Y269529D01*
X48472Y269029D01*
X45500D01*
X44915Y268913D01*
X44419Y268581D01*
X42677Y266840D01*
X42094Y267081D01*
X41000Y267225D01*
X39906Y267081D01*
X38887Y266659D01*
X38012Y265988D01*
X37341Y265113D01*
X36919Y264094D01*
X36775Y263000D01*
X36919Y261906D01*
X37341Y260887D01*
X38012Y260012D01*
X38887Y259341D01*
X39906Y258919D01*
X41000Y258775D01*
X42094Y258919D01*
X43113Y259341D01*
X43988Y260012D01*
X44659Y260887D01*
X45081Y261906D01*
X45225Y263000D01*
X45081Y264094D01*
X44840Y264677D01*
X46134Y265971D01*
X47434D01*
X47655Y265522D01*
X47341Y265113D01*
X46919Y264094D01*
X46775Y263000D01*
X46919Y261906D01*
X47341Y260887D01*
X48012Y260012D01*
X48887Y259341D01*
X49907Y258919D01*
X51000Y258775D01*
X52094Y258919D01*
X53113Y259341D01*
X53988Y260012D01*
X54659Y260887D01*
X55081Y261906D01*
X55225Y263000D01*
X55081Y264094D01*
X54659Y265113D01*
X54345Y265522D01*
X54566Y265971D01*
X57434D01*
X57655Y265522D01*
X57341Y265113D01*
X56919Y264094D01*
X56775Y263000D01*
X56919Y261906D01*
X57341Y260887D01*
X58012Y260012D01*
X58887Y259341D01*
X59471Y259099D01*
Y172000D01*
X59587Y171415D01*
X59919Y170919D01*
X88305Y142532D01*
X88103Y142044D01*
X87966Y141000D01*
X88103Y139956D01*
X88506Y138983D01*
X89147Y138147D01*
X89983Y137506D01*
X90409Y137329D01*
X90310Y136829D01*
X72834D01*
X53281Y156381D01*
X52785Y156713D01*
X52200Y156829D01*
X33690D01*
X33591Y157329D01*
X34017Y157506D01*
X34853Y158147D01*
X35494Y158983D01*
X35897Y159956D01*
X36035Y161000D01*
X35897Y162044D01*
X35494Y163017D01*
X34853Y163853D01*
X34017Y164494D01*
X33044Y164897D01*
X32000Y165034D01*
X30956Y164897D01*
X29983Y164494D01*
X29147Y163853D01*
X28506Y163017D01*
X28103Y162044D01*
X28029Y161486D01*
X27529Y161518D01*
Y170482D01*
X28029Y170515D01*
X28103Y169956D01*
X28506Y168983D01*
X29147Y168147D01*
X29983Y167506D01*
X30956Y167103D01*
X32000Y166965D01*
X33044Y167103D01*
X34017Y167506D01*
X34853Y168147D01*
X35494Y168983D01*
X35897Y169956D01*
X36035Y171000D01*
X35897Y172044D01*
X35494Y173017D01*
X34853Y173853D01*
X34017Y174494D01*
X33044Y174897D01*
X32000Y175034D01*
X30956Y174897D01*
X29983Y174494D01*
X29147Y173853D01*
X28506Y173017D01*
X28103Y172044D01*
X28029Y171485D01*
X27529Y171518D01*
Y180482D01*
X28029Y180515D01*
X28103Y179956D01*
X28506Y178983D01*
X29147Y178147D01*
X29983Y177506D01*
X30956Y177103D01*
X32000Y176965D01*
X33044Y177103D01*
X34017Y177506D01*
X34853Y178147D01*
X35494Y178983D01*
X35897Y179956D01*
X36035Y181000D01*
X35897Y182044D01*
X35494Y183017D01*
X34853Y183853D01*
X34017Y184494D01*
X33044Y184897D01*
X32000Y185035D01*
X30956Y184897D01*
X29983Y184494D01*
X29147Y183853D01*
X28506Y183017D01*
X28103Y182044D01*
X28029Y181485D01*
X27529Y181518D01*
Y190482D01*
X28029Y190515D01*
X28103Y189956D01*
X28506Y188983D01*
X29147Y188147D01*
X29983Y187506D01*
X30956Y187103D01*
X32000Y186966D01*
X33044Y187103D01*
X34017Y187506D01*
X34853Y188147D01*
X35494Y188983D01*
X35897Y189956D01*
X36035Y191000D01*
X35897Y192044D01*
X35494Y193017D01*
X34853Y193853D01*
X34017Y194494D01*
X33044Y194897D01*
X32000Y195035D01*
X30956Y194897D01*
X29983Y194494D01*
X29147Y193853D01*
X28506Y193017D01*
X28103Y192044D01*
X28029Y191486D01*
X27529Y191518D01*
Y200482D01*
X28029Y200515D01*
X28103Y199956D01*
X28506Y198983D01*
X29147Y198147D01*
X29983Y197506D01*
X30956Y197103D01*
X32000Y196966D01*
X33044Y197103D01*
X34017Y197506D01*
X34853Y198147D01*
X35494Y198983D01*
X35897Y199956D01*
X36035Y201000D01*
X35897Y202044D01*
X35494Y203017D01*
X34853Y203853D01*
X34017Y204494D01*
X33044Y204897D01*
X32000Y205034D01*
X30956Y204897D01*
X29983Y204494D01*
X29147Y203853D01*
X28506Y203017D01*
X28103Y202044D01*
X28029Y201485D01*
X27529Y201518D01*
Y210482D01*
X28029Y210514D01*
X28103Y209956D01*
X28506Y208983D01*
X29147Y208147D01*
X29983Y207506D01*
X30956Y207103D01*
X32000Y206965D01*
X33044Y207103D01*
X34017Y207506D01*
X34853Y208147D01*
X35494Y208983D01*
X35897Y209956D01*
X36035Y211000D01*
X35897Y212044D01*
X35494Y213017D01*
X34853Y213853D01*
X34017Y214494D01*
X33044Y214897D01*
X32000Y215035D01*
X30956Y214897D01*
X29983Y214494D01*
X29147Y213853D01*
X28506Y213017D01*
X28103Y212044D01*
X28029Y211486D01*
X27529Y211518D01*
Y220482D01*
X28029Y220514D01*
X28103Y219956D01*
X28506Y218983D01*
X29147Y218147D01*
X29983Y217506D01*
X30956Y217103D01*
X32000Y216966D01*
X33044Y217103D01*
X34017Y217506D01*
X34853Y218147D01*
X35494Y218983D01*
X35897Y219956D01*
X36035Y221000D01*
X35897Y222044D01*
X35494Y223017D01*
X34853Y223853D01*
X34017Y224494D01*
X33044Y224897D01*
X32000Y225034D01*
X30956Y224897D01*
X29983Y224494D01*
X29147Y223853D01*
X28506Y223017D01*
X28103Y222044D01*
X28029Y221485D01*
X27529Y221518D01*
Y230482D01*
X28029Y230515D01*
X28103Y229956D01*
X28506Y228983D01*
X29147Y228147D01*
X29983Y227506D01*
X30956Y227103D01*
X32000Y226965D01*
X33044Y227103D01*
X34017Y227506D01*
X34853Y228147D01*
X35494Y228983D01*
X35897Y229956D01*
X36035Y231000D01*
X35897Y232044D01*
X35494Y233017D01*
X34853Y233853D01*
X34017Y234494D01*
X33044Y234897D01*
X32000Y235034D01*
X30956Y234897D01*
X29983Y234494D01*
X29147Y233853D01*
X28506Y233017D01*
X28103Y232044D01*
X28029Y231486D01*
X27529Y231518D01*
Y240482D01*
X28029Y240514D01*
X28103Y239956D01*
X28506Y238983D01*
X29147Y238147D01*
X29983Y237506D01*
X30956Y237103D01*
X32000Y236965D01*
X33044Y237103D01*
X34017Y237506D01*
X34853Y238147D01*
X35494Y238983D01*
X35897Y239956D01*
X36035Y241000D01*
X35897Y242044D01*
X35494Y243017D01*
X34853Y243853D01*
X34017Y244494D01*
X33044Y244897D01*
X32000Y245035D01*
X30956Y244897D01*
X29983Y244494D01*
X29147Y243853D01*
X28506Y243017D01*
X28103Y242044D01*
X28029Y241486D01*
X27529Y241518D01*
Y267866D01*
X35634Y275971D01*
X37434D01*
X37655Y275522D01*
X37341Y275113D01*
X36919Y274094D01*
X36841Y273500D01*
X45159D01*
X45081Y274094D01*
X44659Y275113D01*
X44345Y275522D01*
X44566Y275971D01*
X47434D01*
X47655Y275522D01*
D02*
G37*
G36*
X71119Y134219D02*
X71615Y133887D01*
X72200Y133771D01*
X88519D01*
X88740Y133322D01*
X88506Y133017D01*
X88103Y132044D01*
X87966Y131000D01*
X88103Y129956D01*
X88506Y128983D01*
X89147Y128147D01*
X89335Y128003D01*
X89174Y127529D01*
X47633D01*
X35695Y139468D01*
X35897Y139956D01*
X36035Y141000D01*
X35897Y142044D01*
X35494Y143017D01*
X34853Y143853D01*
X34017Y144494D01*
X33044Y144897D01*
X32000Y145035D01*
X30956Y144897D01*
X29983Y144494D01*
X29147Y143853D01*
X28506Y143017D01*
X28103Y142044D01*
X27966Y141000D01*
X28103Y139956D01*
X28506Y138983D01*
X29147Y138147D01*
X29983Y137506D01*
X30956Y137103D01*
X32000Y136966D01*
X33044Y137103D01*
X33532Y137305D01*
X45919Y124919D01*
X46415Y124587D01*
X47000Y124471D01*
X89174D01*
X89335Y123997D01*
X89147Y123853D01*
X88506Y123017D01*
X88304Y122529D01*
X85800D01*
X85215Y122413D01*
X84719Y122081D01*
X70166Y107529D01*
X34826D01*
X34665Y108003D01*
X34853Y108147D01*
X35494Y108983D01*
X35897Y109956D01*
X36035Y111000D01*
X35897Y112044D01*
X35494Y113017D01*
X34853Y113853D01*
X34017Y114494D01*
X33044Y114897D01*
X32000Y115034D01*
X30956Y114897D01*
X29983Y114494D01*
X29147Y113853D01*
X28506Y113017D01*
X28103Y112044D01*
X27966Y111000D01*
X28103Y109956D01*
X28506Y108983D01*
X29147Y108147D01*
X29335Y108003D01*
X29175Y107529D01*
X14087D01*
X14053Y107556D01*
X13063Y107966D01*
X12000Y108106D01*
X10937Y107966D01*
X9947Y107556D01*
X9578Y107273D01*
X9129Y107494D01*
Y110506D01*
X9578Y110727D01*
X9947Y110444D01*
X10937Y110034D01*
X12000Y109894D01*
X13063Y110034D01*
X14053Y110444D01*
X14903Y111097D01*
X15556Y111947D01*
X15966Y112937D01*
X16106Y114000D01*
X15966Y115063D01*
X15749Y115586D01*
X19634Y119471D01*
X28304D01*
X28506Y118983D01*
X29147Y118147D01*
X29983Y117506D01*
X30956Y117103D01*
X32000Y116965D01*
X33044Y117103D01*
X34017Y117506D01*
X34853Y118147D01*
X35494Y118983D01*
X35897Y119956D01*
X36035Y121000D01*
X35897Y122044D01*
X35494Y123017D01*
X34853Y123853D01*
X34017Y124494D01*
X33044Y124897D01*
X32000Y125034D01*
X30956Y124897D01*
X29983Y124494D01*
X29147Y123853D01*
X28506Y123017D01*
X28304Y122529D01*
X19000D01*
X18415Y122413D01*
X17919Y122081D01*
X13586Y117749D01*
X13063Y117966D01*
X12000Y118106D01*
X10937Y117966D01*
X9947Y117556D01*
X9578Y117273D01*
X9129Y117494D01*
Y120506D01*
X9578Y120727D01*
X9947Y120444D01*
X10937Y120034D01*
X12000Y119894D01*
X13063Y120034D01*
X14053Y120444D01*
X14903Y121097D01*
X15556Y121947D01*
X15966Y122937D01*
X16106Y124000D01*
X15966Y125063D01*
X15556Y126053D01*
X14903Y126903D01*
X14053Y127556D01*
X13063Y127966D01*
X12000Y128106D01*
X10937Y127966D01*
X9947Y127556D01*
X9578Y127273D01*
X9129Y127494D01*
Y130506D01*
X9578Y130727D01*
X9947Y130444D01*
X10937Y130034D01*
X12000Y129894D01*
X13063Y130034D01*
X14053Y130444D01*
X14903Y131097D01*
X15556Y131947D01*
X15966Y132937D01*
X16106Y134000D01*
X15966Y135063D01*
X15556Y136053D01*
X14903Y136903D01*
X14053Y137556D01*
X13063Y137966D01*
X12000Y138106D01*
X10937Y137966D01*
X9947Y137556D01*
X9578Y137273D01*
X9129Y137494D01*
Y140506D01*
X9578Y140727D01*
X9947Y140444D01*
X10937Y140034D01*
X12000Y139894D01*
X13063Y140034D01*
X14053Y140444D01*
X14903Y141097D01*
X15556Y141947D01*
X15966Y142937D01*
X16106Y144000D01*
X15966Y145063D01*
X15749Y145586D01*
X23934Y153771D01*
X28519D01*
X28740Y153322D01*
X28506Y153017D01*
X28103Y152044D01*
X28031Y151500D01*
X32000D01*
X35969D01*
X35897Y152044D01*
X35494Y153017D01*
X35260Y153322D01*
X35481Y153771D01*
X51566D01*
X71119Y134219D01*
D02*
G37*
G36*
X108251Y135586D02*
X108034Y135063D01*
X107894Y134000D01*
X108034Y132937D01*
X108444Y131947D01*
X109097Y131097D01*
X109947Y130444D01*
X109983Y130429D01*
X109883Y129929D01*
X107433D01*
X100981Y136381D01*
X100485Y136713D01*
X99900Y136829D01*
X93690D01*
X93591Y137329D01*
X94017Y137506D01*
X94853Y138147D01*
X95494Y138983D01*
X95696Y139471D01*
X104367D01*
X108251Y135586D01*
D02*
G37*
G36*
X105719Y127319D02*
X106215Y126987D01*
X106800Y126871D01*
X108506D01*
X108727Y126422D01*
X108444Y126053D01*
X108227Y125529D01*
X105361D01*
X103809Y127081D01*
X103313Y127413D01*
X102728Y127529D01*
X94826D01*
X94665Y128003D01*
X94853Y128147D01*
X95494Y128983D01*
X95897Y129956D01*
X96034Y131000D01*
X95897Y132044D01*
X95494Y133017D01*
X95260Y133322D01*
X95481Y133771D01*
X99266D01*
X105719Y127319D01*
D02*
G37*
G36*
X103647Y122919D02*
X104143Y122587D01*
X104728Y122471D01*
X108227D01*
X108444Y121947D01*
X109097Y121097D01*
X109219Y121003D01*
X109058Y120529D01*
X100000D01*
X99415Y120413D01*
X98919Y120081D01*
X93532Y114695D01*
X93044Y114897D01*
X92000Y115034D01*
X90956Y114897D01*
X89983Y114494D01*
X89147Y113853D01*
X88506Y113017D01*
X88103Y112044D01*
X87966Y111000D01*
X88103Y109956D01*
X88506Y108983D01*
X89147Y108147D01*
X89335Y108003D01*
X89174Y107529D01*
X77000D01*
X76415Y107413D01*
X75919Y107081D01*
X33532Y64695D01*
X33044Y64897D01*
X32000Y65035D01*
X30956Y64897D01*
X29983Y64494D01*
X29147Y63853D01*
X28506Y63017D01*
X28103Y62044D01*
X27966Y61000D01*
X27986Y60847D01*
X27537Y60626D01*
X15749Y72414D01*
X15966Y72937D01*
X16040Y73500D01*
X12500D01*
Y69960D01*
X13063Y70034D01*
X13586Y70251D01*
X28218Y55619D01*
X28715Y55287D01*
X29300Y55171D01*
X30310D01*
X30409Y54671D01*
X29983Y54494D01*
X29147Y53853D01*
X28506Y53017D01*
X28432Y52838D01*
X27842Y52721D01*
X21081Y59481D01*
X20585Y59813D01*
X20000Y59929D01*
X14117D01*
X14017Y60429D01*
X14053Y60444D01*
X14903Y61097D01*
X15556Y61947D01*
X15966Y62937D01*
X16106Y64000D01*
X15966Y65063D01*
X15556Y66053D01*
X14903Y66903D01*
X14053Y67556D01*
X13063Y67966D01*
X12000Y68106D01*
X10937Y67966D01*
X9947Y67556D01*
X9578Y67273D01*
X9129Y67494D01*
Y70506D01*
X9578Y70727D01*
X9947Y70444D01*
X10937Y70034D01*
X11500Y69960D01*
Y74000D01*
Y78040D01*
X10937Y77966D01*
X9947Y77556D01*
X9578Y77273D01*
X9129Y77494D01*
Y80506D01*
X9578Y80727D01*
X9947Y80444D01*
X10937Y80034D01*
X12000Y79894D01*
X13063Y80034D01*
X14053Y80444D01*
X14903Y81097D01*
X15556Y81947D01*
X15966Y82937D01*
X16106Y84000D01*
X15966Y85063D01*
X15556Y86053D01*
X14903Y86903D01*
X14053Y87556D01*
X13063Y87966D01*
X12000Y88106D01*
X10937Y87966D01*
X9947Y87556D01*
X9578Y87273D01*
X9129Y87494D01*
Y90506D01*
X9578Y90727D01*
X9947Y90444D01*
X10937Y90034D01*
X12000Y89894D01*
X13063Y90034D01*
X14053Y90444D01*
X14903Y91097D01*
X15556Y91947D01*
X15966Y92937D01*
X16106Y94000D01*
X15966Y95063D01*
X15556Y96053D01*
X14903Y96903D01*
X14053Y97556D01*
X13063Y97966D01*
X12000Y98106D01*
X10937Y97966D01*
X9947Y97556D01*
X9578Y97273D01*
X9129Y97494D01*
Y100506D01*
X9578Y100727D01*
X9947Y100444D01*
X10937Y100034D01*
X12000Y99894D01*
X13063Y100034D01*
X14053Y100444D01*
X14903Y101097D01*
X15556Y101947D01*
X15966Y102937D01*
X16106Y104000D01*
X16093Y104095D01*
X16423Y104471D01*
X29175D01*
X29335Y103997D01*
X29147Y103853D01*
X28506Y103017D01*
X28103Y102044D01*
X27966Y101000D01*
X28103Y99956D01*
X28506Y98983D01*
X29147Y98147D01*
X29983Y97506D01*
X30956Y97103D01*
X32000Y96965D01*
X33044Y97103D01*
X34017Y97506D01*
X34853Y98147D01*
X35494Y98983D01*
X35897Y99956D01*
X36035Y101000D01*
X35897Y102044D01*
X35494Y103017D01*
X34853Y103853D01*
X34665Y103997D01*
X34826Y104471D01*
X70800D01*
X71385Y104587D01*
X71881Y104919D01*
X86434Y119471D01*
X88304D01*
X88506Y118983D01*
X89147Y118147D01*
X89983Y117506D01*
X90956Y117103D01*
X92000Y116965D01*
X93044Y117103D01*
X94017Y117506D01*
X94853Y118147D01*
X95494Y118983D01*
X95897Y119956D01*
X96034Y121000D01*
X95897Y122044D01*
X95494Y123017D01*
X94853Y123853D01*
X94665Y123997D01*
X94826Y124471D01*
X102094D01*
X103647Y122919D01*
D02*
G37*
%LPC*%
G36*
X45159Y272500D02*
X41500D01*
Y268841D01*
X42094Y268919D01*
X43113Y269341D01*
X43988Y270012D01*
X44659Y270887D01*
X45081Y271906D01*
X45159Y272500D01*
D02*
G37*
G36*
X40500D02*
X36841D01*
X36919Y271906D01*
X37341Y270887D01*
X38012Y270012D01*
X38887Y269341D01*
X39906Y268919D01*
X40500Y268841D01*
Y272500D01*
D02*
G37*
G36*
X35969Y150500D02*
X32500D01*
Y147031D01*
X33044Y147103D01*
X34017Y147506D01*
X34853Y148147D01*
X35494Y148983D01*
X35897Y149956D01*
X35969Y150500D01*
D02*
G37*
G36*
X31500D02*
X28031D01*
X28103Y149956D01*
X28506Y148983D01*
X29147Y148147D01*
X29983Y147506D01*
X30956Y147103D01*
X31500Y147031D01*
Y150500D01*
D02*
G37*
G36*
X32000Y135035D02*
X30956Y134897D01*
X29983Y134494D01*
X29147Y133853D01*
X28506Y133017D01*
X28103Y132044D01*
X27966Y131000D01*
X28103Y129956D01*
X28506Y128983D01*
X29147Y128147D01*
X29983Y127506D01*
X30956Y127103D01*
X32000Y126965D01*
X33044Y127103D01*
X34017Y127506D01*
X34853Y128147D01*
X35494Y128983D01*
X35897Y129956D01*
X36035Y131000D01*
X35897Y132044D01*
X35494Y133017D01*
X34853Y133853D01*
X34017Y134494D01*
X33044Y134897D01*
X32000Y135035D01*
D02*
G37*
G36*
Y95034D02*
X30956Y94897D01*
X29983Y94494D01*
X29147Y93853D01*
X28506Y93017D01*
X28103Y92044D01*
X27966Y91000D01*
X28103Y89956D01*
X28506Y88983D01*
X29147Y88147D01*
X29983Y87506D01*
X30956Y87103D01*
X32000Y86966D01*
X33044Y87103D01*
X34017Y87506D01*
X34853Y88147D01*
X35494Y88983D01*
X35897Y89956D01*
X36035Y91000D01*
X35897Y92044D01*
X35494Y93017D01*
X34853Y93853D01*
X34017Y94494D01*
X33044Y94897D01*
X32000Y95034D01*
D02*
G37*
G36*
Y85035D02*
X30956Y84897D01*
X29983Y84494D01*
X29147Y83853D01*
X28506Y83017D01*
X28103Y82044D01*
X27966Y81000D01*
X28103Y79956D01*
X28506Y78983D01*
X29147Y78147D01*
X29983Y77506D01*
X30956Y77103D01*
X32000Y76965D01*
X33044Y77103D01*
X34017Y77506D01*
X34853Y78147D01*
X35494Y78983D01*
X35897Y79956D01*
X36035Y81000D01*
X35897Y82044D01*
X35494Y83017D01*
X34853Y83853D01*
X34017Y84494D01*
X33044Y84897D01*
X32000Y85035D01*
D02*
G37*
G36*
X12500Y78040D02*
Y74500D01*
X16040D01*
X15966Y75063D01*
X15556Y76053D01*
X14903Y76903D01*
X14053Y77556D01*
X13063Y77966D01*
X12500Y78040D01*
D02*
G37*
G36*
X32000Y75034D02*
X30956Y74897D01*
X29983Y74494D01*
X29147Y73853D01*
X28506Y73017D01*
X28103Y72044D01*
X27966Y71000D01*
X28103Y69956D01*
X28506Y68983D01*
X29147Y68147D01*
X29983Y67506D01*
X30956Y67103D01*
X32000Y66966D01*
X33044Y67103D01*
X34017Y67506D01*
X34853Y68147D01*
X35494Y68983D01*
X35897Y69956D01*
X36035Y71000D01*
X35897Y72044D01*
X35494Y73017D01*
X34853Y73853D01*
X34017Y74494D01*
X33044Y74897D01*
X32000Y75034D01*
D02*
G37*
%LPD*%
D13*
X30586Y155300D02*
X52200D01*
X23300D02*
X30586D01*
X56500Y277500D02*
X61000Y273000D01*
X35000Y277500D02*
X56500D01*
X26000Y268500D02*
X35000Y277500D01*
X26000Y159886D02*
Y268500D01*
Y159886D02*
X30586Y155300D01*
X52200D02*
X72200Y135300D01*
X99900D01*
X106800Y128400D02*
X115600D01*
X118000Y126000D01*
Y121000D02*
Y126000D01*
X116000Y119000D02*
X118000Y121000D01*
X12000Y144000D02*
X23300Y155300D01*
X99900Y135300D02*
X106800Y128400D01*
X100000Y119000D02*
X116000D01*
X92000Y111000D02*
X100000Y119000D01*
X7600Y199600D02*
X12000Y204000D01*
X7600Y60400D02*
Y199600D01*
Y60400D02*
X9600Y58400D01*
X20000D01*
X27000Y51400D01*
Y36000D02*
Y51400D01*
Y36000D02*
X32000Y31000D01*
X41000Y263000D02*
X45500Y267500D01*
X85700D01*
X96300Y256900D01*
Y155300D02*
Y256900D01*
X92000Y151000D02*
X96300Y155300D01*
X12000Y104000D02*
X14000Y106000D01*
X70800D01*
X85800Y121000D01*
X92000D01*
X12000Y114000D02*
X19000Y121000D01*
X32000D01*
Y61000D02*
X77000Y106000D01*
X110000D01*
X112000Y104000D01*
X12000Y74000D02*
X29300Y56700D01*
X46300D01*
X92000Y11000D01*
X61000Y172000D02*
X92000Y141000D01*
X61000Y172000D02*
Y263000D01*
X92000Y141000D02*
X105000D01*
X112000Y134000D01*
X32000Y141000D02*
X47000Y126000D01*
X102728D01*
X104728Y124000D01*
X112000D01*
D14*
X110236Y0D02*
X111212Y40D01*
X112180Y161D01*
X113136Y361D01*
X114071Y640D01*
X114981Y995D01*
X115858Y1424D01*
X116696Y1923D01*
X117491Y2490D01*
X118236Y3121D01*
X118926Y3812D01*
X119557Y4557D01*
X120124Y5351D01*
X120624Y6190D01*
X121052Y7067D01*
X121407Y7976D01*
X121686Y8912D01*
X121886Y9867D01*
X122007Y10836D01*
X122047Y11811D01*
Y283465D02*
X122007Y284440D01*
X121886Y285409D01*
X121686Y286364D01*
X121407Y287300D01*
X121052Y288209D01*
X120624Y289086D01*
X120124Y289925D01*
X119557Y290719D01*
X118926Y291464D01*
X118236Y292154D01*
X117491Y292785D01*
X116696Y293352D01*
X115858Y293852D01*
X114981Y294281D01*
X114071Y294636D01*
X113136Y294914D01*
X112180Y295114D01*
X111212Y295235D01*
X110236Y295276D01*
X11811D02*
X10836Y295235D01*
X9867Y295114D01*
X8912Y294914D01*
X7976Y294636D01*
X7067Y294281D01*
X6190Y293852D01*
X5351Y293352D01*
X4557Y292785D01*
X3812Y292154D01*
X3121Y291464D01*
X2490Y290719D01*
X1923Y289925D01*
X1424Y289086D01*
X995Y288209D01*
X640Y287300D01*
X361Y286364D01*
X161Y285409D01*
X40Y284440D01*
X0Y283465D01*
Y11811D02*
X40Y10836D01*
X161Y9867D01*
X361Y8912D01*
X640Y7976D01*
X995Y7067D01*
X1424Y6190D01*
X1923Y5351D01*
X2490Y4557D01*
X3121Y3812D01*
X3812Y3121D01*
X4557Y2490D01*
X5351Y1923D01*
X6190Y1424D01*
X7067Y995D01*
X7976Y640D01*
X8912Y361D01*
X9867Y161D01*
X10836Y40D01*
X11811Y0D01*
X122047Y11811D02*
Y283465D01*
X11811Y295276D02*
X110236D01*
X0Y11811D02*
Y283465D01*
X11811Y0D02*
X110236D01*
D20*
X12000Y204000D02*
D03*
D21*
Y194000D02*
D03*
Y24000D02*
D03*
Y184000D02*
D03*
Y174000D02*
D03*
Y164000D02*
D03*
Y154000D02*
D03*
Y144000D02*
D03*
Y134000D02*
D03*
Y124000D02*
D03*
Y114000D02*
D03*
Y104000D02*
D03*
Y94000D02*
D03*
Y84000D02*
D03*
Y74000D02*
D03*
Y64000D02*
D03*
Y54000D02*
D03*
Y44000D02*
D03*
Y34000D02*
D03*
X112000Y204000D02*
D03*
Y194000D02*
D03*
Y184000D02*
D03*
Y174000D02*
D03*
Y164000D02*
D03*
Y154000D02*
D03*
Y144000D02*
D03*
Y134000D02*
D03*
Y124000D02*
D03*
Y114000D02*
D03*
Y104000D02*
D03*
Y94000D02*
D03*
Y84000D02*
D03*
Y74000D02*
D03*
Y64000D02*
D03*
Y54000D02*
D03*
Y44000D02*
D03*
Y34000D02*
D03*
Y24000D02*
D03*
D22*
X92000Y11000D02*
D03*
Y21000D02*
D03*
Y31000D02*
D03*
Y41000D02*
D03*
Y51000D02*
D03*
Y61000D02*
D03*
Y71000D02*
D03*
Y81000D02*
D03*
Y91000D02*
D03*
Y101000D02*
D03*
Y111000D02*
D03*
Y121000D02*
D03*
Y131000D02*
D03*
Y141000D02*
D03*
X32000D02*
D03*
Y131000D02*
D03*
Y121000D02*
D03*
Y111000D02*
D03*
Y101000D02*
D03*
Y91000D02*
D03*
Y81000D02*
D03*
Y71000D02*
D03*
Y61000D02*
D03*
Y51000D02*
D03*
Y41000D02*
D03*
X92000Y161000D02*
D03*
Y171000D02*
D03*
Y181000D02*
D03*
Y191000D02*
D03*
Y201000D02*
D03*
Y211000D02*
D03*
Y221000D02*
D03*
Y231000D02*
D03*
Y241000D02*
D03*
X32000D02*
D03*
Y231000D02*
D03*
Y221000D02*
D03*
Y211000D02*
D03*
Y201000D02*
D03*
Y191000D02*
D03*
Y181000D02*
D03*
X92000Y151000D02*
D03*
X32000Y31000D02*
D03*
Y21000D02*
D03*
Y11000D02*
D03*
Y151000D02*
D03*
Y161000D02*
D03*
Y171000D02*
D03*
D23*
X41000Y263000D02*
D03*
Y273000D02*
D03*
X51000Y263000D02*
D03*
Y273000D02*
D03*
X61000Y263000D02*
D03*
Y273000D02*
D03*
X71000Y263000D02*
D03*
Y273000D02*
D03*
X81000Y263000D02*
D03*
Y273000D02*
D03*
M02*
