G04*
G04 #@! TF.GenerationSoftware,Altium Limited,Altium Designer,20.1.14 (287)*
G04*
G04 Layer_Color=65535*
%FSLAX25Y25*%
%MOIN*%
G70*
G04*
G04 #@! TF.SameCoordinates,864C0722-24F4-47D7-AB5F-EB3DBA867953*
G04*
G04*
G04 #@! TF.FilePolarity,Positive*
G04*
G01*
G75*
%ADD10C,0.00500*%
%ADD11C,0.00787*%
%ADD12C,0.00787*%
%ADD13C,0.01000*%
%ADD14C,0.00050*%
G36*
X18528Y250800D02*
X17917D01*
Y254674D01*
X17913Y254670D01*
X17908Y254666D01*
X17895Y254653D01*
X17878Y254640D01*
X17852Y254618D01*
X17827Y254597D01*
X17797Y254571D01*
X17762Y254541D01*
X17676Y254481D01*
X17577Y254408D01*
X17465Y254330D01*
X17336Y254253D01*
X17332Y254249D01*
X17319Y254244D01*
X17302Y254231D01*
X17276Y254219D01*
X17246Y254201D01*
X17212Y254184D01*
X17169Y254158D01*
X17126Y254137D01*
X17027Y254085D01*
X16919Y254034D01*
X16807Y253982D01*
X16700Y253939D01*
Y254528D01*
X16704Y254532D01*
X16722Y254541D01*
X16752Y254554D01*
X16786Y254571D01*
X16829Y254593D01*
X16881Y254623D01*
X16937Y254653D01*
X17001Y254692D01*
X17070Y254730D01*
X17139Y254778D01*
X17289Y254876D01*
X17444Y254988D01*
X17590Y255109D01*
X17594Y255113D01*
X17607Y255126D01*
X17625Y255143D01*
X17655Y255169D01*
X17685Y255199D01*
X17719Y255233D01*
X17758Y255276D01*
X17801Y255319D01*
X17891Y255422D01*
X17981Y255534D01*
X18063Y255655D01*
X18102Y255715D01*
X18132Y255775D01*
X18528D01*
Y250800D01*
D02*
G37*
G36*
X17397Y285371D02*
X17445D01*
X17505Y285362D01*
X17578Y285354D01*
X17655Y285341D01*
X17737Y285328D01*
X17827Y285306D01*
X17918Y285280D01*
X18012Y285246D01*
X18107Y285207D01*
X18202Y285164D01*
X18292Y285108D01*
X18378Y285048D01*
X18460Y284980D01*
X18464Y284975D01*
X18477Y284962D01*
X18498Y284941D01*
X18524Y284911D01*
X18558Y284872D01*
X18593Y284825D01*
X18627Y284769D01*
X18670Y284709D01*
X18709Y284640D01*
X18743Y284567D01*
X18782Y284485D01*
X18812Y284399D01*
X18838Y284309D01*
X18859Y284210D01*
X18872Y284107D01*
X18877Y283999D01*
Y283995D01*
Y283986D01*
Y283969D01*
Y283947D01*
X18872Y283922D01*
Y283887D01*
X18859Y283814D01*
X18846Y283724D01*
X18825Y283625D01*
X18795Y283518D01*
X18752Y283410D01*
Y283406D01*
X18748Y283397D01*
X18739Y283380D01*
X18730Y283363D01*
X18718Y283333D01*
X18700Y283302D01*
X18679Y283268D01*
X18657Y283229D01*
X18601Y283139D01*
X18533Y283036D01*
X18447Y282924D01*
X18348Y282808D01*
X18343Y282804D01*
X18335Y282795D01*
X18318Y282774D01*
X18296Y282748D01*
X18262Y282718D01*
X18223Y282679D01*
X18180Y282632D01*
X18128Y282580D01*
X18064Y282520D01*
X17995Y282455D01*
X17922Y282382D01*
X17836Y282305D01*
X17746Y282223D01*
X17642Y282133D01*
X17535Y282038D01*
X17415Y281935D01*
X17410Y281931D01*
X17389Y281914D01*
X17363Y281892D01*
X17324Y281862D01*
X17281Y281823D01*
X17234Y281780D01*
X17178Y281733D01*
X17122Y281686D01*
X17002Y281582D01*
X16886Y281479D01*
X16834Y281432D01*
X16782Y281385D01*
X16744Y281346D01*
X16709Y281312D01*
X16701Y281303D01*
X16684Y281286D01*
X16654Y281251D01*
X16619Y281208D01*
X16580Y281161D01*
X16537Y281105D01*
X16494Y281045D01*
X16456Y280985D01*
X18885D01*
Y280400D01*
X15609D01*
Y280404D01*
Y280409D01*
Y280421D01*
Y280439D01*
Y280482D01*
X15613Y280533D01*
X15621Y280598D01*
X15634Y280671D01*
X15652Y280744D01*
X15677Y280821D01*
Y280826D01*
X15682Y280839D01*
X15690Y280856D01*
X15703Y280877D01*
X15716Y280907D01*
X15733Y280946D01*
X15751Y280985D01*
X15776Y281028D01*
X15828Y281131D01*
X15901Y281239D01*
X15983Y281359D01*
X16077Y281479D01*
X16082Y281484D01*
X16090Y281492D01*
X16107Y281514D01*
X16129Y281535D01*
X16159Y281565D01*
X16193Y281604D01*
X16232Y281647D01*
X16279Y281694D01*
X16335Y281746D01*
X16391Y281802D01*
X16460Y281866D01*
X16529Y281931D01*
X16606Y282000D01*
X16688Y282073D01*
X16778Y282150D01*
X16873Y282227D01*
X16877D01*
X16881Y282236D01*
X16907Y282258D01*
X16950Y282292D01*
X17002Y282339D01*
X17071Y282395D01*
X17144Y282460D01*
X17225Y282533D01*
X17311Y282610D01*
X17402Y282692D01*
X17496Y282778D01*
X17587Y282864D01*
X17677Y282954D01*
X17759Y283040D01*
X17836Y283126D01*
X17905Y283204D01*
X17965Y283281D01*
X17969Y283285D01*
X17978Y283298D01*
X17991Y283320D01*
X18008Y283346D01*
X18030Y283380D01*
X18055Y283423D01*
X18081Y283466D01*
X18107Y283518D01*
X18158Y283629D01*
X18206Y283754D01*
X18223Y283819D01*
X18236Y283883D01*
X18245Y283947D01*
X18249Y284012D01*
Y284016D01*
Y284029D01*
Y284046D01*
X18245Y284072D01*
X18240Y284102D01*
X18236Y284141D01*
X18227Y284180D01*
X18219Y284223D01*
X18184Y284322D01*
X18167Y284369D01*
X18141Y284420D01*
X18111Y284472D01*
X18077Y284524D01*
X18038Y284575D01*
X17991Y284623D01*
X17987Y284627D01*
X17978Y284635D01*
X17965Y284644D01*
X17943Y284661D01*
X17918Y284679D01*
X17888Y284700D01*
X17853Y284726D01*
X17810Y284747D01*
X17763Y284769D01*
X17711Y284795D01*
X17655Y284816D01*
X17595Y284833D01*
X17535Y284851D01*
X17466Y284863D01*
X17393Y284868D01*
X17316Y284872D01*
X17273D01*
X17243Y284868D01*
X17208Y284863D01*
X17165Y284859D01*
X17114Y284851D01*
X17062Y284838D01*
X16950Y284807D01*
X16894Y284786D01*
X16834Y284760D01*
X16778Y284730D01*
X16722Y284691D01*
X16666Y284653D01*
X16615Y284605D01*
X16611Y284601D01*
X16602Y284593D01*
X16589Y284580D01*
X16576Y284558D01*
X16555Y284528D01*
X16533Y284498D01*
X16507Y284459D01*
X16486Y284416D01*
X16460Y284365D01*
X16434Y284309D01*
X16413Y284248D01*
X16396Y284184D01*
X16378Y284115D01*
X16365Y284038D01*
X16357Y283960D01*
X16353Y283874D01*
X15725Y283939D01*
Y283947D01*
X15729Y283969D01*
X15733Y284008D01*
X15742Y284055D01*
X15751Y284111D01*
X15768Y284180D01*
X15785Y284253D01*
X15806Y284334D01*
X15836Y284420D01*
X15867Y284507D01*
X15905Y284597D01*
X15953Y284683D01*
X16004Y284773D01*
X16060Y284855D01*
X16129Y284932D01*
X16202Y285005D01*
X16206Y285010D01*
X16224Y285022D01*
X16245Y285040D01*
X16279Y285061D01*
X16322Y285091D01*
X16374Y285121D01*
X16434Y285156D01*
X16503Y285190D01*
X16576Y285225D01*
X16662Y285259D01*
X16757Y285289D01*
X16856Y285319D01*
X16963Y285341D01*
X17079Y285358D01*
X17200Y285371D01*
X17329Y285375D01*
X17359D01*
X17397Y285371D01*
D02*
G37*
G36*
X104838Y255571D02*
X104881Y255567D01*
X104929Y255562D01*
X104984Y255554D01*
X105049Y255541D01*
X105113Y255528D01*
X105182Y255511D01*
X105255Y255489D01*
X105333Y255463D01*
X105410Y255433D01*
X105488Y255399D01*
X105561Y255360D01*
X105638Y255313D01*
X105642Y255309D01*
X105655Y255300D01*
X105677Y255287D01*
X105703Y255265D01*
X105737Y255240D01*
X105776Y255205D01*
X105819Y255167D01*
X105866Y255124D01*
X105913Y255076D01*
X105965Y255020D01*
X106017Y254960D01*
X106068Y254891D01*
X106115Y254818D01*
X106163Y254745D01*
X106210Y254659D01*
X106249Y254573D01*
X106253Y254569D01*
X106257Y254552D01*
X106270Y254522D01*
X106283Y254483D01*
X106296Y254436D01*
X106317Y254371D01*
X106335Y254302D01*
X106356Y254221D01*
X106373Y254126D01*
X106395Y254023D01*
X106412Y253907D01*
X106425Y253782D01*
X106442Y253649D01*
X106451Y253502D01*
X106455Y253348D01*
X106459Y253180D01*
Y253176D01*
Y253171D01*
Y253154D01*
Y253137D01*
Y253116D01*
Y253090D01*
X106455Y253021D01*
Y252943D01*
X106451Y252849D01*
X106442Y252746D01*
X106434Y252634D01*
X106421Y252518D01*
X106408Y252393D01*
X106373Y252139D01*
X106348Y252015D01*
X106322Y251894D01*
X106287Y251778D01*
X106253Y251666D01*
X106249Y251662D01*
X106244Y251641D01*
X106231Y251610D01*
X106214Y251576D01*
X106193Y251529D01*
X106167Y251473D01*
X106137Y251413D01*
X106098Y251348D01*
X106060Y251279D01*
X106012Y251211D01*
X105961Y251137D01*
X105905Y251069D01*
X105849Y251000D01*
X105780Y250931D01*
X105711Y250867D01*
X105638Y250811D01*
X105634Y250806D01*
X105621Y250798D01*
X105595Y250785D01*
X105565Y250763D01*
X105526Y250742D01*
X105479Y250720D01*
X105427Y250690D01*
X105367Y250664D01*
X105298Y250639D01*
X105225Y250613D01*
X105148Y250587D01*
X105062Y250566D01*
X104976Y250544D01*
X104881Y250531D01*
X104782Y250523D01*
X104683Y250518D01*
X104658D01*
X104628Y250523D01*
X104585D01*
X104537Y250527D01*
X104477Y250535D01*
X104417Y250544D01*
X104344Y250557D01*
X104271Y250574D01*
X104193Y250596D01*
X104116Y250622D01*
X104034Y250656D01*
X103953Y250690D01*
X103875Y250733D01*
X103802Y250785D01*
X103729Y250841D01*
X103725Y250845D01*
X103712Y250858D01*
X103694Y250875D01*
X103669Y250901D01*
X103643Y250935D01*
X103609Y250974D01*
X103574Y251021D01*
X103535Y251077D01*
X103501Y251137D01*
X103462Y251206D01*
X103424Y251279D01*
X103389Y251361D01*
X103359Y251447D01*
X103329Y251542D01*
X103307Y251641D01*
X103290Y251748D01*
X103875Y251804D01*
Y251800D01*
X103879Y251787D01*
X103884Y251765D01*
X103888Y251735D01*
X103897Y251701D01*
X103910Y251662D01*
X103940Y251572D01*
X103974Y251473D01*
X104026Y251374D01*
X104081Y251279D01*
X104116Y251241D01*
X104155Y251202D01*
X104159D01*
X104163Y251193D01*
X104176Y251185D01*
X104193Y251172D01*
X104215Y251159D01*
X104241Y251142D01*
X104301Y251112D01*
X104378Y251077D01*
X104469Y251047D01*
X104576Y251026D01*
X104632Y251021D01*
X104692Y251017D01*
X104739D01*
X104765Y251021D01*
X104791Y251026D01*
X104860Y251034D01*
X104937Y251047D01*
X105019Y251069D01*
X105105Y251099D01*
X105187Y251142D01*
X105191D01*
X105195Y251146D01*
X105221Y251168D01*
X105260Y251193D01*
X105307Y251232D01*
X105363Y251284D01*
X105419Y251340D01*
X105479Y251408D01*
X105531Y251486D01*
Y251490D01*
X105535Y251494D01*
X105543Y251507D01*
X105552Y251524D01*
X105565Y251546D01*
X105578Y251572D01*
X105595Y251602D01*
X105612Y251641D01*
X105647Y251722D01*
X105685Y251821D01*
X105724Y251937D01*
X105759Y252066D01*
Y252071D01*
X105763Y252083D01*
X105767Y252101D01*
X105771Y252131D01*
X105780Y252161D01*
X105789Y252204D01*
X105797Y252247D01*
X105806Y252298D01*
X105810Y252350D01*
X105819Y252410D01*
X105836Y252535D01*
X105844Y252668D01*
X105849Y252810D01*
Y252819D01*
Y252840D01*
Y252879D01*
Y252926D01*
X105840Y252918D01*
X105832Y252905D01*
X105814Y252883D01*
X105797Y252857D01*
X105776Y252832D01*
X105716Y252763D01*
X105647Y252690D01*
X105561Y252612D01*
X105457Y252535D01*
X105346Y252462D01*
X105341D01*
X105333Y252453D01*
X105316Y252445D01*
X105290Y252432D01*
X105264Y252419D01*
X105225Y252406D01*
X105187Y252389D01*
X105144Y252372D01*
X105040Y252337D01*
X104929Y252311D01*
X104800Y252290D01*
X104666Y252281D01*
X104640D01*
X104606Y252286D01*
X104563Y252290D01*
X104511Y252294D01*
X104451Y252303D01*
X104383Y252320D01*
X104305Y252337D01*
X104228Y252359D01*
X104142Y252389D01*
X104056Y252428D01*
X103970Y252466D01*
X103879Y252518D01*
X103793Y252578D01*
X103707Y252647D01*
X103626Y252724D01*
X103621Y252729D01*
X103609Y252746D01*
X103587Y252771D01*
X103561Y252806D01*
X103527Y252849D01*
X103492Y252905D01*
X103454Y252969D01*
X103415Y253038D01*
X103372Y253120D01*
X103333Y253210D01*
X103299Y253305D01*
X103269Y253412D01*
X103239Y253524D01*
X103217Y253640D01*
X103204Y253769D01*
X103200Y253902D01*
Y253907D01*
Y253911D01*
Y253937D01*
X103204Y253976D01*
X103209Y254027D01*
X103213Y254092D01*
X103221Y254165D01*
X103239Y254246D01*
X103256Y254337D01*
X103277Y254431D01*
X103307Y254530D01*
X103346Y254629D01*
X103385Y254732D01*
X103437Y254831D01*
X103497Y254930D01*
X103566Y255025D01*
X103643Y255115D01*
X103647Y255119D01*
X103664Y255136D01*
X103690Y255158D01*
X103725Y255188D01*
X103768Y255223D01*
X103819Y255261D01*
X103879Y255304D01*
X103948Y255347D01*
X104026Y255390D01*
X104112Y255429D01*
X104202Y255468D01*
X104301Y255502D01*
X104404Y255532D01*
X104516Y255554D01*
X104632Y255571D01*
X104757Y255575D01*
X104804D01*
X104838Y255571D01*
D02*
G37*
G36*
X104227Y280200D02*
X103617D01*
Y284074D01*
X103613Y284070D01*
X103608Y284066D01*
X103595Y284053D01*
X103578Y284040D01*
X103552Y284018D01*
X103527Y283997D01*
X103497Y283971D01*
X103462Y283941D01*
X103376Y283881D01*
X103277Y283808D01*
X103165Y283730D01*
X103036Y283653D01*
X103032Y283649D01*
X103019Y283644D01*
X103002Y283631D01*
X102976Y283618D01*
X102946Y283601D01*
X102912Y283584D01*
X102869Y283558D01*
X102826Y283537D01*
X102727Y283485D01*
X102619Y283434D01*
X102507Y283382D01*
X102400Y283339D01*
Y283928D01*
X102404Y283932D01*
X102421Y283941D01*
X102452Y283954D01*
X102486Y283971D01*
X102529Y283993D01*
X102581Y284023D01*
X102637Y284053D01*
X102701Y284091D01*
X102770Y284130D01*
X102839Y284177D01*
X102989Y284276D01*
X103144Y284388D01*
X103290Y284509D01*
X103294Y284513D01*
X103307Y284526D01*
X103324Y284543D01*
X103355Y284569D01*
X103385Y284599D01*
X103419Y284633D01*
X103458Y284676D01*
X103501Y284719D01*
X103591Y284823D01*
X103681Y284934D01*
X103763Y285055D01*
X103802Y285115D01*
X103832Y285175D01*
X104227D01*
Y280200D01*
D02*
G37*
G36*
X107474Y285171D02*
X107508D01*
X107547Y285167D01*
X107590Y285162D01*
X107642Y285154D01*
X107749Y285136D01*
X107865Y285106D01*
X107986Y285068D01*
X108102Y285012D01*
X108106D01*
X108115Y285003D01*
X108132Y284995D01*
X108153Y284982D01*
X108179Y284964D01*
X108209Y284947D01*
X108278Y284896D01*
X108360Y284827D01*
X108441Y284749D01*
X108523Y284655D01*
X108601Y284547D01*
X108605Y284543D01*
X108609Y284534D01*
X108618Y284517D01*
X108635Y284496D01*
X108648Y284466D01*
X108669Y284431D01*
X108691Y284388D01*
X108712Y284341D01*
X108738Y284294D01*
X108764Y284238D01*
X108790Y284173D01*
X108816Y284109D01*
X108863Y283967D01*
X108910Y283812D01*
Y283808D01*
X108914Y283790D01*
X108919Y283769D01*
X108927Y283735D01*
X108936Y283687D01*
X108945Y283636D01*
X108958Y283576D01*
X108966Y283502D01*
X108975Y283425D01*
X108988Y283335D01*
X108996Y283240D01*
X109005Y283137D01*
X109013Y283025D01*
X109018Y282905D01*
X109022Y282776D01*
Y282642D01*
Y282638D01*
Y282634D01*
Y282621D01*
Y282604D01*
Y282556D01*
X109018Y282496D01*
Y282423D01*
X109013Y282337D01*
X109009Y282242D01*
X109001Y282139D01*
X108992Y282028D01*
X108979Y281916D01*
X108945Y281679D01*
X108927Y281563D01*
X108902Y281447D01*
X108871Y281335D01*
X108841Y281232D01*
Y281228D01*
X108833Y281210D01*
X108824Y281180D01*
X108807Y281146D01*
X108790Y281099D01*
X108764Y281047D01*
X108738Y280991D01*
X108708Y280931D01*
X108631Y280798D01*
X108540Y280660D01*
X108429Y280527D01*
X108368Y280462D01*
X108304Y280406D01*
X108300Y280402D01*
X108287Y280394D01*
X108270Y280381D01*
X108239Y280363D01*
X108205Y280338D01*
X108162Y280316D01*
X108115Y280290D01*
X108059Y280264D01*
X107994Y280234D01*
X107930Y280209D01*
X107852Y280187D01*
X107775Y280166D01*
X107689Y280144D01*
X107599Y280131D01*
X107504Y280123D01*
X107405Y280118D01*
X107375D01*
X107336Y280123D01*
X107285Y280127D01*
X107225Y280135D01*
X107156Y280144D01*
X107078Y280161D01*
X106997Y280183D01*
X106906Y280209D01*
X106816Y280243D01*
X106721Y280282D01*
X106627Y280333D01*
X106532Y280389D01*
X106446Y280458D01*
X106360Y280535D01*
X106279Y280626D01*
X106274Y280634D01*
X106257Y280656D01*
X106236Y280695D01*
X106201Y280746D01*
X106167Y280815D01*
X106124Y280897D01*
X106081Y280995D01*
X106034Y281112D01*
X105986Y281245D01*
X105943Y281391D01*
X105900Y281559D01*
X105866Y281739D01*
X105849Y281838D01*
X105836Y281937D01*
X105823Y282045D01*
X105810Y282156D01*
X105801Y282273D01*
X105793Y282389D01*
X105788Y282513D01*
Y282642D01*
Y282647D01*
Y282651D01*
Y282664D01*
Y282681D01*
Y282728D01*
X105793Y282789D01*
Y282862D01*
X105797Y282948D01*
X105806Y283042D01*
X105810Y283150D01*
X105823Y283257D01*
X105831Y283373D01*
X105866Y283610D01*
X105887Y283726D01*
X105909Y283842D01*
X105939Y283954D01*
X105969Y284057D01*
X105973Y284061D01*
X105978Y284083D01*
X105986Y284109D01*
X106003Y284147D01*
X106021Y284190D01*
X106046Y284242D01*
X106072Y284298D01*
X106102Y284362D01*
X106180Y284496D01*
X106270Y284633D01*
X106382Y284767D01*
X106442Y284827D01*
X106507Y284883D01*
X106511Y284887D01*
X106524Y284896D01*
X106545Y284909D01*
X106571Y284930D01*
X106605Y284951D01*
X106648Y284977D01*
X106696Y285003D01*
X106752Y285029D01*
X106816Y285055D01*
X106885Y285085D01*
X106958Y285106D01*
X107035Y285128D01*
X107121Y285149D01*
X107212Y285162D01*
X107306Y285171D01*
X107405Y285175D01*
X107444D01*
X107474Y285171D01*
D02*
G37*
%LPC*%
G36*
X104834Y255072D02*
X104795D01*
X104765Y255068D01*
X104731Y255063D01*
X104688Y255055D01*
X104645Y255046D01*
X104593Y255029D01*
X104537Y255012D01*
X104481Y254990D01*
X104421Y254964D01*
X104361Y254934D01*
X104301Y254896D01*
X104241Y254848D01*
X104180Y254801D01*
X104124Y254741D01*
X104120Y254737D01*
X104112Y254724D01*
X104099Y254707D01*
X104077Y254681D01*
X104056Y254646D01*
X104030Y254608D01*
X104004Y254560D01*
X103978Y254509D01*
X103948Y254449D01*
X103922Y254384D01*
X103897Y254315D01*
X103875Y254238D01*
X103854Y254156D01*
X103841Y254070D01*
X103832Y253980D01*
X103828Y253881D01*
Y253877D01*
Y253859D01*
Y253834D01*
X103832Y253803D01*
X103836Y253761D01*
X103845Y253717D01*
X103854Y253666D01*
X103862Y253606D01*
X103897Y253485D01*
X103918Y253421D01*
X103948Y253356D01*
X103978Y253292D01*
X104017Y253232D01*
X104060Y253167D01*
X104112Y253111D01*
X104116Y253107D01*
X104124Y253098D01*
X104142Y253085D01*
X104163Y253064D01*
X104189Y253042D01*
X104223Y253021D01*
X104262Y252991D01*
X104305Y252965D01*
X104357Y252939D01*
X104408Y252913D01*
X104469Y252888D01*
X104529Y252866D01*
X104597Y252845D01*
X104666Y252832D01*
X104739Y252823D01*
X104817Y252819D01*
X104856D01*
X104886Y252823D01*
X104924Y252827D01*
X104963Y252836D01*
X105010Y252845D01*
X105062Y252857D01*
X105169Y252892D01*
X105230Y252913D01*
X105286Y252943D01*
X105346Y252978D01*
X105402Y253017D01*
X105457Y253060D01*
X105509Y253111D01*
X105513Y253116D01*
X105522Y253124D01*
X105535Y253141D01*
X105552Y253167D01*
X105574Y253197D01*
X105595Y253232D01*
X105621Y253275D01*
X105647Y253326D01*
X105673Y253382D01*
X105698Y253442D01*
X105720Y253511D01*
X105741Y253584D01*
X105759Y253662D01*
X105771Y253748D01*
X105780Y253838D01*
X105784Y253932D01*
Y253937D01*
Y253954D01*
Y253984D01*
X105780Y254018D01*
X105776Y254062D01*
X105771Y254113D01*
X105763Y254173D01*
X105750Y254234D01*
X105716Y254367D01*
X105694Y254436D01*
X105668Y254504D01*
X105634Y254573D01*
X105595Y254638D01*
X105552Y254702D01*
X105505Y254762D01*
X105500Y254767D01*
X105492Y254775D01*
X105475Y254792D01*
X105453Y254810D01*
X105427Y254836D01*
X105397Y254861D01*
X105359Y254887D01*
X105316Y254917D01*
X105268Y254947D01*
X105217Y254973D01*
X105105Y255025D01*
X105040Y255042D01*
X104976Y255059D01*
X104907Y255068D01*
X104834Y255072D01*
D02*
G37*
G36*
X107397Y284672D02*
X107379D01*
X107358Y284668D01*
X107328D01*
X107293Y284659D01*
X107250Y284655D01*
X107207Y284642D01*
X107156Y284629D01*
X107104Y284608D01*
X107048Y284586D01*
X106992Y284556D01*
X106937Y284522D01*
X106881Y284483D01*
X106829Y284431D01*
X106777Y284380D01*
X106726Y284315D01*
X106721Y284311D01*
X106713Y284294D01*
X106696Y284263D01*
X106678Y284225D01*
X106653Y284173D01*
X106627Y284109D01*
X106601Y284031D01*
X106571Y283937D01*
X106541Y283829D01*
X106515Y283709D01*
X106489Y283571D01*
X106464Y283421D01*
X106446Y283249D01*
X106429Y283064D01*
X106425Y282965D01*
X106421Y282862D01*
X106416Y282754D01*
Y282642D01*
Y282638D01*
Y282629D01*
Y282612D01*
Y282591D01*
Y282561D01*
Y282526D01*
X106421Y282488D01*
Y282445D01*
X106425Y282346D01*
X106433Y282234D01*
X106442Y282114D01*
X106451Y281980D01*
X106468Y281847D01*
X106485Y281709D01*
X106507Y281572D01*
X106537Y281443D01*
X106567Y281318D01*
X106605Y281202D01*
X106648Y281103D01*
X106674Y281056D01*
X106700Y281017D01*
X106704Y281013D01*
X106713Y281000D01*
X106730Y280978D01*
X106752Y280957D01*
X106777Y280922D01*
X106812Y280892D01*
X106851Y280854D01*
X106894Y280819D01*
X106945Y280781D01*
X106997Y280742D01*
X107057Y280712D01*
X107117Y280682D01*
X107186Y280656D01*
X107255Y280634D01*
X107328Y280621D01*
X107405Y280617D01*
X107422D01*
X107444Y280621D01*
X107474Y280626D01*
X107513Y280630D01*
X107551Y280639D01*
X107599Y280651D01*
X107650Y280669D01*
X107702Y280690D01*
X107758Y280716D01*
X107818Y280750D01*
X107878Y280789D01*
X107934Y280832D01*
X107994Y280888D01*
X108050Y280948D01*
X108106Y281021D01*
X108110Y281026D01*
X108119Y281043D01*
X108132Y281069D01*
X108153Y281103D01*
X108175Y281150D01*
X108196Y281215D01*
X108222Y281288D01*
X108252Y281374D01*
X108278Y281477D01*
X108304Y281593D01*
X108325Y281727D01*
X108351Y281877D01*
X108360Y281954D01*
X108368Y282040D01*
X108377Y282131D01*
X108381Y282225D01*
X108386Y282320D01*
X108390Y282423D01*
X108394Y282531D01*
Y282642D01*
Y282647D01*
Y282655D01*
Y282673D01*
Y282694D01*
Y282724D01*
Y282758D01*
X108390Y282797D01*
Y282840D01*
X108386Y282939D01*
X108377Y283051D01*
X108368Y283171D01*
X108360Y283305D01*
X108343Y283438D01*
X108325Y283576D01*
X108300Y283713D01*
X108274Y283842D01*
X108239Y283967D01*
X108201Y284083D01*
X108158Y284182D01*
X108132Y284229D01*
X108106Y284268D01*
X108102Y284272D01*
X108093Y284285D01*
X108076Y284307D01*
X108054Y284332D01*
X108029Y284362D01*
X107994Y284397D01*
X107956Y284431D01*
X107913Y284470D01*
X107861Y284509D01*
X107809Y284543D01*
X107749Y284577D01*
X107689Y284608D01*
X107620Y284633D01*
X107551Y284655D01*
X107474Y284668D01*
X107397Y284672D01*
D02*
G37*
%LPD*%
D10*
X7079Y16105D02*
Y235505D01*
X116921D01*
Y16105D02*
Y235505D01*
X7079Y16105D02*
X116921D01*
D11*
X27000Y6000D02*
X97000D01*
X27000D02*
Y246000D01*
X97000D01*
Y6000D02*
Y246000D01*
X67000Y6000D02*
Y11000D01*
X57000D02*
X67000D01*
X57000Y6000D02*
Y11000D01*
X25624Y256936D02*
X24312D01*
X24968D01*
Y253656D01*
X24312Y253000D01*
X23656D01*
X23000Y253656D01*
X26936Y253000D02*
X28248D01*
X27592D01*
Y256936D01*
X26936Y256280D01*
D12*
X20100Y249400D02*
Y285200D01*
Y249400D02*
X101200D01*
Y285200D01*
X20100D02*
X101200D01*
D13*
X8001Y242999D02*
Y238001D01*
X9001Y237001D01*
X11000D01*
X12000Y238001D01*
Y242999D01*
X13999Y237001D02*
X15999D01*
X14999D01*
Y242999D01*
X13999Y241999D01*
X80994Y25001D02*
X76995D01*
X78995D01*
Y30999D01*
X70997Y25001D02*
X74996D01*
Y30999D01*
X70997D01*
X74996Y28000D02*
X72996D01*
X64999Y25001D02*
X68998D01*
Y30999D01*
X64999D01*
X68998Y28000D02*
X66998D01*
X63000Y30999D02*
Y25001D01*
X59001Y30999D01*
Y25001D01*
X53003Y26001D02*
X54003Y25001D01*
X56002D01*
X57002Y26001D01*
Y27000D01*
X56002Y28000D01*
X54003D01*
X53003Y29000D01*
Y29999D01*
X54003Y30999D01*
X56002D01*
X57002Y29999D01*
X51004Y25001D02*
Y26001D01*
X49004Y28000D01*
X47005Y26001D01*
Y25001D01*
X49004Y28000D02*
Y30999D01*
X45006D02*
X43006D01*
X44006D01*
Y25001D01*
X45006Y26001D01*
D14*
X110236Y0D02*
X111212Y40D01*
X112180Y161D01*
X113136Y361D01*
X114071Y640D01*
X114981Y995D01*
X115858Y1424D01*
X116696Y1923D01*
X117491Y2490D01*
X118236Y3121D01*
X118926Y3812D01*
X119557Y4557D01*
X120124Y5351D01*
X120624Y6190D01*
X121052Y7067D01*
X121407Y7976D01*
X121686Y8912D01*
X121886Y9867D01*
X122007Y10836D01*
X122047Y11811D01*
Y283465D02*
X122007Y284440D01*
X121886Y285409D01*
X121686Y286364D01*
X121407Y287300D01*
X121052Y288209D01*
X120624Y289086D01*
X120124Y289925D01*
X119557Y290719D01*
X118926Y291464D01*
X118236Y292154D01*
X117491Y292785D01*
X116696Y293352D01*
X115858Y293852D01*
X114981Y294281D01*
X114071Y294636D01*
X113136Y294914D01*
X112180Y295114D01*
X111212Y295235D01*
X110236Y295276D01*
X11811D02*
X10836Y295235D01*
X9867Y295114D01*
X8912Y294914D01*
X7976Y294636D01*
X7067Y294281D01*
X6190Y293852D01*
X5351Y293352D01*
X4557Y292785D01*
X3812Y292154D01*
X3121Y291464D01*
X2490Y290719D01*
X1923Y289925D01*
X1424Y289086D01*
X995Y288209D01*
X640Y287300D01*
X361Y286364D01*
X161Y285409D01*
X40Y284440D01*
X0Y283465D01*
Y11811D02*
X40Y10836D01*
X161Y9867D01*
X361Y8912D01*
X640Y7976D01*
X995Y7067D01*
X1424Y6190D01*
X1923Y5351D01*
X2490Y4557D01*
X3121Y3812D01*
X3812Y3121D01*
X4557Y2490D01*
X5351Y1923D01*
X6190Y1424D01*
X7067Y995D01*
X7976Y640D01*
X8912Y361D01*
X9867Y161D01*
X10836Y40D01*
X11811Y0D01*
X122047Y11811D02*
Y283465D01*
X11811Y295276D02*
X110236D01*
X0Y11811D02*
Y283465D01*
X11811Y0D02*
X110236D01*
M02*
