G04 Layer_Color=16711935*
%FSLAX25Y25*%
%MOIN*%
G70*
G01*
G75*
%ADD12C,0.00050*%
%ADD19C,0.00000*%
%ADD21C,0.07244*%
%ADD22C,0.02894*%
D12*
X62992Y47244D02*
X62961Y48233D01*
X62868Y49218D01*
X62713Y50195D01*
X62497Y51161D01*
X62221Y52110D01*
X61886Y53041D01*
X61493Y53949D01*
X61044Y54831D01*
X60541Y55682D01*
X59984Y56501D01*
X59378Y57282D01*
X58724Y58024D01*
X58024Y58724D01*
X57282Y59378D01*
X56501Y59984D01*
X55682Y60541D01*
X54831Y61044D01*
X53949Y61493D01*
X53041Y61886D01*
X52110Y62221D01*
X51161Y62497D01*
X50195Y62713D01*
X49218Y62868D01*
X48233Y62961D01*
X47244Y62992D01*
X47244Y0D02*
X48233Y31D01*
X49218Y124D01*
X50195Y279D01*
X51161Y495D01*
X52110Y771D01*
X53041Y1106D01*
X53949Y1499D01*
X54831Y1948D01*
X55682Y2451D01*
X56501Y3008D01*
X57282Y3614D01*
X58024Y4268D01*
X58724Y4968D01*
X59378Y5710D01*
X59984Y6492D01*
X60541Y7310D01*
X61044Y8161D01*
X61493Y9043D01*
X61886Y9951D01*
X62221Y10882D01*
X62497Y11832D01*
X62713Y12797D01*
X62868Y13774D01*
X62961Y14759D01*
X62992Y15748D01*
X15748Y62992D02*
X14759Y62961D01*
X13774Y62868D01*
X12797Y62713D01*
X11832Y62497D01*
X10882Y62221D01*
X9951Y61886D01*
X9043Y61493D01*
X8161Y61044D01*
X7310Y60541D01*
X6492Y59984D01*
X5710Y59378D01*
X4968Y58724D01*
X4268Y58024D01*
X3614Y57282D01*
X3008Y56501D01*
X2451Y55682D01*
X1948Y54831D01*
X1499Y53949D01*
X1106Y53041D01*
X771Y52110D01*
X495Y51160D01*
X279Y50195D01*
X124Y49218D01*
X31Y48233D01*
X0Y47244D01*
Y15748D02*
X31Y14759D01*
X124Y13774D01*
X279Y12797D01*
X495Y11832D01*
X771Y10882D01*
X1106Y9951D01*
X1499Y9043D01*
X1948Y8161D01*
X2451Y7310D01*
X3008Y6492D01*
X3614Y5710D01*
X4268Y4968D01*
X4968Y4268D01*
X5710Y3614D01*
X6492Y3008D01*
X7310Y2451D01*
X8161Y1948D01*
X9043Y1499D01*
X9951Y1106D01*
X10882Y771D01*
X11832Y495D01*
X12797Y279D01*
X13774Y124D01*
X14759Y31D01*
X15748Y0D01*
X15748D02*
X47244D01*
X0Y15748D02*
Y47244D01*
X15748Y62992D02*
X47244D01*
X62992Y15748D02*
Y47244D01*
D19*
X39390Y51000D02*
X39239Y51999D01*
X38801Y52910D01*
X38114Y53650D01*
X37238Y54156D01*
X36253Y54381D01*
X35246Y54305D01*
X34305Y53936D01*
X33515Y53306D01*
X32946Y52471D01*
X32648Y51505D01*
Y50495D01*
X32946Y49529D01*
X33515Y48694D01*
X34305Y48064D01*
X35246Y47695D01*
X36253Y47620D01*
X37238Y47844D01*
X38114Y48350D01*
X38801Y49090D01*
X39239Y50001D01*
X39390Y51000D01*
X49390D02*
X49239Y51999D01*
X48801Y52910D01*
X48114Y53650D01*
X47238Y54156D01*
X46253Y54381D01*
X45246Y54305D01*
X44305Y53936D01*
X43515Y53306D01*
X42946Y52471D01*
X42648Y51505D01*
Y50495D01*
X42946Y49529D01*
X43515Y48694D01*
X44305Y48064D01*
X45246Y47695D01*
X46253Y47620D01*
X47238Y47844D01*
X48114Y48350D01*
X48801Y49090D01*
X49239Y50001D01*
X49390Y51000D01*
X39390Y41000D02*
X39239Y41999D01*
X38801Y42910D01*
X38114Y43650D01*
X37238Y44156D01*
X36253Y44381D01*
X35246Y44305D01*
X34305Y43936D01*
X33515Y43306D01*
X32946Y42471D01*
X32648Y41505D01*
Y40495D01*
X32946Y39529D01*
X33515Y38694D01*
X34305Y38064D01*
X35246Y37695D01*
X36253Y37620D01*
X37238Y37844D01*
X38114Y38350D01*
X38801Y39090D01*
X39239Y40001D01*
X39390Y41000D01*
X49390D02*
X49239Y41999D01*
X48801Y42910D01*
X48114Y43650D01*
X47238Y44156D01*
X46253Y44381D01*
X45246Y44305D01*
X44305Y43936D01*
X43515Y43306D01*
X42946Y42471D01*
X42648Y41505D01*
Y40495D01*
X42946Y39529D01*
X43515Y38694D01*
X44305Y38064D01*
X45246Y37695D01*
X46253Y37620D01*
X47238Y37844D01*
X48114Y38350D01*
X48801Y39090D01*
X49239Y40001D01*
X49390Y41000D01*
X39390Y31000D02*
X39239Y31999D01*
X38801Y32910D01*
X38114Y33650D01*
X37238Y34156D01*
X36253Y34380D01*
X35246Y34305D01*
X34305Y33936D01*
X33515Y33306D01*
X32946Y32471D01*
X32648Y31505D01*
Y30495D01*
X32946Y29529D01*
X33515Y28694D01*
X34305Y28064D01*
X35246Y27695D01*
X36253Y27619D01*
X37238Y27844D01*
X38114Y28350D01*
X38801Y29090D01*
X39239Y30001D01*
X39390Y31000D01*
X49390D02*
X49239Y31999D01*
X48801Y32910D01*
X48114Y33650D01*
X47238Y34156D01*
X46253Y34380D01*
X45246Y34305D01*
X44305Y33936D01*
X43515Y33306D01*
X42946Y32471D01*
X42648Y31505D01*
Y30495D01*
X42946Y29529D01*
X43515Y28694D01*
X44305Y28064D01*
X45246Y27695D01*
X46253Y27619D01*
X47238Y27844D01*
X48114Y28350D01*
X48801Y29090D01*
X49239Y30001D01*
X49390Y31000D01*
X39390Y21000D02*
X39239Y21999D01*
X38801Y22910D01*
X38114Y23650D01*
X37238Y24156D01*
X36253Y24381D01*
X35246Y24305D01*
X34305Y23936D01*
X33515Y23306D01*
X32946Y22471D01*
X32648Y21505D01*
Y20495D01*
X32946Y19529D01*
X33515Y18694D01*
X34305Y18064D01*
X35246Y17695D01*
X36253Y17619D01*
X37238Y17844D01*
X38114Y18350D01*
X38801Y19090D01*
X39239Y20001D01*
X39390Y21000D01*
X49390D02*
X49239Y21999D01*
X48801Y22910D01*
X48114Y23650D01*
X47238Y24156D01*
X46253Y24381D01*
X45246Y24305D01*
X44305Y23936D01*
X43515Y23306D01*
X42946Y22471D01*
X42648Y21505D01*
Y20495D01*
X42946Y19529D01*
X43515Y18694D01*
X44305Y18064D01*
X45246Y17695D01*
X46253Y17619D01*
X47238Y17844D01*
X48114Y18350D01*
X48801Y19090D01*
X49239Y20001D01*
X49390Y21000D01*
X39390Y11000D02*
X39239Y11999D01*
X38801Y12910D01*
X38114Y13650D01*
X37238Y14156D01*
X36253Y14380D01*
X35246Y14305D01*
X34305Y13936D01*
X33515Y13306D01*
X32946Y12471D01*
X32648Y11505D01*
Y10495D01*
X32946Y9529D01*
X33515Y8694D01*
X34305Y8064D01*
X35246Y7695D01*
X36253Y7620D01*
X37238Y7844D01*
X38114Y8350D01*
X38801Y9090D01*
X39239Y10001D01*
X39390Y11000D01*
X49390D02*
X49239Y11999D01*
X48801Y12910D01*
X48114Y13650D01*
X47238Y14156D01*
X46253Y14380D01*
X45246Y14305D01*
X44305Y13936D01*
X43515Y13306D01*
X42946Y12471D01*
X42648Y11505D01*
Y10495D01*
X42946Y9529D01*
X43515Y8694D01*
X44305Y8064D01*
X45246Y7695D01*
X46253Y7620D01*
X47238Y7844D01*
X48114Y8350D01*
X48801Y9090D01*
X49239Y10001D01*
X49390Y11000D01*
D21*
X36000Y51000D02*
D03*
X46000D02*
D03*
X36000Y41000D02*
D03*
X46000D02*
D03*
X36000Y31000D02*
D03*
X46000D02*
D03*
X36000Y21000D02*
D03*
X46000D02*
D03*
X36000Y11000D02*
D03*
X46000D02*
D03*
D22*
X27000Y43000D02*
D03*
M02*
