G04 Layer_Color=8388736*
%FSLAX25Y25*%
%MOIN*%
G70*
G01*
G75*
%ADD12C,0.00050*%
D12*
X62992Y47244D02*
X62961Y48233D01*
X62868Y49218D01*
X62713Y50195D01*
X62497Y51161D01*
X62221Y52110D01*
X61886Y53041D01*
X61493Y53949D01*
X61044Y54831D01*
X60541Y55682D01*
X59984Y56501D01*
X59378Y57282D01*
X58724Y58024D01*
X58024Y58724D01*
X57282Y59378D01*
X56501Y59984D01*
X55682Y60541D01*
X54831Y61044D01*
X53949Y61493D01*
X53041Y61886D01*
X52110Y62221D01*
X51161Y62497D01*
X50195Y62713D01*
X49218Y62868D01*
X48233Y62961D01*
X47244Y62992D01*
X47244Y0D02*
X48233Y31D01*
X49218Y124D01*
X50195Y279D01*
X51161Y495D01*
X52110Y771D01*
X53041Y1106D01*
X53949Y1499D01*
X54831Y1948D01*
X55682Y2451D01*
X56501Y3008D01*
X57282Y3614D01*
X58024Y4268D01*
X58724Y4968D01*
X59378Y5710D01*
X59984Y6492D01*
X60541Y7310D01*
X61044Y8161D01*
X61493Y9043D01*
X61886Y9951D01*
X62221Y10882D01*
X62497Y11832D01*
X62713Y12797D01*
X62868Y13774D01*
X62961Y14759D01*
X62992Y15748D01*
X15748Y62992D02*
X14759Y62961D01*
X13774Y62868D01*
X12797Y62713D01*
X11832Y62497D01*
X10882Y62221D01*
X9951Y61886D01*
X9043Y61493D01*
X8161Y61044D01*
X7310Y60541D01*
X6492Y59984D01*
X5710Y59378D01*
X4968Y58724D01*
X4268Y58024D01*
X3614Y57282D01*
X3008Y56501D01*
X2451Y55682D01*
X1948Y54831D01*
X1499Y53949D01*
X1106Y53041D01*
X771Y52110D01*
X495Y51160D01*
X279Y50195D01*
X124Y49218D01*
X31Y48233D01*
X0Y47244D01*
Y15748D02*
X31Y14759D01*
X124Y13774D01*
X279Y12797D01*
X495Y11832D01*
X771Y10882D01*
X1106Y9951D01*
X1499Y9043D01*
X1948Y8161D01*
X2451Y7310D01*
X3008Y6492D01*
X3614Y5710D01*
X4268Y4968D01*
X4968Y4268D01*
X5710Y3614D01*
X6492Y3008D01*
X7310Y2451D01*
X8161Y1948D01*
X9043Y1499D01*
X9951Y1106D01*
X10882Y771D01*
X11832Y495D01*
X12797Y279D01*
X13774Y124D01*
X14759Y31D01*
X15748Y0D01*
X15748D02*
X47244D01*
X0Y15748D02*
Y47244D01*
X15748Y62992D02*
X47244D01*
X62992Y15748D02*
Y47244D01*
X62992Y47244D02*
X62961Y48233D01*
X62868Y49218D01*
X62713Y50195D01*
X62497Y51161D01*
X62221Y52110D01*
X61886Y53041D01*
X61493Y53949D01*
X61044Y54831D01*
X60541Y55682D01*
X59984Y56501D01*
X59378Y57282D01*
X58724Y58024D01*
X58024Y58724D01*
X57282Y59378D01*
X56501Y59984D01*
X55682Y60541D01*
X54831Y61044D01*
X53949Y61493D01*
X53041Y61886D01*
X52110Y62221D01*
X51161Y62497D01*
X50195Y62713D01*
X49218Y62868D01*
X48233Y62961D01*
X47244Y62992D01*
X47244Y0D02*
X48233Y31D01*
X49218Y124D01*
X50195Y279D01*
X51161Y495D01*
X52110Y771D01*
X53041Y1106D01*
X53949Y1499D01*
X54831Y1948D01*
X55682Y2451D01*
X56501Y3008D01*
X57282Y3614D01*
X58024Y4268D01*
X58724Y4968D01*
X59378Y5710D01*
X59984Y6492D01*
X60541Y7310D01*
X61044Y8161D01*
X61493Y9043D01*
X61886Y9951D01*
X62221Y10882D01*
X62497Y11832D01*
X62713Y12797D01*
X62868Y13774D01*
X62961Y14759D01*
X62992Y15748D01*
X15748Y62992D02*
X14759Y62961D01*
X13774Y62868D01*
X12797Y62713D01*
X11832Y62497D01*
X10882Y62221D01*
X9951Y61886D01*
X9043Y61493D01*
X8161Y61044D01*
X7310Y60541D01*
X6492Y59984D01*
X5710Y59378D01*
X4968Y58724D01*
X4268Y58024D01*
X3614Y57282D01*
X3008Y56501D01*
X2451Y55682D01*
X1948Y54831D01*
X1499Y53949D01*
X1106Y53041D01*
X771Y52110D01*
X495Y51160D01*
X279Y50195D01*
X124Y49218D01*
X31Y48233D01*
X0Y47244D01*
Y15748D02*
X31Y14759D01*
X124Y13774D01*
X279Y12797D01*
X495Y11832D01*
X771Y10882D01*
X1106Y9951D01*
X1499Y9043D01*
X1948Y8161D01*
X2451Y7310D01*
X3008Y6492D01*
X3614Y5710D01*
X4268Y4968D01*
X4968Y4268D01*
X5710Y3614D01*
X6492Y3008D01*
X7310Y2451D01*
X8161Y1948D01*
X9043Y1499D01*
X9951Y1106D01*
X10882Y771D01*
X11832Y495D01*
X12797Y279D01*
X13774Y124D01*
X14759Y31D01*
X15748Y0D01*
X15748D02*
X47244D01*
X0Y15748D02*
Y47244D01*
X15748Y62992D02*
X47244D01*
X62992Y15748D02*
Y47244D01*
M02*
