M48
;Layer_Color=9474304
;FILE_FORMAT=2:5
INCH,TZ
;TYPE=PLATED
T1F00S00C0.01000
T2F00S00C0.01181
%
T01
X10700Y18500
X18700Y22400
X19000Y26500
X21000Y35500
X19000Y39500
X32000Y39600
X36000Y40000
X44000Y36800
X45100Y28400
X42600Y23100
X45250Y20707
X39900Y15800
X35000Y12000
X29600Y14700
X25375Y15725
X28890Y46800
X23000Y50500
X7500Y48000
X44500Y55500
X50610Y56390
T02
X17500Y46000
X21500Y42500
X34000Y43000
Y46500
M30
