M48
;Layer_Color=9474304
;FILE_FORMAT=2:5
INCH,TZ
;TYPE=PLATED
T1F00S00C0.04000
T2F00S00C0.04016
T3F00S00C0.04094
%
T01
X32000Y11000
Y21000
Y31000
Y41000
Y51000
X92000
Y41000
Y31000
Y21000
Y11000
Y61000
Y71000
Y81000
Y91000
Y101000
Y111000
Y121000
Y131000
Y141000
Y151000
Y161000
Y171000
Y181000
Y191000
Y201000
Y211000
X32000
Y201000
Y191000
Y181000
Y171000
Y161000
Y151000
Y141000
Y131000
Y121000
Y111000
Y101000
Y91000
Y81000
Y71000
Y61000
Y221000
Y231000
Y241000
X92000
Y231000
Y221000
T02
X41000Y263000
Y273000
X51000
Y263000
X61000
Y273000
X71000
Y263000
X81000
Y273000
T03
X12000Y24000
Y34000
Y44000
Y54000
X112000
Y44000
Y34000
Y24000
Y64000
Y74000
Y84000
Y94000
Y104000
Y114000
Y124000
Y134000
Y144000
Y154000
Y164000
Y174000
Y184000
Y194000
Y204000
X12000
Y194000
Y184000
Y174000
Y164000
Y154000
Y144000
Y134000
Y124000
Y114000
Y104000
Y94000
Y84000
Y74000
Y64000
M30
