G04*
G04 #@! TF.GenerationSoftware,Altium Limited,Altium Designer,20.1.14 (287)*
G04*
G04 Layer_Color=65535*
%FSLAX25Y25*%
%MOIN*%
G70*
G04*
G04 #@! TF.SameCoordinates,AECB5131-AEB6-4EF0-9EC0-680490A520C0*
G04*
G04*
G04 #@! TF.FilePolarity,Positive*
G04*
G01*
G75*
%ADD10C,0.00787*%
%ADD11C,0.00500*%
%ADD12C,0.00787*%
%ADD13C,0.01000*%
%ADD14C,0.00050*%
G36*
X82328Y44500D02*
X81717D01*
Y48374D01*
X81713Y48370D01*
X81708Y48366D01*
X81695Y48353D01*
X81678Y48340D01*
X81652Y48318D01*
X81627Y48297D01*
X81596Y48271D01*
X81562Y48241D01*
X81476Y48181D01*
X81377Y48108D01*
X81265Y48030D01*
X81136Y47953D01*
X81132Y47949D01*
X81119Y47944D01*
X81102Y47931D01*
X81076Y47918D01*
X81046Y47901D01*
X81012Y47884D01*
X80969Y47858D01*
X80926Y47837D01*
X80827Y47785D01*
X80719Y47734D01*
X80607Y47682D01*
X80500Y47639D01*
Y48228D01*
X80504Y48232D01*
X80522Y48241D01*
X80552Y48254D01*
X80586Y48271D01*
X80629Y48293D01*
X80681Y48323D01*
X80737Y48353D01*
X80801Y48392D01*
X80870Y48430D01*
X80939Y48478D01*
X81089Y48576D01*
X81244Y48688D01*
X81390Y48809D01*
X81394Y48813D01*
X81407Y48826D01*
X81424Y48843D01*
X81455Y48869D01*
X81485Y48899D01*
X81519Y48933D01*
X81558Y48976D01*
X81601Y49019D01*
X81691Y49123D01*
X81781Y49234D01*
X81863Y49355D01*
X81902Y49415D01*
X81932Y49475D01*
X82328D01*
Y44500D01*
D02*
G37*
G36*
X85574Y49471D02*
X85608D01*
X85647Y49466D01*
X85690Y49462D01*
X85742Y49454D01*
X85849Y49436D01*
X85965Y49406D01*
X86086Y49368D01*
X86202Y49312D01*
X86206D01*
X86215Y49303D01*
X86232Y49294D01*
X86253Y49282D01*
X86279Y49264D01*
X86309Y49247D01*
X86378Y49196D01*
X86460Y49127D01*
X86541Y49049D01*
X86623Y48955D01*
X86701Y48847D01*
X86705Y48843D01*
X86709Y48834D01*
X86718Y48817D01*
X86735Y48796D01*
X86748Y48766D01*
X86769Y48731D01*
X86791Y48688D01*
X86812Y48641D01*
X86838Y48594D01*
X86864Y48538D01*
X86890Y48473D01*
X86916Y48409D01*
X86963Y48267D01*
X87010Y48112D01*
Y48108D01*
X87015Y48090D01*
X87019Y48069D01*
X87027Y48035D01*
X87036Y47987D01*
X87045Y47936D01*
X87058Y47875D01*
X87066Y47802D01*
X87075Y47725D01*
X87088Y47635D01*
X87096Y47540D01*
X87105Y47437D01*
X87113Y47325D01*
X87118Y47205D01*
X87122Y47076D01*
Y46942D01*
Y46938D01*
Y46934D01*
Y46921D01*
Y46904D01*
Y46856D01*
X87118Y46796D01*
Y46723D01*
X87113Y46637D01*
X87109Y46543D01*
X87100Y46439D01*
X87092Y46327D01*
X87079Y46216D01*
X87045Y45979D01*
X87027Y45863D01*
X87002Y45747D01*
X86971Y45635D01*
X86941Y45532D01*
Y45528D01*
X86933Y45511D01*
X86924Y45480D01*
X86907Y45446D01*
X86890Y45399D01*
X86864Y45347D01*
X86838Y45291D01*
X86808Y45231D01*
X86731Y45098D01*
X86640Y44960D01*
X86529Y44827D01*
X86468Y44762D01*
X86404Y44706D01*
X86400Y44702D01*
X86387Y44693D01*
X86370Y44681D01*
X86339Y44663D01*
X86305Y44638D01*
X86262Y44616D01*
X86215Y44590D01*
X86159Y44565D01*
X86094Y44534D01*
X86030Y44509D01*
X85952Y44487D01*
X85875Y44466D01*
X85789Y44444D01*
X85699Y44431D01*
X85604Y44423D01*
X85505Y44418D01*
X85475D01*
X85436Y44423D01*
X85385Y44427D01*
X85325Y44436D01*
X85256Y44444D01*
X85178Y44461D01*
X85097Y44483D01*
X85006Y44509D01*
X84916Y44543D01*
X84821Y44582D01*
X84727Y44633D01*
X84632Y44689D01*
X84546Y44758D01*
X84460Y44835D01*
X84379Y44926D01*
X84374Y44934D01*
X84357Y44956D01*
X84336Y44995D01*
X84301Y45046D01*
X84267Y45115D01*
X84224Y45197D01*
X84181Y45296D01*
X84133Y45412D01*
X84086Y45545D01*
X84043Y45691D01*
X84000Y45859D01*
X83966Y46039D01*
X83949Y46138D01*
X83936Y46237D01*
X83923Y46345D01*
X83910Y46457D01*
X83901Y46573D01*
X83893Y46689D01*
X83888Y46813D01*
Y46942D01*
Y46947D01*
Y46951D01*
Y46964D01*
Y46981D01*
Y47028D01*
X83893Y47089D01*
Y47162D01*
X83897Y47248D01*
X83906Y47342D01*
X83910Y47450D01*
X83923Y47557D01*
X83931Y47673D01*
X83966Y47910D01*
X83987Y48026D01*
X84009Y48142D01*
X84039Y48254D01*
X84069Y48357D01*
X84073Y48361D01*
X84078Y48383D01*
X84086Y48409D01*
X84103Y48447D01*
X84121Y48490D01*
X84146Y48542D01*
X84172Y48598D01*
X84202Y48662D01*
X84280Y48796D01*
X84370Y48933D01*
X84482Y49067D01*
X84542Y49127D01*
X84606Y49183D01*
X84611Y49187D01*
X84624Y49196D01*
X84645Y49209D01*
X84671Y49230D01*
X84705Y49251D01*
X84748Y49277D01*
X84796Y49303D01*
X84852Y49329D01*
X84916Y49355D01*
X84985Y49385D01*
X85058Y49406D01*
X85135Y49428D01*
X85221Y49449D01*
X85312Y49462D01*
X85406Y49471D01*
X85505Y49475D01*
X85544D01*
X85574Y49471D01*
D02*
G37*
G36*
X83138Y13971D02*
X83181Y13966D01*
X83229Y13962D01*
X83284Y13954D01*
X83349Y13941D01*
X83413Y13928D01*
X83482Y13911D01*
X83555Y13889D01*
X83633Y13863D01*
X83710Y13833D01*
X83788Y13799D01*
X83861Y13760D01*
X83938Y13713D01*
X83942Y13709D01*
X83955Y13700D01*
X83977Y13687D01*
X84003Y13666D01*
X84037Y13640D01*
X84076Y13605D01*
X84119Y13567D01*
X84166Y13524D01*
X84213Y13476D01*
X84265Y13420D01*
X84316Y13360D01*
X84368Y13291D01*
X84415Y13218D01*
X84463Y13145D01*
X84510Y13059D01*
X84549Y12973D01*
X84553Y12969D01*
X84557Y12952D01*
X84570Y12922D01*
X84583Y12883D01*
X84596Y12836D01*
X84618Y12771D01*
X84635Y12702D01*
X84656Y12621D01*
X84673Y12526D01*
X84695Y12423D01*
X84712Y12307D01*
X84725Y12182D01*
X84742Y12049D01*
X84751Y11902D01*
X84755Y11748D01*
X84759Y11580D01*
Y11576D01*
Y11571D01*
Y11554D01*
Y11537D01*
Y11515D01*
Y11490D01*
X84755Y11421D01*
Y11344D01*
X84751Y11249D01*
X84742Y11146D01*
X84734Y11034D01*
X84721Y10918D01*
X84708Y10793D01*
X84673Y10539D01*
X84648Y10415D01*
X84622Y10294D01*
X84587Y10178D01*
X84553Y10066D01*
X84549Y10062D01*
X84544Y10041D01*
X84531Y10011D01*
X84514Y9976D01*
X84493Y9929D01*
X84467Y9873D01*
X84437Y9813D01*
X84398Y9748D01*
X84360Y9679D01*
X84312Y9611D01*
X84261Y9538D01*
X84205Y9469D01*
X84149Y9400D01*
X84080Y9331D01*
X84011Y9267D01*
X83938Y9211D01*
X83934Y9206D01*
X83921Y9198D01*
X83895Y9185D01*
X83865Y9163D01*
X83826Y9142D01*
X83779Y9120D01*
X83727Y9090D01*
X83667Y9065D01*
X83598Y9039D01*
X83525Y9013D01*
X83448Y8987D01*
X83362Y8966D01*
X83276Y8944D01*
X83181Y8931D01*
X83082Y8923D01*
X82983Y8918D01*
X82958D01*
X82928Y8923D01*
X82885D01*
X82837Y8927D01*
X82777Y8935D01*
X82717Y8944D01*
X82644Y8957D01*
X82571Y8974D01*
X82493Y8996D01*
X82416Y9021D01*
X82334Y9056D01*
X82253Y9090D01*
X82175Y9133D01*
X82102Y9185D01*
X82029Y9241D01*
X82025Y9245D01*
X82012Y9258D01*
X81994Y9275D01*
X81969Y9301D01*
X81943Y9335D01*
X81909Y9374D01*
X81874Y9421D01*
X81835Y9477D01*
X81801Y9538D01*
X81762Y9606D01*
X81724Y9679D01*
X81689Y9761D01*
X81659Y9847D01*
X81629Y9942D01*
X81608Y10041D01*
X81590Y10148D01*
X82175Y10204D01*
Y10200D01*
X82179Y10187D01*
X82184Y10165D01*
X82188Y10135D01*
X82197Y10101D01*
X82209Y10062D01*
X82240Y9972D01*
X82274Y9873D01*
X82326Y9774D01*
X82381Y9679D01*
X82416Y9641D01*
X82455Y9602D01*
X82459D01*
X82463Y9593D01*
X82476Y9585D01*
X82493Y9572D01*
X82515Y9559D01*
X82541Y9542D01*
X82601Y9512D01*
X82678Y9477D01*
X82768Y9447D01*
X82876Y9426D01*
X82932Y9421D01*
X82992Y9417D01*
X83039D01*
X83065Y9421D01*
X83091Y9426D01*
X83160Y9434D01*
X83237Y9447D01*
X83319Y9469D01*
X83405Y9499D01*
X83487Y9542D01*
X83491D01*
X83495Y9546D01*
X83521Y9568D01*
X83560Y9593D01*
X83607Y9632D01*
X83663Y9684D01*
X83719Y9740D01*
X83779Y9808D01*
X83831Y9886D01*
Y9890D01*
X83835Y9894D01*
X83843Y9907D01*
X83852Y9924D01*
X83865Y9946D01*
X83878Y9972D01*
X83895Y10002D01*
X83912Y10041D01*
X83947Y10122D01*
X83985Y10221D01*
X84024Y10337D01*
X84058Y10466D01*
Y10471D01*
X84063Y10484D01*
X84067Y10501D01*
X84071Y10531D01*
X84080Y10561D01*
X84089Y10604D01*
X84097Y10647D01*
X84106Y10699D01*
X84110Y10750D01*
X84119Y10810D01*
X84136Y10935D01*
X84145Y11068D01*
X84149Y11210D01*
Y11219D01*
Y11240D01*
Y11279D01*
Y11326D01*
X84140Y11318D01*
X84132Y11305D01*
X84114Y11283D01*
X84097Y11258D01*
X84076Y11232D01*
X84016Y11163D01*
X83947Y11090D01*
X83861Y11012D01*
X83758Y10935D01*
X83646Y10862D01*
X83641D01*
X83633Y10853D01*
X83616Y10845D01*
X83590Y10832D01*
X83564Y10819D01*
X83525Y10806D01*
X83487Y10789D01*
X83444Y10772D01*
X83340Y10737D01*
X83229Y10711D01*
X83100Y10690D01*
X82966Y10681D01*
X82941D01*
X82906Y10686D01*
X82863Y10690D01*
X82811Y10694D01*
X82751Y10703D01*
X82683Y10720D01*
X82605Y10737D01*
X82528Y10759D01*
X82442Y10789D01*
X82356Y10827D01*
X82270Y10866D01*
X82179Y10918D01*
X82093Y10978D01*
X82007Y11047D01*
X81926Y11124D01*
X81921Y11129D01*
X81909Y11146D01*
X81887Y11171D01*
X81861Y11206D01*
X81827Y11249D01*
X81792Y11305D01*
X81754Y11369D01*
X81715Y11438D01*
X81672Y11520D01*
X81633Y11610D01*
X81599Y11705D01*
X81569Y11812D01*
X81539Y11924D01*
X81517Y12040D01*
X81504Y12169D01*
X81500Y12302D01*
Y12307D01*
Y12311D01*
Y12337D01*
X81504Y12376D01*
X81509Y12427D01*
X81513Y12492D01*
X81521Y12565D01*
X81539Y12646D01*
X81556Y12737D01*
X81577Y12831D01*
X81608Y12930D01*
X81646Y13029D01*
X81685Y13132D01*
X81736Y13231D01*
X81797Y13330D01*
X81866Y13425D01*
X81943Y13515D01*
X81947Y13519D01*
X81964Y13536D01*
X81990Y13558D01*
X82025Y13588D01*
X82068Y13623D01*
X82119Y13661D01*
X82179Y13704D01*
X82248Y13747D01*
X82326Y13790D01*
X82412Y13829D01*
X82502Y13868D01*
X82601Y13902D01*
X82704Y13932D01*
X82816Y13954D01*
X82932Y13971D01*
X83057Y13975D01*
X83104D01*
X83138Y13971D01*
D02*
G37*
G36*
X7297Y49971D02*
X7345D01*
X7405Y49962D01*
X7478Y49954D01*
X7555Y49941D01*
X7637Y49928D01*
X7727Y49906D01*
X7818Y49880D01*
X7912Y49846D01*
X8007Y49807D01*
X8101Y49764D01*
X8192Y49709D01*
X8278Y49648D01*
X8360Y49580D01*
X8364Y49575D01*
X8377Y49562D01*
X8398Y49541D01*
X8424Y49511D01*
X8458Y49472D01*
X8493Y49425D01*
X8527Y49369D01*
X8570Y49309D01*
X8609Y49240D01*
X8643Y49167D01*
X8682Y49085D01*
X8712Y48999D01*
X8738Y48909D01*
X8759Y48810D01*
X8772Y48707D01*
X8777Y48599D01*
Y48595D01*
Y48586D01*
Y48569D01*
Y48548D01*
X8772Y48522D01*
Y48487D01*
X8759Y48414D01*
X8747Y48324D01*
X8725Y48225D01*
X8695Y48118D01*
X8652Y48010D01*
Y48006D01*
X8648Y47997D01*
X8639Y47980D01*
X8630Y47963D01*
X8618Y47933D01*
X8600Y47903D01*
X8579Y47868D01*
X8557Y47829D01*
X8501Y47739D01*
X8433Y47636D01*
X8347Y47524D01*
X8248Y47408D01*
X8243Y47404D01*
X8235Y47395D01*
X8218Y47374D01*
X8196Y47348D01*
X8162Y47318D01*
X8123Y47279D01*
X8080Y47232D01*
X8028Y47180D01*
X7964Y47120D01*
X7895Y47055D01*
X7822Y46982D01*
X7736Y46905D01*
X7646Y46823D01*
X7542Y46733D01*
X7435Y46638D01*
X7315Y46535D01*
X7310Y46531D01*
X7289Y46514D01*
X7263Y46492D01*
X7224Y46462D01*
X7181Y46423D01*
X7134Y46380D01*
X7078Y46333D01*
X7022Y46286D01*
X6902Y46183D01*
X6786Y46079D01*
X6734Y46032D01*
X6683Y45985D01*
X6644Y45946D01*
X6609Y45912D01*
X6601Y45903D01*
X6584Y45886D01*
X6554Y45851D01*
X6519Y45808D01*
X6480Y45761D01*
X6437Y45705D01*
X6394Y45645D01*
X6356Y45585D01*
X8785D01*
Y45000D01*
X5509D01*
Y45004D01*
Y45009D01*
Y45022D01*
Y45039D01*
Y45082D01*
X5513Y45133D01*
X5522Y45198D01*
X5534Y45271D01*
X5552Y45344D01*
X5577Y45421D01*
Y45426D01*
X5582Y45439D01*
X5590Y45456D01*
X5603Y45477D01*
X5616Y45507D01*
X5633Y45546D01*
X5650Y45585D01*
X5676Y45628D01*
X5728Y45731D01*
X5801Y45838D01*
X5883Y45959D01*
X5977Y46079D01*
X5982Y46084D01*
X5990Y46092D01*
X6007Y46114D01*
X6029Y46135D01*
X6059Y46165D01*
X6093Y46204D01*
X6132Y46247D01*
X6179Y46294D01*
X6235Y46346D01*
X6291Y46402D01*
X6360Y46466D01*
X6429Y46531D01*
X6506Y46600D01*
X6588Y46673D01*
X6678Y46750D01*
X6773Y46828D01*
X6777D01*
X6781Y46836D01*
X6807Y46858D01*
X6850Y46892D01*
X6902Y46939D01*
X6971Y46995D01*
X7044Y47060D01*
X7125Y47133D01*
X7211Y47210D01*
X7302Y47292D01*
X7396Y47378D01*
X7487Y47464D01*
X7577Y47554D01*
X7659Y47640D01*
X7736Y47726D01*
X7805Y47804D01*
X7865Y47881D01*
X7869Y47885D01*
X7878Y47898D01*
X7891Y47920D01*
X7908Y47945D01*
X7930Y47980D01*
X7955Y48023D01*
X7981Y48066D01*
X8007Y48118D01*
X8059Y48229D01*
X8106Y48354D01*
X8123Y48419D01*
X8136Y48483D01*
X8145Y48548D01*
X8149Y48612D01*
Y48616D01*
Y48629D01*
Y48646D01*
X8145Y48672D01*
X8140Y48702D01*
X8136Y48741D01*
X8127Y48780D01*
X8119Y48823D01*
X8084Y48922D01*
X8067Y48969D01*
X8041Y49020D01*
X8011Y49072D01*
X7977Y49124D01*
X7938Y49175D01*
X7891Y49223D01*
X7886Y49227D01*
X7878Y49235D01*
X7865Y49244D01*
X7843Y49261D01*
X7818Y49279D01*
X7788Y49300D01*
X7753Y49326D01*
X7710Y49347D01*
X7663Y49369D01*
X7611Y49395D01*
X7555Y49416D01*
X7495Y49433D01*
X7435Y49450D01*
X7366Y49463D01*
X7293Y49468D01*
X7216Y49472D01*
X7173D01*
X7143Y49468D01*
X7108Y49463D01*
X7065Y49459D01*
X7014Y49450D01*
X6962Y49438D01*
X6850Y49408D01*
X6794Y49386D01*
X6734Y49360D01*
X6678Y49330D01*
X6622Y49291D01*
X6566Y49253D01*
X6515Y49205D01*
X6510Y49201D01*
X6502Y49193D01*
X6489Y49180D01*
X6476Y49158D01*
X6455Y49128D01*
X6433Y49098D01*
X6407Y49059D01*
X6386Y49016D01*
X6360Y48965D01*
X6334Y48909D01*
X6313Y48849D01*
X6295Y48784D01*
X6278Y48715D01*
X6265Y48638D01*
X6257Y48560D01*
X6252Y48474D01*
X5625Y48539D01*
Y48548D01*
X5629Y48569D01*
X5633Y48608D01*
X5642Y48655D01*
X5650Y48711D01*
X5668Y48780D01*
X5685Y48853D01*
X5706Y48935D01*
X5737Y49020D01*
X5767Y49106D01*
X5805Y49197D01*
X5853Y49283D01*
X5904Y49373D01*
X5960Y49455D01*
X6029Y49532D01*
X6102Y49605D01*
X6106Y49610D01*
X6123Y49622D01*
X6145Y49640D01*
X6179Y49661D01*
X6222Y49691D01*
X6274Y49721D01*
X6334Y49756D01*
X6403Y49790D01*
X6476Y49825D01*
X6562Y49859D01*
X6657Y49889D01*
X6756Y49919D01*
X6863Y49941D01*
X6979Y49958D01*
X7100Y49971D01*
X7229Y49975D01*
X7259D01*
X7297Y49971D01*
D02*
G37*
G36*
X3528Y8300D02*
X2917D01*
Y12174D01*
X2913Y12170D01*
X2908Y12166D01*
X2895Y12153D01*
X2878Y12140D01*
X2852Y12118D01*
X2827Y12097D01*
X2796Y12071D01*
X2762Y12041D01*
X2676Y11981D01*
X2577Y11908D01*
X2465Y11830D01*
X2336Y11753D01*
X2332Y11749D01*
X2319Y11744D01*
X2302Y11731D01*
X2276Y11718D01*
X2246Y11701D01*
X2212Y11684D01*
X2169Y11658D01*
X2126Y11637D01*
X2027Y11585D01*
X1919Y11534D01*
X1808Y11482D01*
X1700Y11439D01*
Y12028D01*
X1704Y12032D01*
X1722Y12041D01*
X1752Y12054D01*
X1786Y12071D01*
X1829Y12093D01*
X1881Y12123D01*
X1936Y12153D01*
X2001Y12191D01*
X2070Y12230D01*
X2139Y12278D01*
X2289Y12376D01*
X2444Y12488D01*
X2590Y12609D01*
X2594Y12613D01*
X2607Y12626D01*
X2624Y12643D01*
X2655Y12669D01*
X2685Y12699D01*
X2719Y12733D01*
X2758Y12776D01*
X2801Y12819D01*
X2891Y12923D01*
X2981Y13034D01*
X3063Y13155D01*
X3102Y13215D01*
X3132Y13275D01*
X3528D01*
Y8300D01*
D02*
G37*
%LPC*%
G36*
X85497Y48972D02*
X85479D01*
X85458Y48968D01*
X85428D01*
X85393Y48959D01*
X85350Y48955D01*
X85307Y48942D01*
X85256Y48929D01*
X85204Y48908D01*
X85148Y48886D01*
X85092Y48856D01*
X85036Y48821D01*
X84981Y48783D01*
X84929Y48731D01*
X84877Y48680D01*
X84826Y48615D01*
X84821Y48611D01*
X84813Y48594D01*
X84796Y48564D01*
X84778Y48525D01*
X84753Y48473D01*
X84727Y48409D01*
X84701Y48331D01*
X84671Y48237D01*
X84641Y48129D01*
X84615Y48009D01*
X84589Y47871D01*
X84563Y47721D01*
X84546Y47549D01*
X84529Y47364D01*
X84525Y47265D01*
X84521Y47162D01*
X84516Y47054D01*
Y46942D01*
Y46938D01*
Y46929D01*
Y46912D01*
Y46891D01*
Y46861D01*
Y46826D01*
X84521Y46788D01*
Y46745D01*
X84525Y46646D01*
X84533Y46534D01*
X84542Y46413D01*
X84551Y46280D01*
X84568Y46147D01*
X84585Y46009D01*
X84606Y45872D01*
X84637Y45743D01*
X84667Y45618D01*
X84705Y45502D01*
X84748Y45403D01*
X84774Y45356D01*
X84800Y45317D01*
X84804Y45313D01*
X84813Y45300D01*
X84830Y45278D01*
X84852Y45257D01*
X84877Y45222D01*
X84912Y45192D01*
X84951Y45154D01*
X84993Y45119D01*
X85045Y45081D01*
X85097Y45042D01*
X85157Y45012D01*
X85217Y44982D01*
X85286Y44956D01*
X85355Y44934D01*
X85428Y44921D01*
X85505Y44917D01*
X85522D01*
X85544Y44921D01*
X85574Y44926D01*
X85613Y44930D01*
X85651Y44939D01*
X85699Y44952D01*
X85750Y44969D01*
X85802Y44990D01*
X85858Y45016D01*
X85918Y45050D01*
X85978Y45089D01*
X86034Y45132D01*
X86094Y45188D01*
X86150Y45248D01*
X86206Y45321D01*
X86210Y45326D01*
X86219Y45343D01*
X86232Y45369D01*
X86253Y45403D01*
X86275Y45450D01*
X86296Y45515D01*
X86322Y45588D01*
X86352Y45674D01*
X86378Y45777D01*
X86404Y45893D01*
X86425Y46027D01*
X86451Y46177D01*
X86460Y46254D01*
X86468Y46340D01*
X86477Y46431D01*
X86481Y46525D01*
X86486Y46620D01*
X86490Y46723D01*
X86494Y46831D01*
Y46942D01*
Y46947D01*
Y46955D01*
Y46973D01*
Y46994D01*
Y47024D01*
Y47058D01*
X86490Y47097D01*
Y47140D01*
X86486Y47239D01*
X86477Y47351D01*
X86468Y47471D01*
X86460Y47605D01*
X86443Y47738D01*
X86425Y47875D01*
X86400Y48013D01*
X86374Y48142D01*
X86339Y48267D01*
X86301Y48383D01*
X86258Y48482D01*
X86232Y48529D01*
X86206Y48568D01*
X86202Y48572D01*
X86193Y48585D01*
X86176Y48607D01*
X86155Y48632D01*
X86129Y48662D01*
X86094Y48697D01*
X86056Y48731D01*
X86013Y48770D01*
X85961Y48809D01*
X85909Y48843D01*
X85849Y48877D01*
X85789Y48908D01*
X85720Y48933D01*
X85651Y48955D01*
X85574Y48968D01*
X85497Y48972D01*
D02*
G37*
G36*
X83134Y13472D02*
X83095D01*
X83065Y13468D01*
X83031Y13463D01*
X82988Y13455D01*
X82945Y13446D01*
X82893Y13429D01*
X82837Y13412D01*
X82781Y13390D01*
X82721Y13364D01*
X82661Y13334D01*
X82601Y13296D01*
X82541Y13248D01*
X82480Y13201D01*
X82424Y13141D01*
X82420Y13137D01*
X82412Y13124D01*
X82399Y13106D01*
X82377Y13081D01*
X82356Y13046D01*
X82330Y13008D01*
X82304Y12960D01*
X82278Y12909D01*
X82248Y12848D01*
X82222Y12784D01*
X82197Y12715D01*
X82175Y12638D01*
X82154Y12556D01*
X82141Y12470D01*
X82132Y12380D01*
X82128Y12281D01*
Y12277D01*
Y12259D01*
Y12234D01*
X82132Y12203D01*
X82136Y12161D01*
X82145Y12117D01*
X82154Y12066D01*
X82162Y12006D01*
X82197Y11885D01*
X82218Y11821D01*
X82248Y11756D01*
X82278Y11692D01*
X82317Y11632D01*
X82360Y11567D01*
X82412Y11511D01*
X82416Y11507D01*
X82424Y11498D01*
X82442Y11485D01*
X82463Y11464D01*
X82489Y11442D01*
X82523Y11421D01*
X82562Y11391D01*
X82605Y11365D01*
X82657Y11339D01*
X82708Y11313D01*
X82768Y11288D01*
X82829Y11266D01*
X82898Y11245D01*
X82966Y11232D01*
X83039Y11223D01*
X83117Y11219D01*
X83156D01*
X83186Y11223D01*
X83224Y11227D01*
X83263Y11236D01*
X83310Y11245D01*
X83362Y11258D01*
X83469Y11292D01*
X83530Y11313D01*
X83586Y11344D01*
X83646Y11378D01*
X83702Y11417D01*
X83758Y11460D01*
X83809Y11511D01*
X83813Y11515D01*
X83822Y11524D01*
X83835Y11541D01*
X83852Y11567D01*
X83874Y11597D01*
X83895Y11632D01*
X83921Y11675D01*
X83947Y11726D01*
X83973Y11782D01*
X83998Y11842D01*
X84020Y11911D01*
X84041Y11984D01*
X84058Y12062D01*
X84071Y12148D01*
X84080Y12238D01*
X84084Y12332D01*
Y12337D01*
Y12354D01*
Y12384D01*
X84080Y12419D01*
X84076Y12461D01*
X84071Y12513D01*
X84063Y12573D01*
X84050Y12633D01*
X84016Y12767D01*
X83994Y12836D01*
X83968Y12904D01*
X83934Y12973D01*
X83895Y13038D01*
X83852Y13102D01*
X83805Y13162D01*
X83801Y13167D01*
X83792Y13175D01*
X83775Y13193D01*
X83753Y13210D01*
X83727Y13236D01*
X83697Y13261D01*
X83659Y13287D01*
X83616Y13317D01*
X83568Y13347D01*
X83517Y13373D01*
X83405Y13425D01*
X83340Y13442D01*
X83276Y13459D01*
X83207Y13468D01*
X83134Y13472D01*
D02*
G37*
%LPD*%
D10*
X42500Y90500D02*
X42690Y89543D01*
X43232Y88732D01*
X44043Y88190D01*
X45000Y88000D01*
X45957Y88190D01*
X46768Y88732D01*
X47310Y89543D01*
X47500Y90500D01*
X23209Y50500D02*
Y90500D01*
Y50500D02*
X66791D01*
Y90500D01*
X47500D02*
X66791D01*
X23209D02*
X42500D01*
X56086Y111708D02*
X55365Y112429D01*
X53922D01*
X53200Y111708D01*
Y108822D01*
X53922Y108100D01*
X55365D01*
X56086Y108822D01*
X60416Y111708D02*
X59694Y112429D01*
X58251D01*
X57529Y111708D01*
Y110986D01*
X58251Y110265D01*
X59694D01*
X60416Y109543D01*
Y108822D01*
X59694Y108100D01*
X58251D01*
X57529Y108822D01*
X64745Y108100D02*
X61859D01*
X64745Y110986D01*
Y111708D01*
X64023Y112429D01*
X62580D01*
X61859Y111708D01*
X12089Y96058D02*
Y91795D01*
X12942Y90942D01*
X14647D01*
X15500Y91795D01*
Y96058D01*
X17206Y90942D02*
X18911D01*
X18058D01*
Y96058D01*
X17206Y95205D01*
X71086Y111708D02*
X70365Y112429D01*
X68922D01*
X68200Y111708D01*
Y108822D01*
X68922Y108100D01*
X70365D01*
X71086Y108822D01*
X75415Y111708D02*
X74694Y112429D01*
X73251D01*
X72529Y111708D01*
Y110986D01*
X73251Y110265D01*
X74694D01*
X75415Y109543D01*
Y108822D01*
X74694Y108100D01*
X73251D01*
X72529Y108822D01*
X76859Y108100D02*
X78302D01*
X77580D01*
Y112429D01*
X76859Y111708D01*
X41586D02*
X40865Y112429D01*
X39422D01*
X38700Y111708D01*
Y108822D01*
X39422Y108100D01*
X40865D01*
X41586Y108822D01*
X45915Y111708D02*
X45194Y112429D01*
X43751D01*
X43029Y111708D01*
Y110986D01*
X43751Y110265D01*
X45194D01*
X45915Y109543D01*
Y108822D01*
X45194Y108100D01*
X43751D01*
X43029Y108822D01*
X47359Y111708D02*
X48080Y112429D01*
X49523D01*
X50245Y111708D01*
Y110986D01*
X49523Y110265D01*
X48802D01*
X49523D01*
X50245Y109543D01*
Y108822D01*
X49523Y108100D01*
X48080D01*
X47359Y108822D01*
X27586Y111708D02*
X26865Y112429D01*
X25422D01*
X24700Y111708D01*
Y108822D01*
X25422Y108100D01*
X26865D01*
X27586Y108822D01*
X31916Y111708D02*
X31194Y112429D01*
X29751D01*
X29029Y111708D01*
Y110986D01*
X29751Y110265D01*
X31194D01*
X31916Y109543D01*
Y108822D01*
X31194Y108100D01*
X29751D01*
X29029Y108822D01*
X35523Y108100D02*
Y112429D01*
X33359Y110265D01*
X36245D01*
X12586Y111708D02*
X11865Y112429D01*
X10422D01*
X9700Y111708D01*
Y108822D01*
X10422Y108100D01*
X11865D01*
X12586Y108822D01*
X16916Y111708D02*
X16194Y112429D01*
X14751D01*
X14029Y111708D01*
Y110986D01*
X14751Y110265D01*
X16194D01*
X16916Y109543D01*
Y108822D01*
X16194Y108100D01*
X14751D01*
X14029Y108822D01*
X21245Y112429D02*
X18359D01*
Y110265D01*
X19802Y110986D01*
X20523D01*
X21245Y110265D01*
Y108822D01*
X20523Y108100D01*
X19080D01*
X18359Y108822D01*
D11*
X55500Y105100D02*
X61799D01*
X60175Y98883D02*
X61750D01*
X55400Y98900D02*
X60175Y98883D01*
X70500Y105100D02*
X76799D01*
X75175Y98883D02*
X76750D01*
X70400Y98900D02*
X75175Y98883D01*
X41000Y105100D02*
X47299D01*
X45675Y98883D02*
X47250D01*
X40900Y98900D02*
X45675Y98883D01*
X27000Y105100D02*
X33299D01*
X31675Y98883D02*
X33250D01*
X26900Y98900D02*
X31675Y98883D01*
X12000Y105100D02*
X18299D01*
X16675Y98883D02*
X18250D01*
X11900Y98900D02*
X16675Y98883D01*
D12*
X5100Y42700D02*
X86200D01*
Y6900D02*
Y42700D01*
X5100Y6900D02*
X86200D01*
X5100D02*
Y42700D01*
D13*
X12500Y15499D02*
X10501D01*
X11500D01*
Y10501D01*
X10501Y9501D01*
X9501D01*
X8501Y10501D01*
X14499Y9501D02*
X16499D01*
X15499D01*
Y15499D01*
X14499Y14499D01*
D14*
X78740Y0D02*
X79716Y40D01*
X80684Y161D01*
X81640Y361D01*
X82575Y640D01*
X83485Y995D01*
X84362Y1424D01*
X85200Y1923D01*
X85995Y2490D01*
X86739Y3121D01*
X87430Y3812D01*
X88061Y4557D01*
X88628Y5351D01*
X89128Y6190D01*
X89556Y7067D01*
X89911Y7976D01*
X90190Y8912D01*
X90390Y9867D01*
X90511Y10836D01*
X90551Y11811D01*
X90551Y106299D02*
X90511Y107275D01*
X90390Y108243D01*
X90190Y109199D01*
X89911Y110134D01*
X89556Y111044D01*
X89128Y111921D01*
X88628Y112759D01*
X88061Y113554D01*
X87430Y114299D01*
X86740Y114989D01*
X85995Y115620D01*
X85200Y116187D01*
X84362Y116687D01*
X83485Y117115D01*
X82575Y117470D01*
X81640Y117749D01*
X80684Y117949D01*
X79716Y118070D01*
X78740Y118110D01*
X11811D02*
X10836Y118070D01*
X9867Y117949D01*
X8912Y117749D01*
X7976Y117470D01*
X7067Y117115D01*
X6190Y116687D01*
X5351Y116187D01*
X4557Y115620D01*
X3812Y114989D01*
X3121Y114299D01*
X2490Y113554D01*
X1923Y112759D01*
X1424Y111921D01*
X995Y111044D01*
X640Y110134D01*
X361Y109199D01*
X161Y108243D01*
X40Y107275D01*
X-0Y106299D01*
X0Y11811D02*
X40Y10836D01*
X161Y9867D01*
X361Y8912D01*
X640Y7976D01*
X995Y7067D01*
X1424Y6190D01*
X1923Y5351D01*
X2490Y4557D01*
X3121Y3812D01*
X3812Y3121D01*
X4557Y2490D01*
X5351Y1923D01*
X6190Y1424D01*
X7067Y995D01*
X7976Y640D01*
X8912Y361D01*
X9867Y161D01*
X10836Y40D01*
X11811Y0D01*
X90551Y11811D02*
Y106299D01*
X11811Y118110D02*
X78740D01*
X0Y11811D02*
Y106299D01*
X11811Y0D02*
X78740D01*
M02*
