G04*
G04 #@! TF.GenerationSoftware,Altium Limited,Altium Designer,20.1.14 (287)*
G04*
G04 Layer_Physical_Order=1*
G04 Layer_Color=255*
%FSLAX25Y25*%
%MOIN*%
G70*
G04*
G04 #@! TF.SameCoordinates,AECB5131-AEB6-4EF0-9EC0-680490A520C0*
G04*
G04*
G04 #@! TF.FilePolarity,Positive*
G04*
G01*
G75*
%ADD13C,0.01000*%
%ADD14C,0.00050*%
G04:AMPARAMS|DCode=21|XSize=37.01mil|YSize=40.16mil|CornerRadius=3.7mil|HoleSize=0mil|Usage=FLASHONLY|Rotation=180.000|XOffset=0mil|YOffset=0mil|HoleType=Round|Shape=RoundedRectangle|*
%AMROUNDEDRECTD21*
21,1,0.03701,0.03276,0,0,180.0*
21,1,0.02961,0.04016,0,0,180.0*
1,1,0.00740,-0.01480,0.01638*
1,1,0.00740,0.01480,0.01638*
1,1,0.00740,0.01480,-0.01638*
1,1,0.00740,-0.01480,-0.01638*
%
%ADD21ROUNDEDRECTD21*%
%ADD22O,0.09843X0.04724*%
%ADD23R,0.09843X0.04724*%
%ADD24C,0.06378*%
%ADD25C,0.02500*%
D13*
X22500Y101500D02*
X26390D01*
X26890Y102000D01*
X21000Y107910D02*
X30590D01*
X33345Y105155D01*
X33110Y104920D02*
X36000Y107810D01*
X33110Y102595D02*
Y104920D01*
Y102000D02*
Y102595D01*
X13700Y97300D02*
X33500D01*
X11890Y102000D02*
X11922Y101968D01*
Y99078D02*
Y101968D01*
Y99078D02*
X13700Y97300D01*
X50310Y109200D02*
X58820D01*
X61610Y106410D02*
Y106410D01*
X58820Y109200D02*
X61610Y106410D01*
X47110Y104590D02*
X50310Y109200D01*
X58300Y75900D02*
Y105200D01*
X53500Y107400D02*
X56100D01*
X58300Y105200D01*
X44200Y97586D02*
Y103900D01*
X50600Y97586D02*
Y104500D01*
X50014Y97000D02*
X50600Y97586D01*
X44786Y97000D02*
X50014D01*
X44200Y97586D02*
X44786Y97000D01*
X38900Y105400D02*
X42700D01*
X36400Y100200D02*
Y102900D01*
X38900Y105400D01*
X72500Y16500D02*
Y31700D01*
X72000Y16000D02*
X72500Y16500D01*
X71207Y15000D02*
X71414D01*
X72000Y15586D01*
Y16000D01*
X55000Y14000D02*
X70207D01*
X71207Y15000D01*
X50500Y18500D02*
X55000Y14000D01*
X67800Y36400D02*
X72500Y31700D01*
X55390Y69010D02*
Y102000D01*
Y69010D02*
X61000Y63400D01*
Y25500D02*
Y63400D01*
X56000Y20500D02*
X61000Y25500D01*
X40890Y45610D02*
Y102000D01*
Y45610D02*
X56000Y30500D01*
X33500Y97300D02*
X36400Y100200D01*
X42700Y105400D02*
X44200Y103900D01*
X50600Y104500D02*
X53500Y107400D01*
X58300Y75900D02*
X66000Y68200D01*
Y30500D02*
Y68200D01*
X18110Y102000D02*
Y105020D01*
X21000Y107910D01*
X47110Y102000D02*
Y104590D01*
X70390Y98300D02*
Y102000D01*
X67800Y95710D02*
X70390Y98300D01*
X67800Y36400D02*
Y95710D01*
X50500Y18500D02*
Y26000D01*
X46000Y30500D02*
X50500Y26000D01*
X26000Y20500D02*
Y24000D01*
X21500Y28500D02*
X26000Y24000D01*
X21500Y28500D02*
Y69000D01*
X15000Y75500D02*
X21500Y69000D01*
X26000Y30500D02*
Y80500D01*
X21000Y85500D02*
X26000Y80500D01*
X15000Y85500D02*
X21000D01*
X75000Y65500D02*
X81600D01*
X84600Y68500D01*
Y98500D01*
X81100Y102000D02*
X84600Y98500D01*
X76610Y102000D02*
X81100D01*
X76610D02*
Y105190D01*
X75390Y106410D02*
X76610Y105190D01*
X61610Y106410D02*
X75390D01*
X61610Y102000D02*
Y106410D01*
X36000Y107810D02*
X43890D01*
X47110Y104590D01*
D14*
X78740Y0D02*
X79716Y40D01*
X80684Y161D01*
X81640Y361D01*
X82575Y640D01*
X83485Y995D01*
X84362Y1424D01*
X85200Y1923D01*
X85995Y2490D01*
X86739Y3121D01*
X87430Y3812D01*
X88061Y4557D01*
X88628Y5351D01*
X89128Y6190D01*
X89556Y7067D01*
X89911Y7976D01*
X90190Y8912D01*
X90390Y9867D01*
X90511Y10836D01*
X90551Y11811D01*
X90551Y106299D02*
X90511Y107275D01*
X90390Y108243D01*
X90190Y109199D01*
X89911Y110134D01*
X89556Y111044D01*
X89128Y111921D01*
X88628Y112759D01*
X88061Y113554D01*
X87430Y114299D01*
X86740Y114989D01*
X85995Y115620D01*
X85200Y116187D01*
X84362Y116687D01*
X83485Y117115D01*
X82575Y117470D01*
X81640Y117749D01*
X80684Y117949D01*
X79716Y118070D01*
X78740Y118110D01*
X11811D02*
X10836Y118070D01*
X9867Y117949D01*
X8912Y117749D01*
X7976Y117470D01*
X7067Y117115D01*
X6190Y116687D01*
X5351Y116187D01*
X4557Y115620D01*
X3812Y114989D01*
X3121Y114299D01*
X2490Y113554D01*
X1923Y112759D01*
X1424Y111921D01*
X995Y111044D01*
X640Y110134D01*
X361Y109199D01*
X161Y108243D01*
X40Y107275D01*
X-0Y106299D01*
X0Y11811D02*
X40Y10836D01*
X161Y9867D01*
X361Y8912D01*
X640Y7976D01*
X995Y7067D01*
X1424Y6190D01*
X1923Y5351D01*
X2490Y4557D01*
X3121Y3812D01*
X3812Y3121D01*
X4557Y2490D01*
X5351Y1923D01*
X6190Y1424D01*
X7067Y995D01*
X7976Y640D01*
X8912Y361D01*
X9867Y161D01*
X10836Y40D01*
X11811Y0D01*
X90551Y11811D02*
Y106299D01*
X11811Y118110D02*
X78740D01*
X0Y11811D02*
Y106299D01*
X11811Y0D02*
X78740D01*
D21*
X55390Y102000D02*
D03*
X61610D02*
D03*
X70390D02*
D03*
X76610D02*
D03*
X40890D02*
D03*
X47110D02*
D03*
X26890D02*
D03*
X33110D02*
D03*
X11890D02*
D03*
X18110D02*
D03*
D22*
X75000Y55500D02*
D03*
Y65500D02*
D03*
Y75500D02*
D03*
Y85500D02*
D03*
X15000Y55500D02*
D03*
Y65500D02*
D03*
Y75500D02*
D03*
D23*
Y85500D02*
D03*
D24*
X66000Y30500D02*
D03*
Y20500D02*
D03*
X56000Y30500D02*
D03*
Y20500D02*
D03*
X46000Y30500D02*
D03*
Y20500D02*
D03*
X36000Y30500D02*
D03*
Y20500D02*
D03*
X26000Y30500D02*
D03*
Y20500D02*
D03*
D25*
X22500Y101500D02*
D03*
M02*
