G04*
G04 #@! TF.GenerationSoftware,Altium Limited,Altium Designer,20.1.14 (287)*
G04*
G04 Layer_Color=32896*
%FSLAX25Y25*%
%MOIN*%
G70*
G04*
G04 #@! TF.SameCoordinates,AECB5131-AEB6-4EF0-9EC0-680490A520C0*
G04*
G04*
G04 #@! TF.FilePolarity,Positive*
G04*
G01*
G75*
%ADD14C,0.00050*%
D14*
X78740Y0D02*
X79716Y40D01*
X80684Y161D01*
X81640Y361D01*
X82575Y640D01*
X83485Y995D01*
X84362Y1424D01*
X85200Y1923D01*
X85995Y2490D01*
X86739Y3121D01*
X87430Y3812D01*
X88061Y4557D01*
X88628Y5351D01*
X89128Y6190D01*
X89556Y7067D01*
X89911Y7976D01*
X90190Y8912D01*
X90390Y9867D01*
X90511Y10836D01*
X90551Y11811D01*
X90551Y106299D02*
X90511Y107275D01*
X90390Y108243D01*
X90190Y109199D01*
X89911Y110134D01*
X89556Y111044D01*
X89128Y111921D01*
X88628Y112759D01*
X88061Y113554D01*
X87430Y114299D01*
X86740Y114989D01*
X85995Y115620D01*
X85200Y116187D01*
X84362Y116687D01*
X83485Y117115D01*
X82575Y117470D01*
X81640Y117749D01*
X80684Y117949D01*
X79716Y118070D01*
X78740Y118110D01*
X11811D02*
X10836Y118070D01*
X9867Y117949D01*
X8912Y117749D01*
X7976Y117470D01*
X7067Y117115D01*
X6190Y116687D01*
X5351Y116187D01*
X4557Y115620D01*
X3812Y114989D01*
X3121Y114299D01*
X2490Y113554D01*
X1923Y112759D01*
X1424Y111921D01*
X995Y111044D01*
X640Y110134D01*
X361Y109199D01*
X161Y108243D01*
X40Y107275D01*
X-0Y106299D01*
X0Y11811D02*
X40Y10836D01*
X161Y9867D01*
X361Y8912D01*
X640Y7976D01*
X995Y7067D01*
X1424Y6190D01*
X1923Y5351D01*
X2490Y4557D01*
X3121Y3812D01*
X3812Y3121D01*
X4557Y2490D01*
X5351Y1923D01*
X6190Y1424D01*
X7067Y995D01*
X7976Y640D01*
X8912Y361D01*
X9867Y161D01*
X10836Y40D01*
X11811Y0D01*
X90551Y11811D02*
Y106299D01*
X11811Y118110D02*
X78740D01*
X0Y11811D02*
Y106299D01*
X11811Y0D02*
X78740D01*
M02*
